<mxfile host="app.diagrams.net" modified="2023-01-24T02:50:52.854Z" agent="5.0 (Macintosh; Intel Mac OS X 10_15_7) AppleWebKit/537.36 (KHTML, like Gecko) Chrome/109.0.0.0 Safari/537.36" etag="Zq-AxIK8SJGUlxPh4ELp" version="20.0.4" type="github">
  <diagram id="0mZBYTjs_bvG7DaMYMUY" name="Page-1">
    <mxGraphModel dx="1306" dy="1951" grid="1" gridSize="10" guides="1" tooltips="1" connect="1" arrows="1" fold="1" page="1" pageScale="1" pageWidth="827" pageHeight="1169" math="0" shadow="0">
      <root>
        <mxCell id="0" />
        <mxCell id="1" parent="0" />
        <mxCell id="0ri98CfVSG6h3WFVPkks-1" value="v" style="rounded=1;whiteSpace=wrap;html=1;dashed=1;strokeColor=none;strokeWidth=2;fillColor=#E6E6E6;fontFamily=Verdana;fontSize=12;fontColor=#00BEF2" vertex="1" parent="1">
          <mxGeometry x="150" y="-1075" width="320" height="145" as="geometry" />
        </mxCell>
        <mxCell id="0ri98CfVSG6h3WFVPkks-2" value="" style="shape=image;verticalLabelPosition=bottom;labelBackgroundColor=#ffffff;verticalAlign=top;aspect=fixed;imageAspect=0;image=data:image/svg+xml,PHN2ZyB4bWxuczpjYz0iaHR0cDovL2NyZWF0aXZlY29tbW9ucy5vcmcvbnMjIiB4bWxuczpkYz0iaHR0cDovL3B1cmwub3JnL2RjL2VsZW1lbnRzLzEuMS8iIHhtbG5zOmlua3NjYXBlPSJodHRwOi8vd3d3Lmlua3NjYXBlLm9yZy9uYW1lc3BhY2VzL2lua3NjYXBlIiB4bWxuczpyZGY9Imh0dHA6Ly93d3cudzMub3JnLzE5OTkvMDIvMjItcmRmLXN5bnRheC1ucyMiIHhtbG5zOnNvZGlwb2RpPSJodHRwOi8vc29kaXBvZGkuc291cmNlZm9yZ2UubmV0L0RURC9zb2RpcG9kaS0wLmR0ZCIgeG1sbnM6c3ZnPSJodHRwOi8vd3d3LnczLm9yZy8yMDAwL3N2ZyIgeG1sbnM9Imh0dHA6Ly93d3cudzMub3JnLzIwMDAvc3ZnIiB4bWxuczp4bGluaz0iaHR0cDovL3d3dy53My5vcmcvMTk5OS94bGluayIgdmVyc2lvbj0iMS4xIiBpZD0ic3ZnMTQ5NyIgaW5rc2NhcGU6dmVyc2lvbj0iMC45Mi4zICgyNDA1NTQ2LCAyMDE4LTAzLTExKSIgc29kaXBvZGk6ZG9jbmFtZT0iYXBwbGUuc3ZnIiB4PSIwcHgiIHk9IjBweCIgdmlld0JveD0iMCAwIDc0LjY3IDcwLjQiIHN0eWxlPSJlbmFibGUtYmFja2dyb3VuZDpuZXcgMCAwIDc0LjY3IDcwLjQ7IiB4bWw6c3BhY2U9InByZXNlcnZlIj4mI3hhOzxzb2RpcG9kaTpuYW1lZHZpZXcgYm9yZGVyY29sb3I9IiM2NjY2NjYiIGJvcmRlcm9wYWNpdHk9IjEiIGZpdC1tYXJnaW4tYm90dG9tPSIwIiBmaXQtbWFyZ2luLWxlZnQ9IjAiIGZpdC1tYXJnaW4tcmlnaHQ9IjAiIGZpdC1tYXJnaW4tdG9wPSIwIiBncmlkdG9sZXJhbmNlPSIxMCIgZ3VpZGV0b2xlcmFuY2U9IjEwIiBpZD0ibmFtZWR2aWV3MTQ5OSIgaW5rc2NhcGU6Y3VycmVudC1sYXllcj0ic3ZnMTQ5NyIgaW5rc2NhcGU6Y3g9IjQ5Ljc3NTk3NyIgaW5rc2NhcGU6Y3k9IjQ2LjkzNDUyOSIgaW5rc2NhcGU6cGFnZW9wYWNpdHk9IjAiIGlua3NjYXBlOnBhZ2VzaGFkb3c9IjIiIGlua3NjYXBlOndpbmRvdy1oZWlnaHQ9IjEwMTciIGlua3NjYXBlOndpbmRvdy1tYXhpbWl6ZWQ9IjEiIGlua3NjYXBlOndpbmRvdy13aWR0aD0iMTkyMCIgaW5rc2NhcGU6d2luZG93LXg9Ii04IiBpbmtzY2FwZTp3aW5kb3cteT0iLTgiIGlua3NjYXBlOnpvb209IjguMjkwNDk0NCIgb2JqZWN0dG9sZXJhbmNlPSIxMCIgcGFnZWNvbG9yPSIjZmZmZmZmIiBzaG93Z3JpZD0iZmFsc2UiPiYjeGE7CTwvc29kaXBvZGk6bmFtZWR2aWV3PiYjeGE7PGcgaWQ9ImcxNDk1IiB0cmFuc2Zvcm09InRyYW5zbGF0ZSgtNC4wMTU4MTgzLC00LjAxMjcxMTQpIj4mI3hhOwk8dGl0bGUgaWQ9InRpdGxlMTQ3MCI+UGFnZS0xPC90aXRsZT4mI3hhOwk8ZyBpZD0iZ3JvdXAzODEwLTEiIHRyYW5zZm9ybT0idHJhbnNsYXRlKDQuMDE1NzcsLTQuMDE1NzUpIj4mI3hhOwkJPHRpdGxlIGlkPSJ0aXRsZTE0NzIiPkFwcGxlPC90aXRsZT4mI3hhOwkJPGcgaWQ9InNoYXBlMzgxMS0yIiB0cmFuc2Zvcm09InRyYW5zbGF0ZSgyNC4zOTgxLC00LjA2NjM1KSI+JiN4YTsJCQk8dGl0bGUgaWQ9InRpdGxlMTQ3NCI+U2hlZXQuMzgxMTwvdGl0bGU+JiN4YTsJCQk8cmVjdCBpZD0icmVjdDE0NzYiIHg9IjAiIHk9IjY4LjEiIHN0eWxlPSJmaWxsOiMyQzQyNEY7IiB3aWR0aD0iMjUuODciIGhlaWdodD0iMTAuMzQiLz4mI3hhOwkJPC9nPiYjeGE7CQk8ZyBpZD0ic2hhcGUzODEyLTQiIHRyYW5zZm9ybT0idHJhbnNsYXRlKDE1LjI4NTUpIj4mI3hhOwkJCTx0aXRsZSBpZD0idGl0bGUxNDc5Ij5TaGVldC4zODEyPC90aXRsZT4mI3hhOwkJCTxyZWN0IGlkPSJyZWN0MTQ4MSIgeD0iMCIgeT0iNzQuMzciIHN0eWxlPSJmaWxsOiNCQkMyQzY7IiB3aWR0aD0iNDQuMDkiIGhlaWdodD0iNC4wNyIvPiYjeGE7CQk8L2c+JiN4YTsJCTxnIGlkPSJzaGFwZTM4MTMtNiIgdHJhbnNmb3JtPSJ0cmFuc2xhdGUoMCwtMTQuNDAzNykiPiYjeGE7CQkJPHRpdGxlIGlkPSJ0aXRsZTE0ODQiPlNoZWV0LjM4MTM8L3RpdGxlPiYjeGE7CQkJPHBhdGggaWQ9InBhdGgxNDg2IiBpbmtzY2FwZTpjb25uZWN0b3ItY3VydmF0dXJlPSIwIiBzdHlsZT0iZmlsbDojQkJDMkM2OyIgZD0iTTAsNjQuNzJ2MTEuMDdjMCwxLjQ2LDEuMTgsMi42NCwyLjYzLDIuNjQgICAgIGMwLjAxLDAsMC4wMSwwLDAuMDIsMGg2OS4zMmMxLjQ2LDAuMDEsMi42NC0xLjE3LDIuNjUtMi42MmMwLTAuMDEsMC0wLjAxLDAtMC4wMlY2NC43MkgweiIvPiYjeGE7CQk8L2c+JiN4YTsJCTxnIGlkPSJzaGFwZTM4MTQtOCIgdHJhbnNmb3JtPSJ0cmFuc2xhdGUoMC4wNDg5OTIxLC0yOC4xMjE1KSI+JiN4YTsJCQk8dGl0bGUgaWQ9InRpdGxlMTQ4OSI+U2hlZXQuMzgxNDwvdGl0bGU+JiN4YTsJCQk8cGF0aCBpZD0icGF0aDE0OTEiIGlua3NjYXBlOmNvbm5lY3Rvci1jdXJ2YXR1cmU9IjAiIHN0eWxlPSJmaWxsOiM1MjdGOTk7IiBkPSJNNzQuNjIsMzguOGMwLjAxLTEuNDYtMS4xNy0yLjY0LTIuNjItMi42NSAgICAgYy0wLjAxLDAtMC4wMiwwLTAuMDMsMEgyLjY1QzEuMTksMzYuMTQsMC4wMSwzNy4zMiwwLDM4Ljc3YzAsMC4wMSwwLDAuMDIsMCwwLjAzdjM5LjYzaDc0LjYyVjM4Ljh6Ii8+JiN4YTsJCTwvZz4mI3hhOwk8L2c+JiN4YTs8L2c+JiN4YTs8L3N2Zz4=;" vertex="1" parent="1">
          <mxGeometry x="272.5" y="-1037.5" width="75" height="70" as="geometry" />
        </mxCell>
        <mxCell id="0ri98CfVSG6h3WFVPkks-3" value="" style="shape=image;verticalLabelPosition=bottom;labelBackgroundColor=#ffffff;verticalAlign=top;aspect=fixed;imageAspect=0;image=data:image/svg+xml,PHN2ZyB4bWxuczpjYz0iaHR0cDovL2NyZWF0aXZlY29tbW9ucy5vcmcvbnMjIiB4bWxuczpkYz0iaHR0cDovL3B1cmwub3JnL2RjL2VsZW1lbnRzLzEuMS8iIHhtbG5zOmlua3NjYXBlPSJodHRwOi8vd3d3Lmlua3NjYXBlLm9yZy9uYW1lc3BhY2VzL2lua3NjYXBlIiB4bWxuczpyZGY9Imh0dHA6Ly93d3cudzMub3JnLzE5OTkvMDIvMjItcmRmLXN5bnRheC1ucyMiIHhtbG5zOnNvZGlwb2RpPSJodHRwOi8vc29kaXBvZGkuc291cmNlZm9yZ2UubmV0L0RURC9zb2RpcG9kaS0wLmR0ZCIgeG1sbnM6c3ZnPSJodHRwOi8vd3d3LnczLm9yZy8yMDAwL3N2ZyIgeG1sbnM9Imh0dHA6Ly93d3cudzMub3JnLzIwMDAvc3ZnIiB4bWxuczp4bGluaz0iaHR0cDovL3d3dy53My5vcmcvMTk5OS94bGluayIgdmVyc2lvbj0iMS4xIiBpZD0ic3ZnMTA4MzUiIGlua3NjYXBlOnZlcnNpb249IjAuOTIuMyAoMjQwNTU0NiwgMjAxOC0wMy0xMSkiIHNvZGlwb2RpOmRvY25hbWU9ImlwaG9uZS5zdmciIHg9IjBweCIgeT0iMHB4IiB2aWV3Qm94PSIwIDAgMjguMTYgNTEuNDciIHN0eWxlPSJlbmFibGUtYmFja2dyb3VuZDpuZXcgMCAwIDI4LjE2IDUxLjQ3OyIgeG1sOnNwYWNlPSJwcmVzZXJ2ZSI+JiN4YTs8c29kaXBvZGk6bmFtZWR2aWV3IGJvcmRlcmNvbG9yPSIjNjY2NjY2IiBib3JkZXJvcGFjaXR5PSIxIiBmaXQtbWFyZ2luLWJvdHRvbT0iMCIgZml0LW1hcmdpbi1sZWZ0PSIwIiBmaXQtbWFyZ2luLXJpZ2h0PSIwIiBmaXQtbWFyZ2luLXRvcD0iMCIgZ3JpZHRvbGVyYW5jZT0iMTAiIGd1aWRldG9sZXJhbmNlPSIxMCIgaWQ9Im5hbWVkdmlldzEwODM3IiBpbmtzY2FwZTpjdXJyZW50LWxheWVyPSJzdmcxMDgzNSIgaW5rc2NhcGU6Y3g9IjE4Ljc3MzEzNiIgaW5rc2NhcGU6Y3k9IjM0LjMxNTY3MiIgaW5rc2NhcGU6cGFnZW9wYWNpdHk9IjAiIGlua3NjYXBlOnBhZ2VzaGFkb3c9IjIiIGlua3NjYXBlOndpbmRvdy1oZWlnaHQ9IjEwMTciIGlua3NjYXBlOndpbmRvdy1tYXhpbWl6ZWQ9IjEiIGlua3NjYXBlOndpbmRvdy13aWR0aD0iMTkyMCIgaW5rc2NhcGU6d2luZG93LXg9Ii04IiBpbmtzY2FwZTp3aW5kb3cteT0iLTgiIGlua3NjYXBlOnpvb209IjEyLjYzNDQyMyIgb2JqZWN0dG9sZXJhbmNlPSIxMCIgcGFnZWNvbG9yPSIjZmZmZmZmIiBzaG93Z3JpZD0iZmFsc2UiPiYjeGE7CTwvc29kaXBvZGk6bmFtZWR2aWV3PiYjeGE7PGcgaWQ9ImcxMDgzMyI+JiN4YTsJPHRpdGxlIGlkPSJ0aXRsZTEwODA4Ij5QYWdlLTE8L3RpdGxlPiYjeGE7CTxnIGlkPSJncm91cDM0NzYtMSI+JiN4YTsJCTx0aXRsZSBpZD0idGl0bGUxMDgxMCI+aVBob25lPC90aXRsZT4mI3hhOwkJPGcgaWQ9InNoYXBlMzQ3Ny0yIj4mI3hhOwkJCTx0aXRsZSBpZD0idGl0bGUxMDgxMiI+U2hlZXQuMzQ3NzwvdGl0bGU+JiN4YTsJCQk8cGF0aCBpZD0icGF0aDEwODE0IiBpbmtzY2FwZTpjb25uZWN0b3ItY3VydmF0dXJlPSIwIiBzdHlsZT0iZmlsbDojM0Y1NzY1OyIgZD0iTTI2LjIxLDBDMS44NCwwLDEuODQsMCwxLjg0LDAgICAgIEMwLjkyLDAsMCwwLjgsMCwxLjk5YzAsNDQuMzgsMCw0Ny42OCwwLDQ3LjY4YzAsMC45MiwwLjkyLDEuOCwxLjg0LDEuOGMyNC4zNywwLDI0LjM3LDAsMjQuMzcsMGMwLjkyLDAsMS45NS0wLjg4LDEuOTUtMS44ICAgICBjMC00NC40MiwwLTQ3LjY4LDAtNDcuNjhDMjguMTYsMC44LDI3LjEzLDAsMjYuMjEsMHoiLz4mI3hhOwkJPC9nPiYjeGE7CQk8ZyBpZD0ic2hhcGUzNDc4LTQiIHRyYW5zZm9ybT0idHJhbnNsYXRlKDkuMTgyNTEsLTQ3Ljc5MDQpIj4mI3hhOwkJCTx0aXRsZSBpZD0idGl0bGUxMDgxNyI+U2hlZXQuMzQ3ODwvdGl0bGU+JiN4YTsJCQk8cGF0aCBpZD0icGF0aDEwODE5IiBpbmtzY2FwZTpjb25uZWN0b3ItY3VydmF0dXJlPSIwIiBzdHlsZT0iZmlsbDojRkZGRkZGOyIgZD0iTTkuMTgsNTEuMDhjMCwwLjItMC4zOCwwLjM5LTAuOCwwLjM5ICAgICBjLTcuNjUsMC03LjY1LDAtNy42NSwwQzAuNDIsNTEuNDcsMCw1MS4yOCwwLDUxLjA4YzAtMC4xNSwwLjQyLTAuMjMsMC43My0wLjIzYzcuNjUsMCw3LjY1LDAsNy42NSwwICAgICBDOC44LDUwLjg1LDkuMTgsNTAuOTMsOS4xOCw1MS4wOHoiLz4mI3hhOwkJPC9nPiYjeGE7CQk8ZyBpZD0ic2hhcGUzNDc5LTYiIHRyYW5zZm9ybT0idHJhbnNsYXRlKDExLjYzMTIsLTEuMjI1MzkpIj4mI3hhOwkJCTx0aXRsZSBpZD0idGl0bGUxMDgyMiI+U2hlZXQuMzQ3OTwvdGl0bGU+JiN4YTsJCQk8cGF0aCBpZD0icGF0aDEwODI0IiBpbmtzY2FwZTpjb25uZWN0b3ItY3VydmF0dXJlPSIwIiBzdHlsZT0iZmlsbDojRkZGRkZGOyIgZD0iTTAsNDkuMDJjMC0xLjM0LDEuMTEtMi40NiwyLjQ1LTIuNDYgICAgIGMxLjM4LDAsMi40NSwxLjEyLDIuNDUsMi40NmMwLDEuMzctMS4wNywyLjQ1LTIuNDUsMi40NUMxLjExLDUxLjQ3LDAsNTAuMzksMCw0OS4wMnoiLz4mI3hhOwkJPC9nPiYjeGE7CQk8ZyBpZD0ic2hhcGUzNDgwLTgiIHRyYW5zZm9ybT0idHJhbnNsYXRlKDIuNzQ4NTgsLTcuMzUyMzYpIj4mI3hhOwkJCTx0aXRsZSBpZD0idGl0bGUxMDgyNyI+U2hlZXQuMzQ4MDwvdGl0bGU+JiN4YTsJCQk8cGF0aCBpZD0icGF0aDEwODI5IiBpbmtzY2FwZTpjb25uZWN0b3ItY3VydmF0dXJlPSIwIiBzdHlsZT0iZmlsbDojRkZGRkZGOyIgZD0iTTAsMTIuODdoMjIuNjV2MzguNkgwVjEyLjg3ICAgICBDMCwxMi44NywwLDEyLjg3LDAsMTIuODd6Ii8+JiN4YTsJCTwvZz4mI3hhOwk8L2c+JiN4YTs8L2c+JiN4YTs8L3N2Zz4=;" vertex="1" parent="1">
          <mxGeometry x="360" y="-1028" width="28" height="51" as="geometry" />
        </mxCell>
        <mxCell id="0ri98CfVSG6h3WFVPkks-4" value="" style="shape=image;verticalLabelPosition=bottom;labelBackgroundColor=#ffffff;verticalAlign=top;aspect=fixed;imageAspect=0;image=data:image/svg+xml,PHN2ZyB4bWxuczpjYz0iaHR0cDovL2NyZWF0aXZlY29tbW9ucy5vcmcvbnMjIiB4bWxuczpkYz0iaHR0cDovL3B1cmwub3JnL2RjL2VsZW1lbnRzLzEuMS8iIHhtbG5zOmlua3NjYXBlPSJodHRwOi8vd3d3Lmlua3NjYXBlLm9yZy9uYW1lc3BhY2VzL2lua3NjYXBlIiB4bWxuczpyZGY9Imh0dHA6Ly93d3cudzMub3JnLzE5OTkvMDIvMjItcmRmLXN5bnRheC1ucyMiIHhtbG5zOnNvZGlwb2RpPSJodHRwOi8vc29kaXBvZGkuc291cmNlZm9yZ2UubmV0L0RURC9zb2RpcG9kaS0wLmR0ZCIgeG1sbnM6c3ZnPSJodHRwOi8vd3d3LnczLm9yZy8yMDAwL3N2ZyIgeG1sbnM9Imh0dHA6Ly93d3cudzMub3JnLzIwMDAvc3ZnIiB4bWxuczp4bGluaz0iaHR0cDovL3d3dy53My5vcmcvMTk5OS94bGluayIgdmVyc2lvbj0iMS4xIiBpZD0ic3ZnMzY5MzQiIGlua3NjYXBlOnZlcnNpb249IjAuOTIuMyAoMjQwNTU0NiwgMjAxOC0wMy0xMSkiIHNvZGlwb2RpOmRvY25hbWU9InRhYmxldF80LnN2ZyIgeD0iMHB4IiB5PSIwcHgiIHZpZXdCb3g9IjAgMCAzOC41NyA1My45MiIgc3R5bGU9ImVuYWJsZS1iYWNrZ3JvdW5kOm5ldyAwIDAgMzguNTcgNTMuOTI7IiB4bWw6c3BhY2U9InByZXNlcnZlIj4mI3hhOzxzb2RpcG9kaTpuYW1lZHZpZXcgYm9yZGVyY29sb3I9IiM2NjY2NjYiIGJvcmRlcm9wYWNpdHk9IjEiIGZpdC1tYXJnaW4tYm90dG9tPSIwIiBmaXQtbWFyZ2luLWxlZnQ9IjAiIGZpdC1tYXJnaW4tcmlnaHQ9IjAiIGZpdC1tYXJnaW4tdG9wPSIwIiBncmlkdG9sZXJhbmNlPSIxMCIgZ3VpZGV0b2xlcmFuY2U9IjEwIiBpZD0ibmFtZWR2aWV3MzY5MzYiIGlua3NjYXBlOmN1cnJlbnQtbGF5ZXI9InN2ZzM2OTM0IiBpbmtzY2FwZTpjeD0iMjUuNzExMDA5IiBpbmtzY2FwZTpjeT0iMzUuOTQ4NDgxIiBpbmtzY2FwZTpwYWdlb3BhY2l0eT0iMCIgaW5rc2NhcGU6cGFnZXNoYWRvdz0iMiIgaW5rc2NhcGU6d2luZG93LWhlaWdodD0iMTAxNyIgaW5rc2NhcGU6d2luZG93LW1heGltaXplZD0iMSIgaW5rc2NhcGU6d2luZG93LXdpZHRoPSIxOTIwIiBpbmtzY2FwZTp3aW5kb3cteD0iLTgiIGlua3NjYXBlOndpbmRvdy15PSItOCIgaW5rc2NhcGU6em9vbT0iMTIuMDYwMTI2IiBvYmplY3R0b2xlcmFuY2U9IjEwIiBwYWdlY29sb3I9IiNmZmZmZmYiIHNob3dncmlkPSJmYWxzZSI+JiN4YTsJPC9zb2RpcG9kaTpuYW1lZHZpZXc+JiN4YTs8ZyBpZD0iZzM2OTMyIj4mI3hhOwk8dGl0bGUgaWQ9InRpdGxlMzY5MTIiPlBhZ2UtMTwvdGl0bGU+JiN4YTsJPGcgaWQ9Imdyb3VwMzI5NS0xIj4mI3hhOwkJPHRpdGxlIGlkPSJ0aXRsZTM2OTE0Ij5UYWJsZXQgIzQ8L3RpdGxlPiYjeGE7CQk8ZyBpZD0ic2hhcGUzMjk2LTIiPiYjeGE7CQkJPHRpdGxlIGlkPSJ0aXRsZTM2OTE2Ij5TaGVldC4zMjk2PC90aXRsZT4mI3hhOwkJCTxwYXRoIGlkPSJwYXRoMzY5MTgiIGlua3NjYXBlOmNvbm5lY3Rvci1jdXJ2YXR1cmU9IjAiIHN0eWxlPSJmaWxsOiMzRjU3NjU7IiBkPSJNMzYuMTIsMEMyLjY0LDAsMi42NCwwLDIuNjQsMCAgICAgQzEuMzQsMCwwLDAuODgsMCwyLjIyYzAsNTAuMjQsMCw0OS42NywwLDQ5LjY3YzAsMS4wMywxLjM0LDIuMDMsMi42NCwyLjAzYzMzLjQ4LDAsMzMuNDgsMCwzMy40OCwwYzEuMywwLDIuNDUtMSwyLjQ1LTIuMDMgICAgIGMwLTUwLjI4LDAtNDkuNjcsMC00OS42N0MzOC41NywwLjg4LDM3LjQyLDAsMzYuMTIsMHoiLz4mI3hhOwkJPC9nPiYjeGE7CQk8ZyBpZD0ic2hhcGUzMjk3LTQiIHRyYW5zZm9ybT0idHJhbnNsYXRlKDMuNjczLC0zLjY3NjE4KSI+JiN4YTsJCQk8dGl0bGUgaWQ9InRpdGxlMzY5MjEiPlNoZWV0LjMyOTc8L3RpdGxlPiYjeGE7CQkJPHBhdGggaWQ9InBhdGgzNjkyMyIgaW5rc2NhcGU6Y29ubmVjdG9yLWN1cnZhdHVyZT0iMCIgc3R5bGU9ImZpbGw6I0ZGRkZGRjsiIGQ9Ik0wLDYuNzRoMzEuMjJ2NDcuMThIMFY2Ljc0eiIvPiYjeGE7CQk8L2c+JiN4YTsJCTxnIGlkPSJzaGFwZTMyOTgtNiIgdHJhbnNmb3JtPSJ0cmFuc2xhdGUoMTIuMjQzMywtMS44MzgwOSkiPiYjeGE7CQkJPHRpdGxlIGlkPSJ0aXRsZTM2OTI2Ij5TaGVldC4zMjk4PC90aXRsZT4mI3hhOwkJCTxwYXRoIGlkPSJwYXRoMzY5MjgiIGlua3NjYXBlOmNvbm5lY3Rvci1jdXJ2YXR1cmU9IjAiIHN0eWxlPSJmaWxsOiNGRkZGRkY7IiBkPSJNMTMuODEsNTMuOTJjLTEzLjM1LDAtMTMuMzUsMC0xMy4zNSwwICAgICBDMC4xNSw1My45MiwwLDUzLjgsMCw1My42OWwwLDBjMC0wLjIzLDAuMTUtMC4zOSwwLjQ2LTAuMzljMTMuMzUsMCwxMy4zNSwwLDEzLjM1LDBjMC4xNiwwLDAuMjcsMC4xNiwwLjI3LDAuMzlsMCwwICAgICBDMTQuMDgsNTMuOCwxMy45Nyw1My45MiwxMy44MSw1My45MnoiLz4mI3hhOwkJPC9nPiYjeGE7CTwvZz4mI3hhOzwvZz4mI3hhOzwvc3ZnPg==;direction=south;" vertex="1" parent="1">
          <mxGeometry x="186.76999999999998" y="-1027.5" width="69.23" height="50" as="geometry" />
        </mxCell>
        <mxCell id="0ri98CfVSG6h3WFVPkks-5" value="FrontEnd" style="whiteSpace=wrap;html=1;dashed=1;strokeColor=none;strokeWidth=2;fillColor=#3399FF;fontFamily=Helvetica;fontSize=18;fontColor=#FFFFFF;fontStyle=1" vertex="1" parent="1">
          <mxGeometry x="150" y="-1110" width="320" height="60" as="geometry" />
        </mxCell>
        <mxCell id="0ri98CfVSG6h3WFVPkks-44" style="edgeStyle=orthogonalEdgeStyle;rounded=0;orthogonalLoop=1;jettySize=auto;html=1;entryX=0;entryY=0.5;entryDx=0;entryDy=0;" edge="1" parent="1" source="0ri98CfVSG6h3WFVPkks-6" target="0ri98CfVSG6h3WFVPkks-40">
          <mxGeometry relative="1" as="geometry" />
        </mxCell>
        <mxCell id="0ri98CfVSG6h3WFVPkks-6" value="v" style="rounded=1;whiteSpace=wrap;html=1;dashed=1;strokeColor=none;strokeWidth=2;fillColor=#E6E6E6;fontFamily=Verdana;fontSize=12;fontColor=#00BEF2" vertex="1" parent="1">
          <mxGeometry x="50" y="-798" width="210" height="174" as="geometry" />
        </mxCell>
        <mxCell id="0ri98CfVSG6h3WFVPkks-16" style="edgeStyle=orthogonalEdgeStyle;rounded=0;orthogonalLoop=1;jettySize=auto;html=1;entryX=0.5;entryY=1;entryDx=0;entryDy=0;" edge="1" parent="1" source="0ri98CfVSG6h3WFVPkks-7" target="0ri98CfVSG6h3WFVPkks-1">
          <mxGeometry relative="1" as="geometry" />
        </mxCell>
        <mxCell id="0ri98CfVSG6h3WFVPkks-7" value="Backend" style="whiteSpace=wrap;html=1;dashed=1;strokeColor=none;strokeWidth=2;fillColor=#3399FF;fontFamily=Helvetica;fontSize=18;fontColor=#FFFFFF;fontStyle=1" vertex="1" parent="1">
          <mxGeometry x="51" y="-820" width="210" height="60" as="geometry" />
        </mxCell>
        <mxCell id="0ri98CfVSG6h3WFVPkks-12" value="" style="shape=image;verticalLabelPosition=bottom;labelBackgroundColor=#ffffff;verticalAlign=top;aspect=fixed;imageAspect=0;image=data:image/svg+xml,PHN2ZyB4bWxuczpjYz0iaHR0cDovL2NyZWF0aXZlY29tbW9ucy5vcmcvbnMjIiB4bWxuczpkYz0iaHR0cDovL3B1cmwub3JnL2RjL2VsZW1lbnRzLzEuMS8iIHhtbG5zOmlua3NjYXBlPSJodHRwOi8vd3d3Lmlua3NjYXBlLm9yZy9uYW1lc3BhY2VzL2lua3NjYXBlIiB4bWxuczpyZGY9Imh0dHA6Ly93d3cudzMub3JnLzE5OTkvMDIvMjItcmRmLXN5bnRheC1ucyMiIHhtbG5zOnNvZGlwb2RpPSJodHRwOi8vc29kaXBvZGkuc291cmNlZm9yZ2UubmV0L0RURC9zb2RpcG9kaS0wLmR0ZCIgeG1sbnM6c3ZnPSJodHRwOi8vd3d3LnczLm9yZy8yMDAwL3N2ZyIgeG1sbnM9Imh0dHA6Ly93d3cudzMub3JnLzIwMDAvc3ZnIiB4bWxuczp4bGluaz0iaHR0cDovL3d3dy53My5vcmcvMTk5OS94bGluayIgdmVyc2lvbj0iMS4xIiBpZD0ic3ZnMTk4MDc4IiBpbmtzY2FwZTp2ZXJzaW9uPSIwLjkyLjMgKDI0MDU1NDYsIDIwMTgtMDMtMTEpIiBzb2RpcG9kaTpkb2NuYW1lPSJyZXN0LnN2ZyIgeD0iMHB4IiB5PSIwcHgiIHZpZXdCb3g9IjAgMCA1Ny42NSA1Ny42NSIgc3R5bGU9ImVuYWJsZS1iYWNrZ3JvdW5kOm5ldyAwIDAgNTcuNjUgNTcuNjU7IiB4bWw6c3BhY2U9InByZXNlcnZlIj4mI3hhOzxzb2RpcG9kaTpuYW1lZHZpZXcgYm9yZGVyY29sb3I9IiM2NjY2NjYiIGJvcmRlcm9wYWNpdHk9IjEiIGZpdC1tYXJnaW4tYm90dG9tPSIwIiBmaXQtbWFyZ2luLWxlZnQ9IjAiIGZpdC1tYXJnaW4tcmlnaHQ9IjAiIGZpdC1tYXJnaW4tdG9wPSIwIiBncmlkdG9sZXJhbmNlPSIxMCIgZ3VpZGV0b2xlcmFuY2U9IjEwIiBpZD0ibmFtZWR2aWV3MTk4MDgwIiBpbmtzY2FwZTpjdXJyZW50LWxheWVyPSJzdmcxOTgwNzgiIGlua3NjYXBlOmN4PSIzOC40MzAyMyIgaW5rc2NhcGU6Y3k9IjM4LjQzNjQ5NiIgaW5rc2NhcGU6cGFnZW9wYWNpdHk9IjAiIGlua3NjYXBlOnBhZ2VzaGFkb3c9IjIiIGlua3NjYXBlOndpbmRvdy1oZWlnaHQ9IjEwMTciIGlua3NjYXBlOndpbmRvdy1tYXhpbWl6ZWQ9IjEiIGlua3NjYXBlOndpbmRvdy13aWR0aD0iMTkyMCIgaW5rc2NhcGU6d2luZG93LXg9Ii04IiBpbmtzY2FwZTp3aW5kb3cteT0iLTgiIGlua3NjYXBlOnpvb209IjguOTE0MjA2OSIgb2JqZWN0dG9sZXJhbmNlPSIxMCIgcGFnZWNvbG9yPSIjZmZmZmZmIiBzaG93Z3JpZD0iZmFsc2UiPiYjeGE7CTwvc29kaXBvZGk6bmFtZWR2aWV3PiYjeGE7PGcgaWQ9ImcxOTgwNzYiIHRyYW5zZm9ybT0idHJhbnNsYXRlKC03LjY1LC03LjY1MDAwMTEpIj4mI3hhOwk8dGl0bGUgaWQ9InRpdGxlMTk4MDM4Ij5QYWdlLTE8L3RpdGxlPiYjeGE7CTxnIGlkPSJncm91cDEwNjktMSIgdHJhbnNmb3JtPSJ0cmFuc2xhdGUoNy42NSwtNy42NSkiPiYjeGE7CQk8dGl0bGUgaWQ9InRpdGxlMTk4MDQwIj5SRVNUPC90aXRsZT4mI3hhOwkJPGcgaWQ9InNoYXBlMTA3MC0yIj4mI3hhOwkJCTx0aXRsZSBpZD0idGl0bGUxOTgwNDIiPlNoZWV0LjEwNzA8L3RpdGxlPiYjeGE7CQkJPGNpcmNsZSBpZD0iZWxsaXBzZTE5ODA0NCIgc3R5bGU9ImZpbGw6IzEwN0MxMDsiIGN4PSIyOC44MiIgY3k9IjQ0LjEyIiByPSIyOC44MiIvPiYjeGE7CQk8L2c+JiN4YTsJCTxnIGlkPSJzaGFwZTEwNzEtNCI+JiN4YTsJCQk8dGl0bGUgaWQ9InRpdGxlMTk4MDQ3Ij5TaGVldC4xMDcxPC90aXRsZT4mI3hhOwkJCTxwYXRoIGlkPSJwYXRoMTk4MDQ5IiBpbmtzY2FwZTpjb25uZWN0b3ItY3VydmF0dXJlPSIwIiBzdHlsZT0iZmlsbDojMDA0QjFDOyIgZD0iTTguODYsMjMuMzdDMy4zOSwyOC42MywwLDM1Ljk4LDAsNDQuMTIgICAgIGMwLDE1LjkzLDEyLjksMjguODMsMjguODIsMjguODNjOC4xNSwwLDE1LjQ5LTMuMzksMjAuNzUtOC44N0w4Ljg2LDIzLjM3eiIvPiYjeGE7CQk8L2c+JiN4YTsJCTxnIGlkPSJncm91cDEwNzItNiIgdHJhbnNmb3JtPSJ0cmFuc2xhdGUoNi42NzI0NCwtMjAuOTk4NykiPiYjeGE7CQkJPHRpdGxlIGlkPSJ0aXRsZTE5ODA1MiI+U2hlZXQuMTA3MjwvdGl0bGU+JiN4YTsJCQk8ZyBpZD0ic2hhcGUxMDczLTciIHRyYW5zZm9ybT0idHJhbnNsYXRlKDAsLTAuMjU1ODAxKSI+JiN4YTsJCQkJPHRpdGxlIGlkPSJ0aXRsZTE5ODA1NCI+U2hlZXQuMTA3MzwvdGl0bGU+JiN4YTsJCQkJPHBhdGggaWQ9InBhdGgxOTgwNTYiIGlua3NjYXBlOmNvbm5lY3Rvci1jdXJ2YXR1cmU9IjAiIHN0eWxlPSJmaWxsOiNGRkZGRkY7IiBkPSJNMTAuODUsNzIuOTVIOC43NEw2LjIxLDY4LjcgICAgICBjLTAuMjQtMC4zOS0wLjQ2LTAuNzMtMC42OC0xLjAxYy0wLjIyLTAuMjctMC40NC0wLjUtMC42Ny0wLjY4Yy0wLjIzLTAuMTctMC40Ny0wLjMtMC43NC0wLjM4Yy0wLjI2LTAuMDgtMC41Ni0wLjEyLTAuODktMC4xMiAgICAgIEgxLjc3djYuNDRIMFY1Ny44MWg0LjUyYzAuNjYsMCwxLjI3LDAuMDgsMS44MywwLjI1YzAuNTYsMC4xNiwxLjA0LDAuNDEsMS40NiwwLjc1YzAuNDEsMC4zNCwwLjczLDAuNzYsMC45NiwxLjI2ICAgICAgYzAuMjMsMC41MSwwLjM1LDEuMDksMC4zNSwxLjc3YzAsMC41My0wLjA4LDEuMDEtMC4yNCwxLjQ1Yy0wLjE2LDAuNDQtMC4zOCwwLjgzLTAuNjcsMS4xOGMtMC4zLDAuMzQtMC42NSwwLjY0LTEuMDYsMC44OCAgICAgIHMtMC44NywwLjQzLTEuMzksMC41NnYwLjA1YzAuMjYsMC4xMSwwLjQ4LDAuMjQsMC42NiwwLjM4YzAuMTksMC4xNSwwLjM3LDAuMzIsMC41NCwwLjUxYzAuMTYsMC4yLDAuMzMsMC40MiwwLjUsMC42NyAgICAgIGMwLjE2LDAuMjUsMC4zNSwwLjU0LDAuNTUsMC44OEwxMC44NSw3Mi45NXogTTEuNzcsNTkuNDF2NS40OWgyLjQxYzAuNDQsMCwwLjg1LTAuMDcsMS4yMy0wLjJzMC43LTAuMzIsMC45OC0wLjU3ICAgICAgYzAuMjctMC4yNSwwLjQ5LTAuNTYsMC42NC0wLjkyYzAuMTYtMC4zNiwwLjIzLTAuNzcsMC4yMy0xLjIyYzAtMC44MS0wLjI2LTEuNDQtMC43OC0xLjljLTAuNTMtMC40NS0xLjI5LTAuNjgtMi4yOC0wLjY4SDEuNzd6ICAgICAgIi8+JiN4YTsJCQk8L2c+JiN4YTsJCQk8ZyBpZD0ic2hhcGUxMDc0LTkiIHRyYW5zZm9ybT0idHJhbnNsYXRlKDEyLjkzMDYsLTAuMjU1ODAxKSI+JiN4YTsJCQkJPHRpdGxlIGlkPSJ0aXRsZTE5ODA1OSI+U2hlZXQuMTA3NDwvdGl0bGU+JiN4YTsJCQkJPHBhdGggaWQ9InBhdGgxOTgwNjEiIGlua3NjYXBlOmNvbm5lY3Rvci1jdXJ2YXR1cmU9IjAiIHN0eWxlPSJmaWxsOiNGRkZGRkY7IiBkPSJNOC4wMiw3Mi45NUgwVjU3LjgxaDcuNjh2MS42SDEuNzd2NS4wNGg1LjQ3ICAgICAgdjEuNTlIMS43N3Y1LjNoNi4yNVY3Mi45NXoiLz4mI3hhOwkJCTwvZz4mI3hhOwkJCTxnIGlkPSJzaGFwZTEwNzUtMTEiIHRyYW5zZm9ybT0idHJhbnNsYXRlKDIzLjE1ODMpIj4mI3hhOwkJCQk8dGl0bGUgaWQ9InRpdGxlMTk4MDY0Ij5TaGVldC4xMDc1PC90aXRsZT4mI3hhOwkJCQk8cGF0aCBpZD0icGF0aDE5ODA2NiIgaW5rc2NhcGU6Y29ubmVjdG9yLWN1cnZhdHVyZT0iMCIgc3R5bGU9ImZpbGw6I0ZGRkZGRjsiIGQ9Ik0wLDcyLjA4di0yLjA5YzAuMjQsMC4yMSwwLjUzLDAuNCwwLjg2LDAuNTcgICAgICBzMC42OSwwLjMxLDEuMDYsMC40M2MwLjM3LDAuMTEsMC43NCwwLjIsMS4xMSwwLjI2YzAuMzcsMC4wNywwLjcyLDAuMSwxLjAzLDAuMWMxLjA5LDAsMS45MS0wLjIsMi40NS0wLjYxICAgICAgYzAuNTQtMC40LDAuODEtMC45OCwwLjgxLTEuNzRjMC0wLjQxLTAuMDktMC43Ny0wLjI3LTEuMDdjLTAuMTgtMC4zLTAuNDMtMC41OC0wLjc1LTAuODNjLTAuMzItMC4yNS0wLjY5LTAuNDktMS4xMi0wLjcyICAgICAgYy0wLjQ0LTAuMjItMC45LTAuNDctMS40LTAuNzJjLTAuNTMtMC4yNy0xLjAyLTAuNTQtMS40OC0wLjgxYy0wLjQ2LTAuMjgtMC44NS0wLjU4LTEuMTktMC45MXMtMC42LTAuNzEtMC44LTEuMTIgICAgICBjLTAuMTktMC40Mi0wLjI5LTAuOTEtMC4yOS0xLjQ4YzAtMC42OSwwLjE1LTEuMjksMC40NS0xLjhjMC4zMS0wLjUxLDAuNzEtMC45MywxLjItMS4yNmMwLjQ5LTAuMzMsMS4wNS0wLjU3LDEuNjgtMC43NCAgICAgIGMwLjYzLTAuMTYsMS4yNy0wLjI0LDEuOTMtMC4yNGMxLjQ5LDAsMi41OCwwLjE4LDMuMjYsMC41NHYyYy0wLjktMC42Mi0yLjA0LTAuOTMtMy40NC0wLjkzYy0wLjM5LDAtMC43OCwwLjA0LTEuMTYsMC4xMiAgICAgIGMtMC4zOSwwLjA4LTAuNzQsMC4yMS0xLjA0LDAuMzljLTAuMywwLjE5LTAuNTUsMC40Mi0wLjc0LDAuNzFzLTAuMjgsMC42NC0wLjI4LDEuMDZjMCwwLjM4LDAuMDcsMC43MiwwLjIxLDEgICAgICBjMC4xNSwwLjI4LDAuMzYsMC41NCwwLjY0LDAuNzdzMC42MywwLjQ2LDEuMDMsMC42N2MwLjQxLDAuMjIsMC44NywwLjQ2LDEuNCwwLjcyQzUuNyw2NC42Miw2LjIyLDY0LjksNi43LDY1LjIgICAgICBjMC40OSwwLjI5LDAuOTEsMC42MiwxLjI4LDAuOThjMC4zNiwwLjM2LDAuNjUsMC43NiwwLjg3LDEuMTljMC4yMSwwLjQ0LDAuMzIsMC45NCwwLjMyLDEuNWMwLDAuNzUtMC4xNSwxLjM4LTAuNDQsMS44OSAgICAgIGMtMC4yOSwwLjUyLTAuNjgsMC45NC0xLjE4LDEuMjdjLTAuNSwwLjMyLTEuMDcsMC41NS0xLjcxLDAuN2MtMC42NSwwLjE0LTEuMzQsMC4yMi0yLjA1LDAuMjJjLTAuMjQsMC0wLjU0LTAuMDItMC44OS0wLjA2ICAgICAgcy0wLjcxLTAuMS0xLjA4LTAuMTdjLTAuMzYtMC4wOC0wLjcxLTAuMTctMS4wNC0wLjI4QzAuNDYsNzIuMzMsMC4yLDcyLjIxLDAsNzIuMDh6Ii8+JiN4YTsJCQk8L2c+JiN4YTsJCQk8ZyBpZD0ic2hhcGUxMDc2LTEzIiB0cmFuc2Zvcm09InRyYW5zbGF0ZSgzMy43OTgxLC0wLjI1NTgwMSkiPiYjeGE7CQkJCTx0aXRsZSBpZD0idGl0bGUxOTgwNjkiPlNoZWV0LjEwNzY8L3RpdGxlPiYjeGE7CQkJCTxwYXRoIGlkPSJwYXRoMTk4MDcxIiBpbmtzY2FwZTpjb25uZWN0b3ItY3VydmF0dXJlPSIwIiBzdHlsZT0iZmlsbDojRkZGRkZGOyIgZD0iTTEwLjUsNTkuNDFINi4xM3YxMy41NEg0LjM2VjU5LjQxSDB2LTEuNiAgICAgIGgxMC41VjU5LjQxeiIvPiYjeGE7CQkJPC9nPiYjeGE7CQk8L2c+JiN4YTsJPC9nPiYjeGE7PC9nPiYjeGE7PC9zdmc+;" vertex="1" parent="1">
          <mxGeometry x="86" y="-740" width="58" height="58" as="geometry" />
        </mxCell>
        <mxCell id="0ri98CfVSG6h3WFVPkks-14" value="" style="shape=image;verticalLabelPosition=bottom;labelBackgroundColor=#ffffff;verticalAlign=top;aspect=fixed;imageAspect=0;image=data:image/svg+xml,PHN2ZyB4bWxuczpjYz0iaHR0cDovL2NyZWF0aXZlY29tbW9ucy5vcmcvbnMjIiB4bWxuczpkYz0iaHR0cDovL3B1cmwub3JnL2RjL2VsZW1lbnRzLzEuMS8iIHhtbG5zOmlua3NjYXBlPSJodHRwOi8vd3d3Lmlua3NjYXBlLm9yZy9uYW1lc3BhY2VzL2lua3NjYXBlIiB4bWxuczpyZGY9Imh0dHA6Ly93d3cudzMub3JnLzE5OTkvMDIvMjItcmRmLXN5bnRheC1ucyMiIHhtbG5zOnNvZGlwb2RpPSJodHRwOi8vc29kaXBvZGkuc291cmNlZm9yZ2UubmV0L0RURC9zb2RpcG9kaS0wLmR0ZCIgeG1sbnM6c3ZnPSJodHRwOi8vd3d3LnczLm9yZy8yMDAwL3N2ZyIgeG1sbnM9Imh0dHA6Ly93d3cudzMub3JnLzIwMDAvc3ZnIiB4bWxuczp4bGluaz0iaHR0cDovL3d3dy53My5vcmcvMTk5OS94bGluayIgdmVyc2lvbj0iMS4xIiBpZD0ic3ZnMTUzODg3IiBpbmtzY2FwZTp2ZXJzaW9uPSIwLjkyLjMgKDI0MDU1NDYsIDIwMTgtMDMtMTEpIiBzb2RpcG9kaTpkb2NuYW1lPSJhcGlfYXBwc18xLnN2ZyIgeD0iMHB4IiB5PSIwcHgiIHZpZXdCb3g9IjAgMCA0OS41IDU1LjA2IiBzdHlsZT0iZW5hYmxlLWJhY2tncm91bmQ6bmV3IDAgMCA0OS41IDU1LjA2OyIgeG1sOnNwYWNlPSJwcmVzZXJ2ZSI+JiN4YTs8c29kaXBvZGk6bmFtZWR2aWV3IGJvcmRlcmNvbG9yPSIjNjY2NjY2IiBib3JkZXJvcGFjaXR5PSIxIiBmaXQtbWFyZ2luLWJvdHRvbT0iMCIgZml0LW1hcmdpbi1sZWZ0PSIwIiBmaXQtbWFyZ2luLXJpZ2h0PSIwIiBmaXQtbWFyZ2luLXRvcD0iMCIgZ3JpZHRvbGVyYW5jZT0iMTAiIGd1aWRldG9sZXJhbmNlPSIxMCIgaWQ9Im5hbWVkdmlldzE1Mzg4OSIgaW5rc2NhcGU6Y3VycmVudC1sYXllcj0ic3ZnMTUzODg3IiBpbmtzY2FwZTpjeD0iMzQuOTk2NjkxIiBpbmtzY2FwZTpjeT0iLTEzLjcxMjQ5MiIgaW5rc2NhcGU6cGFnZW9wYWNpdHk9IjAiIGlua3NjYXBlOnBhZ2VzaGFkb3c9IjIiIGlua3NjYXBlOndpbmRvdy1oZWlnaHQ9IjEwMTciIGlua3NjYXBlOndpbmRvdy1tYXhpbWl6ZWQ9IjEiIGlua3NjYXBlOndpbmRvdy13aWR0aD0iMTkyMCIgaW5rc2NhcGU6d2luZG93LXg9Ii04IiBpbmtzY2FwZTp3aW5kb3cteT0iLTgiIGlua3NjYXBlOnpvb209IjQuMDEyNTUzIiBvYmplY3R0b2xlcmFuY2U9IjEwIiBwYWdlY29sb3I9IiNmZmZmZmYiIHNob3dncmlkPSJmYWxzZSI+JiN4YTsJPC9zb2RpcG9kaTpuYW1lZHZpZXc+JiN4YTs8ZyBpZD0iZzE1Mzg4NSIgdHJhbnNmb3JtPSJ0cmFuc2xhdGUoLTQyLjA0MTc4MSwtMy40NzQ2KSI+JiN4YTsJPHRpdGxlIGlkPSJ0aXRsZTE1Mzg3OCI+UGFnZS0xPC90aXRsZT4mI3hhOwk8ZyBpZD0ic2hhcGUzNzA2LTEiIHRyYW5zZm9ybT0idHJhbnNsYXRlKDQyLjA0MTUsLTU2LjA1NTQpIj4mI3hhOwkJPHRpdGxlIGlkPSJ0aXRsZTE1Mzg4MCI+QVBJIEFwcHMgIzE8L3RpdGxlPiYjeGE7CQk8cGF0aCBpZD0icGF0aDE1Mzg4MiIgaW5rc2NhcGU6Y29ubmVjdG9yLWN1cnZhdHVyZT0iMCIgc3R5bGU9ImZpbGw6IzNGNTc2NTsiIGQ9Ik00Ny4xMiw1OS41M0gyLjM4QzEuMDYsNTkuNTMsMCw2MC41OSwwLDYxLjkxICAgIHYzNi4xNGMwLDEuMzIsMS4wNiwyLjM4LDIuMzgsMi4zOEgxMy45YzAuOTIsMi45MSwzLjcsNC44OSw3LjAxLDQuODljMy45NywwLDcuMjgtMy4zLDcuMjgtNy4yN2MwLTMuOTgtMy4zMS03LjI4LTcuMjgtNy4yOCAgICBjLTMuMzEsMC02LjA5LDEuOTgtNy4wMSw0Ljg5SDQuNzZWNjkuODVoMzkuOTh2MjUuODFoLTcuNTVjLTEuMDYtNy45NC04LjA3LTE0LjE2LTE2LjI4LTE0LjE2Yy0yLjc4LDAtNS41NiwwLjgtNy45NCwxLjk5ICAgIGwyLjI1LDQuMjNjMS41OS0wLjkyLDMuNzEtMS40NSw1LjU2LTEuNDVjNi4zNSwwLDExLjc4LDUuMjksMTEuNzgsMTEuNzhjMCw2LjQ4LTUuMywxMS43Ny0xMS43OCwxMS43NyAgICBjLTEuOTksMC0zLjg0LTAuNTItNS41Ni0xLjQ1bC0yLjI1LDQuMjNjMi4zOCwxLjMzLDUuMTYsMS45OSw3Ljk0LDEuOTljOC4yMSwwLDE1LjIyLTYuMjIsMTYuMjgtMTQuMTZoOS45MyAgICBjMS4zMiwwLDIuMzgtMS4wNiwyLjM4LTIuMzhWNjEuOTFDNDkuNSw2MC43Miw0OC40NCw1OS41Myw0Ny4xMiw1OS41M3oiLz4mI3hhOwk8L2c+JiN4YTs8L2c+JiN4YTs8L3N2Zz4=;" vertex="1" parent="1">
          <mxGeometry x="166" y="-737" width="50" height="55" as="geometry" />
        </mxCell>
        <mxCell id="0ri98CfVSG6h3WFVPkks-21" style="edgeStyle=orthogonalEdgeStyle;rounded=0;orthogonalLoop=1;jettySize=auto;html=1;entryX=1;entryY=0.5;entryDx=0;entryDy=0;" edge="1" parent="1" source="0ri98CfVSG6h3WFVPkks-19" target="0ri98CfVSG6h3WFVPkks-6">
          <mxGeometry relative="1" as="geometry" />
        </mxCell>
        <mxCell id="0ri98CfVSG6h3WFVPkks-48" style="edgeStyle=orthogonalEdgeStyle;rounded=0;orthogonalLoop=1;jettySize=auto;html=1;entryX=1.011;entryY=0.58;entryDx=0;entryDy=0;entryPerimeter=0;" edge="1" parent="1" source="0ri98CfVSG6h3WFVPkks-19" target="0ri98CfVSG6h3WFVPkks-40">
          <mxGeometry relative="1" as="geometry">
            <Array as="points">
              <mxPoint x="520" y="-389" />
            </Array>
          </mxGeometry>
        </mxCell>
        <mxCell id="0ri98CfVSG6h3WFVPkks-19" value="v" style="rounded=1;whiteSpace=wrap;html=1;dashed=1;strokeColor=none;strokeWidth=2;fillColor=#E6E6E6;fontFamily=Verdana;fontSize=12;fontColor=#00BEF2" vertex="1" parent="1">
          <mxGeometry x="400" y="-830" width="210" height="174" as="geometry" />
        </mxCell>
        <mxCell id="0ri98CfVSG6h3WFVPkks-17" value="Webhooks" style="whiteSpace=wrap;html=1;dashed=1;strokeColor=none;strokeWidth=2;fillColor=#3399FF;fontFamily=Helvetica;fontSize=18;fontColor=#FFFFFF;fontStyle=1" vertex="1" parent="1">
          <mxGeometry x="400" y="-840" width="210" height="60" as="geometry" />
        </mxCell>
        <mxCell id="0ri98CfVSG6h3WFVPkks-20" value="" style="shape=image;verticalLabelPosition=bottom;labelBackgroundColor=#ffffff;verticalAlign=top;aspect=fixed;imageAspect=0;image=data:image/svg+xml,PHN2ZyB4bWxuczpjYz0iaHR0cDovL2NyZWF0aXZlY29tbW9ucy5vcmcvbnMjIiB4bWxuczpkYz0iaHR0cDovL3B1cmwub3JnL2RjL2VsZW1lbnRzLzEuMS8iIHhtbG5zOmlua3NjYXBlPSJodHRwOi8vd3d3Lmlua3NjYXBlLm9yZy9uYW1lc3BhY2VzL2lua3NjYXBlIiB4bWxuczpyZGY9Imh0dHA6Ly93d3cudzMub3JnLzE5OTkvMDIvMjItcmRmLXN5bnRheC1ucyMiIHhtbG5zOnNvZGlwb2RpPSJodHRwOi8vc29kaXBvZGkuc291cmNlZm9yZ2UubmV0L0RURC9zb2RpcG9kaS0wLmR0ZCIgeG1sbnM6c3ZnPSJodHRwOi8vd3d3LnczLm9yZy8yMDAwL3N2ZyIgeG1sbnM9Imh0dHA6Ly93d3cudzMub3JnLzIwMDAvc3ZnIiB4bWxuczp4bGluaz0iaHR0cDovL3d3dy53My5vcmcvMTk5OS94bGluayIgdmVyc2lvbj0iMS4xIiBpZD0ic3ZnMTI3NzciIGlua3NjYXBlOnZlcnNpb249IjAuOTIuMyAoMjQwNTU0NiwgMjAxOC0wMy0xMSkiIHNvZGlwb2RpOmRvY25hbWU9IndlYl9ob29rLnN2ZyIgeD0iMHB4IiB5PSIwcHgiIHZpZXdCb3g9IjAgMCA2MC40MiA2MC4yMiIgc3R5bGU9ImVuYWJsZS1iYWNrZ3JvdW5kOm5ldyAwIDAgNjAuNDIgNjAuMjI7IiB4bWw6c3BhY2U9InByZXNlcnZlIj4mI3hhOzxzb2RpcG9kaTpuYW1lZHZpZXcgYm9yZGVyY29sb3I9IiM2NjY2NjYiIGJvcmRlcm9wYWNpdHk9IjEiIGZpdC1tYXJnaW4tYm90dG9tPSIwIiBmaXQtbWFyZ2luLWxlZnQ9IjAiIGZpdC1tYXJnaW4tcmlnaHQ9IjAiIGZpdC1tYXJnaW4tdG9wPSIwIiBncmlkdG9sZXJhbmNlPSIxMCIgZ3VpZGV0b2xlcmFuY2U9IjEwIiBpZD0ibmFtZWR2aWV3MTI3NzkiIGlua3NjYXBlOmN1cnJlbnQtbGF5ZXI9InN2ZzEyNzc3IiBpbmtzY2FwZTpjeD0iNDAuMjgyODk3IiBpbmtzY2FwZTpjeT0iNDAuMTQ1MDMzIiBpbmtzY2FwZTpwYWdlb3BhY2l0eT0iMCIgaW5rc2NhcGU6cGFnZXNoYWRvdz0iMiIgaW5rc2NhcGU6d2luZG93LWhlaWdodD0iMTAxNyIgaW5rc2NhcGU6d2luZG93LW1heGltaXplZD0iMSIgaW5rc2NhcGU6d2luZG93LXdpZHRoPSIxOTIwIiBpbmtzY2FwZTp3aW5kb3cteD0iLTgiIGlua3NjYXBlOndpbmRvdy15PSItOCIgaW5rc2NhcGU6em9vbT0iMTAuNzk3NDU0IiBvYmplY3R0b2xlcmFuY2U9IjEwIiBwYWdlY29sb3I9IiNmZmZmZmYiIHNob3dncmlkPSJmYWxzZSI+JiN4YTsJPC9zb2RpcG9kaTpuYW1lZHZpZXc+JiN4YTs8ZyBpZD0iZzEyNzc1Ij4mI3hhOwk8dGl0bGUgaWQ9InRpdGxlMTI3NjgiPlBhZ2UtMTwvdGl0bGU+JiN4YTsJPGcgaWQ9InNoYXBlNDA3MC0xIj4mI3hhOwkJPHRpdGxlIGlkPSJ0aXRsZTEyNzcwIj5XZWJIb29rPC90aXRsZT4mI3hhOwkJPHBhdGggaWQ9InBhdGgxMjc3MiIgaW5rc2NhcGU6Y29ubmVjdG9yLWN1cnZhdHVyZT0iMCIgc3R5bGU9ImZpbGw6IzNGNTc2NTsiIGQ9Ik0wLjAzLDMzLjgzTDAuMDcsNy40NmgxMy4yaDEzLjJ2NS4zMnY1LjMzICAgIGwtNy44LDAuMDdsLTcuODEsMC4wN1YzMy44djE1LjU2aDE1LjU1aDE1LjU2bDAuMDctNy44MWwwLjA3LTcuODJoNS4zMmg1LjMzbDAuMDMsMTMuMjZsMC4wNCwxMy4yM0gyNi40MUgwTDAuMDMsMzMuODN6ICAgICBNMTguMTEsMzIuNzhjMC03LjM2LDAuMDItOC4yMywwLjIyLTguMjljMC4yOS0wLjEyLDE1Ljg4LTAuMTIsMTYuMTYsMGMwLjE5LDAuMDYsMC4yMywwLjkzLDAuMjMsOC4yOVY0MWgtOC4zMWgtOC4zTDE4LjExLDMyLjc4ICAgIHogTTQ5LjY1LDE2Ljc1YzAtNC4xMi0wLjA1LTUuNDgtMC4xOS01LjY3Yy0wLjE1LTAuMi0wLjY4LTAuMjQtNS40OC0wLjI3bC01LjMyLTAuMDRWNS4zOVYwSDQ5LjVoMTAuODZsMC4wMywxMS4xbDAuMDMsMTEuMDkgICAgaC01LjM4aC01LjM5TDQ5LjY1LDE2Ljc1eiIvPiYjeGE7CTwvZz4mI3hhOzwvZz4mI3hhOzwvc3ZnPg==;" vertex="1" parent="1">
          <mxGeometry x="440" y="-765" width="50" height="50" as="geometry" />
        </mxCell>
        <mxCell id="0ri98CfVSG6h3WFVPkks-28" style="edgeStyle=orthogonalEdgeStyle;rounded=0;orthogonalLoop=1;jettySize=auto;html=1;entryX=0.5;entryY=0;entryDx=0;entryDy=0;" edge="1" parent="1" source="0ri98CfVSG6h3WFVPkks-23" target="0ri98CfVSG6h3WFVPkks-17">
          <mxGeometry relative="1" as="geometry" />
        </mxCell>
        <mxCell id="0ri98CfVSG6h3WFVPkks-47" style="edgeStyle=orthogonalEdgeStyle;rounded=0;orthogonalLoop=1;jettySize=auto;html=1;entryX=0.5;entryY=0;entryDx=0;entryDy=0;" edge="1" parent="1" source="0ri98CfVSG6h3WFVPkks-23" target="0ri98CfVSG6h3WFVPkks-30">
          <mxGeometry relative="1" as="geometry" />
        </mxCell>
        <mxCell id="0ri98CfVSG6h3WFVPkks-23" value="v" style="rounded=1;whiteSpace=wrap;html=1;dashed=1;strokeColor=none;strokeWidth=2;fillColor=#E6E6E6;fontFamily=Verdana;fontSize=12;fontColor=#00BEF2" vertex="1" parent="1">
          <mxGeometry x="570" y="-1060" width="210" height="174" as="geometry" />
        </mxCell>
        <mxCell id="0ri98CfVSG6h3WFVPkks-25" value="" style="aspect=fixed;html=1;points=[];align=center;image;fontSize=12;image=img/lib/azure2/general/Marketplace.svg;" vertex="1" parent="1">
          <mxGeometry x="689.9999999999999" y="-1029.5" width="54.26" height="62" as="geometry" />
        </mxCell>
        <mxCell id="0ri98CfVSG6h3WFVPkks-27" value="Extenal Provider Data" style="whiteSpace=wrap;html=1;dashed=1;strokeColor=none;strokeWidth=2;fillColor=#3399FF;fontFamily=Helvetica;fontSize=18;fontColor=#FFFFFF;fontStyle=1" vertex="1" parent="1">
          <mxGeometry x="570" y="-1097.5" width="210" height="60" as="geometry" />
        </mxCell>
        <mxCell id="0ri98CfVSG6h3WFVPkks-38" style="edgeStyle=orthogonalEdgeStyle;rounded=0;orthogonalLoop=1;jettySize=auto;html=1;entryX=1;entryY=0.5;entryDx=0;entryDy=0;" edge="1" parent="1" source="0ri98CfVSG6h3WFVPkks-29" target="0ri98CfVSG6h3WFVPkks-6">
          <mxGeometry relative="1" as="geometry">
            <Array as="points">
              <mxPoint x="330" y="-543" />
              <mxPoint x="330" y="-711" />
            </Array>
          </mxGeometry>
        </mxCell>
        <mxCell id="0ri98CfVSG6h3WFVPkks-29" value="v" style="rounded=1;whiteSpace=wrap;html=1;dashed=1;strokeColor=none;strokeWidth=2;fillColor=#E6E6E6;fontFamily=Verdana;fontSize=12;fontColor=#00BEF2" vertex="1" parent="1">
          <mxGeometry x="610" y="-630" width="210" height="174" as="geometry" />
        </mxCell>
        <mxCell id="0ri98CfVSG6h3WFVPkks-30" value="Jobs / Task" style="whiteSpace=wrap;html=1;dashed=1;strokeColor=none;strokeWidth=2;fillColor=#3399FF;fontFamily=Helvetica;fontSize=18;fontColor=#FFFFFF;fontStyle=1" vertex="1" parent="1">
          <mxGeometry x="610" y="-640" width="210" height="60" as="geometry" />
        </mxCell>
        <mxCell id="0ri98CfVSG6h3WFVPkks-31" value="" style="shape=image;verticalLabelPosition=bottom;labelBackgroundColor=#ffffff;verticalAlign=top;aspect=fixed;imageAspect=0;image=data:image/svg+xml,PHN2ZyB4bWxuczpjYz0iaHR0cDovL2NyZWF0aXZlY29tbW9ucy5vcmcvbnMjIiB4bWxuczpkYz0iaHR0cDovL3B1cmwub3JnL2RjL2VsZW1lbnRzLzEuMS8iIHhtbG5zOmlua3NjYXBlPSJodHRwOi8vd3d3Lmlua3NjYXBlLm9yZy9uYW1lc3BhY2VzL2lua3NjYXBlIiB4bWxuczpyZGY9Imh0dHA6Ly93d3cudzMub3JnLzE5OTkvMDIvMjItcmRmLXN5bnRheC1ucyMiIHhtbG5zOnNvZGlwb2RpPSJodHRwOi8vc29kaXBvZGkuc291cmNlZm9yZ2UubmV0L0RURC9zb2RpcG9kaS0wLmR0ZCIgeG1sbnM6c3ZnPSJodHRwOi8vd3d3LnczLm9yZy8yMDAwL3N2ZyIgeG1sbnM9Imh0dHA6Ly93d3cudzMub3JnLzIwMDAvc3ZnIiB4bWxuczp4bGluaz0iaHR0cDovL3d3dy53My5vcmcvMTk5OS94bGluayIgdmVyc2lvbj0iMS4xIiBpZD0ic3ZnMTkyMTAiIGlua3NjYXBlOnZlcnNpb249IjAuOTIuMyAoMjQwNTU0NiwgMjAxOC0wMy0xMSkiIHNvZGlwb2RpOmRvY25hbWU9ImVjb21tZXJjZWEuc3ZnIiB4PSIwcHgiIHk9IjBweCIgdmlld0JveD0iMCAwIDg2LjU1IDcyLjMzIiBzdHlsZT0iZW5hYmxlLWJhY2tncm91bmQ6bmV3IDAgMCA4Ni41NSA3Mi4zMzsiIHhtbDpzcGFjZT0icHJlc2VydmUiPiYjeGE7PHNvZGlwb2RpOm5hbWVkdmlldyBib3JkZXJjb2xvcj0iIzY2NjY2NiIgYm9yZGVyb3BhY2l0eT0iMSIgZ3JpZHRvbGVyYW5jZT0iMTAiIGd1aWRldG9sZXJhbmNlPSIxMCIgaWQ9Im5hbWVkdmlldzE5MjEyIiBpbmtzY2FwZTpjdXJyZW50LWxheWVyPSJzdmcxOTIxMCIgaW5rc2NhcGU6Y3g9IjM3LjYwMzEwOCIgaW5rc2NhcGU6Y3k9IjIwLjgzMDk1IiBpbmtzY2FwZTpwYWdlb3BhY2l0eT0iMCIgaW5rc2NhcGU6cGFnZXNoYWRvdz0iMiIgaW5rc2NhcGU6d2luZG93LWhlaWdodD0iMTAxNyIgaW5rc2NhcGU6d2luZG93LW1heGltaXplZD0iMSIgaW5rc2NhcGU6d2luZG93LXdpZHRoPSIxOTIwIiBpbmtzY2FwZTp3aW5kb3cteD0iLTgiIGlua3NjYXBlOndpbmRvdy15PSItOCIgaW5rc2NhcGU6em9vbT0iMy4xNzg1MzUiIG9iamVjdHRvbGVyYW5jZT0iMTAiIHBhZ2Vjb2xvcj0iI2ZmZmZmZiIgc2hvd2dyaWQ9ImZhbHNlIj4mI3hhOwk8L3NvZGlwb2RpOm5hbWVkdmlldz4mI3hhOzxwYXRoIGlkPSJwYXRoMTc3MjkiIGlua3NjYXBlOmNvbm5lY3Rvci1jdXJ2YXR1cmU9IjAiIHN0eWxlPSJmaWxsOiNBNUE1QTU7IiBkPSJNNDMuMjgsNjguNjljMjMuOSwwLDQzLjI3LDAuODIsNDMuMjcsMS44MiAgYzAsMS4wMS0xOS4zNywxLjgyLTQzLjI3LDEuODJDMTkuMzcsNzIuMzMsMCw3MS41MiwwLDcwLjUxQzAsNjkuNTEsMTkuMzcsNjguNjksNDMuMjgsNjguNjl6Ii8+JiN4YTs8cGF0aCBpZD0icGF0aDE3NzM0IiBpbmtzY2FwZTpjb25uZWN0b3ItY3VydmF0dXJlPSIwIiBzdHlsZT0iZmlsbDojQkZCRkJGOyIgZD0iTTI5LjUsNzAuNDJ2LTEuMDdsMy40Mi0wLjQybDIuMzUtOC45OWgxNy40NyAgbDIuMzYsOC45OWwzLjQxLDAuNDJ2MS4wN0gyOS41eiIvPiYjeGE7PHBhdGggaWQ9InBhdGgxNzczOSIgaW5rc2NhcGU6Y29ubmVjdG9yLWN1cnZhdHVyZT0iMCIgc3R5bGU9ImZpbGw6I0U2RTZFNjsiIGQ9Ik0zNC44MSw2MS42OGwwLjQ2LTEuNzVoMTcuNDdsMC40NSwxLjc1SDM0LjgxeiIvPiYjeGE7PHBhdGggaWQ9InBhdGgxNzc0NCIgaW5rc2NhcGU6Y29ubmVjdG9yLWN1cnZhdHVyZT0iMCIgc3R5bGU9ImZpbGw6Izg3OUI5RjsiIGQ9Ik04My45MywzLjM4djQ1LjU5SDIuNzRWMy4zOEw4My45MywzLjM4eiIvPiYjeGE7PHBhdGggaWQ9InBhdGgxNzc0OSIgaW5rc2NhcGU6Y29ubmVjdG9yLWN1cnZhdHVyZT0iMCIgc3R5bGU9ImZpbGw6IzUwNTM1NDsiIGQ9Ik0wLDUyLjQyVjEuOTVDMCwwLjg4LDAuODcsMCwxLjk1LDBIODQuNiAgYzEuMDgsMCwxLjk1LDAuODgsMS45NSwxLjk1djUwLjQ3SDB6Ii8+JiN4YTs8cGF0aCBpZD0icGF0aDE3NzU0IiBpbmtzY2FwZTpjb25uZWN0b3ItY3VydmF0dXJlPSIwIiBzdHlsZT0iZmlsbDojRDhEOEQ4OyIgZD0iTTg0LjYsNjAuMjJIMS45NUMwLjg3LDYwLjIyLDAsNTkuMzUsMCw1OC4yN3YtNS44NSAgaDg2LjU1djUuODVDODYuNTUsNTkuMzUsODUuNjgsNjAuMjIsODQuNiw2MC4yMnoiLz4mI3hhOzxyZWN0IGlkPSJyZWN0MTc3NTkiIHg9IjIuNjgiIHk9IjMuNDEiIHN0eWxlPSJmaWxsOiNFNkU2RTY7IiB3aWR0aD0iODEuMTkiIGhlaWdodD0iNDUuNTkiLz4mI3hhOzxyZWN0IGlkPSJyZWN0MTc3NjQiIHg9IjUzLjU3IiB5PSIxMi42MSIgc3R5bGU9ImZpbGw6I0ZGRkZGRjsiIHdpZHRoPSIyNy42MyIgaGVpZ2h0PSIxMC4xNCIvPiYjeGE7PHBhdGggaWQ9InBhdGgxNzc2OSIgaW5rc2NhcGU6Y29ubmVjdG9yLWN1cnZhdHVyZT0iMCIgc3R5bGU9ImZpbGw6IzhCQzM0QTsiIGQ9Ik03Ny40NCwxNS45bDAuODEsMC44bC0xLjkzLDEuOTVsLTAuODEsMC44MSAgbC0wLjgtMC44MWwtMS4yOC0xLjI3bDAuODEtMC44MWwxLjI3LDEuMjhMNzcuNDQsMTUuOXoiLz4mI3hhOzxyZWN0IGlkPSJyZWN0MTc3NzQiIHg9IjUzLjU3IiB5PSIzNi41MiIgc3R5bGU9ImZpbGw6I0ZGRkZGRjsiIHdpZHRoPSIyNy42MyIgaGVpZ2h0PSIxMC4xNCIvPiYjeGE7PHBhdGggaWQ9InBhdGgxNzc3OSIgaW5rc2NhcGU6Y29ubmVjdG9yLWN1cnZhdHVyZT0iMCIgc3R5bGU9ImZpbGw6IzhCQzM0QTsiIGQ9Ik03Ny40NCwzOS44MWwwLjgxLDAuOGwtMS45MywxLjk1bC0wLjgxLDAuODEgIGwtMC44LTAuODFsLTEuMjgtMS4yN2wwLjgxLTAuODFsMS4yNywxLjI4TDc3LjQ0LDM5LjgxeiIvPiYjeGE7PHJlY3QgaWQ9InJlY3QxNzc4NCIgeD0iNTMuNTciIHk9IjI0LjU2IiBzdHlsZT0iZmlsbDojRkZEMkM5OyIgd2lkdGg9IjI3LjYzIiBoZWlnaHQ9IjEwLjE0Ii8+JiN4YTs8cGF0aCBpZD0icGF0aDE3Nzg5IiBpbmtzY2FwZTpjb25uZWN0b3ItY3VydmF0dXJlPSIwIiBzdHlsZT0iZmlsbDojRjQ0MzM2OyIgZD0iTTc3LjU5LDI4LjM1bC0zLjM1LDMuMzZsLTAuODEtMC44MWwzLjM2LTMuMzUgIEw3Ny41OSwyOC4zNXoiLz4mI3hhOzxwYXRoIGlkPSJwYXRoMTc3OTQiIGlua3NjYXBlOmNvbm5lY3Rvci1jdXJ2YXR1cmU9IjAiIHN0eWxlPSJmaWxsOiNGNDQzMzY7IiBkPSJNNzQuMjQsMjcuNTVsMy4zNSwzLjM1bC0wLjgsMC44MWwtMy4zNi0zLjM2ICBMNzQuMjQsMjcuNTV6Ii8+JiN4YTs8cmVjdCBpZD0icmVjdDE3Nzk5IiB4PSI1LjM1IiB5PSIxMi42MSIgc3R5bGU9ImZpbGw6I0ZGRkZGRjsiIHdpZHRoPSI0NC4xOCIgaGVpZ2h0PSIzNC4wNSIvPiYjeGE7PHJlY3QgaWQ9InJlY3QxNzgwNiIgeD0iMi42OCIgeT0iMy40MSIgc3R5bGU9ImZpbGw6I0U2RTZFNjsiIHdpZHRoPSI4MS4xOSIgaGVpZ2h0PSIyLjY3Ii8+JiN4YTs8cmVjdCBpZD0icmVjdDE3ODExIiB4PSIyLjY4IiB5PSIzLjQxIiBzdHlsZT0iZmlsbDojRUI1NjM4OyIgd2lkdGg9IjEwLjg0IiBoZWlnaHQ9IjIuNjciLz4mI3hhOzxyZWN0IGlkPSJyZWN0MTc4MTYiIHg9IjIuNjgiIHk9IjYuMDgiIHN0eWxlPSJmaWxsOiMwMDk2RTY7IiB3aWR0aD0iODEuMTkiIGhlaWdodD0iNC4wOSIvPiYjeGE7PHJlY3QgaWQ9InJlY3QxNzgyMSIgeD0iMi42OCIgeT0iNi4wOCIgc3R5bGU9ImZpbGw6IzAwODNDOTsiIHdpZHRoPSIxNC4yOCIgaGVpZ2h0PSI0LjA5Ii8+JiN4YTs8cmVjdCBpZD0icmVjdDE3ODI2IiB4PSIyOC4wMSIgeT0iNi4wOCIgc3R5bGU9ImZpbGw6IzAwODNDOTsiIHdpZHRoPSIxMS4wNCIgaGVpZ2h0PSI0LjA5Ii8+JiN4YTs8Y2lyY2xlIGlkPSJlbGxpcHNlMTc4MzEiIHN0eWxlPSJmaWxsOiMwMDgzQzk7IiBjeD0iNzguNTgiIGN5PSI4LjEzIiByPSIwLjkxIi8+JiN4YTs8Y2lyY2xlIGlkPSJlbGxpcHNlMTc4MzYiIHN0eWxlPSJmaWxsOiMwMDgzQzk7IiBjeD0iNzQuNjUiIGN5PSI4LjEzIiByPSIwLjkxIi8+JiN4YTs8Y2lyY2xlIGlkPSJlbGxpcHNlMTc4NDEiIHN0eWxlPSJmaWxsOiMwMDgzQzk7IiBjeD0iNzAuNzMiIGN5PSI4LjEzIiByPSIwLjkxIi8+JiN4YTs8Y2lyY2xlIGlkPSJlbGxpcHNlMTc4NDYiIHN0eWxlPSJmaWxsOiMwMDgzQzk7IiBjeD0iNjYuOCIgY3k9IjguMTMiIHI9IjAuOTEiLz4mI3hhOzxwYXRoIGlkPSJwYXRoMTc4NTYiIGlua3NjYXBlOmNvbm5lY3Rvci1jdXJ2YXR1cmU9IjAiIHN0eWxlPSJmaWxsOiM0RDRENEQ7ZmlsbC1vcGFjaXR5OjAuNzY7c3Ryb2tlOiMxMDAwMDA7c3Ryb2tlLXdpZHRoOjAuNDA2NDtzdHJva2UtbGluZWNhcDpzcXVhcmU7c3Ryb2tlLW1pdGVybGltaXQ6MztzdHJva2Utb3BhY2l0eTowLjc2OyIgZD0iICBNMzUuMiwzMy45Nmw3LjUtMC40MmMwLDAsMC40Mi0zLjM4LDAuMzEtMy40Yy0wLjEyLTAuMDMtMy42NC0xLjktMy42NC0xLjlsLTQuMDUsMS45OUwzNS4yLDMzLjk2eiIvPiYjeGE7PHBhdGggaWQ9InBhdGgxNzg2MSIgaW5rc2NhcGU6Y29ubmVjdG9yLWN1cnZhdHVyZT0iMCIgc3R5bGU9ImZpbGw6IzRENEQ0RDtmaWxsLW9wYWNpdHk6MC43NjtzdHJva2U6IzEwMDAwMDtzdHJva2Utd2lkdGg6MC40MDY0O3N0cm9rZS1saW5lY2FwOnNxdWFyZTtzdHJva2UtbWl0ZXJsaW1pdDozO3N0cm9rZS1vcGFjaXR5OjAuNzY7IiBkPSIgIE0xMy4xLDI5LjkxYzAsMC4wOS0wLjQ3LDMuODktMC40NywzLjg5bDcuNzgsMC4xMmMwLDAtMC4xNC00LjAzLTAuMy00LjE3Yy0wLjE3LTAuMTQtMy4zMS0xLjIyLTMuMzEtMS4yMkwxMy4xLDI5LjkxeiIvPiYjeGE7PHBhdGggaWQ9InBhdGgxNzg2NiIgaW5rc2NhcGU6Y29ubmVjdG9yLWN1cnZhdHVyZT0iMCIgc3R5bGU9ImZpbGw6I0ZGQjAyMTsiIGQ9Ik05LjEsMzMuNzdsLTAuNTgtMi42OCAgYzEuOTYtMS4xMywzLjg3LTIuMzUsNi4yNS0yLjg4YzEuNDQtMC4xMiwzLjEsMC4wMyw0LjMxLTAuMzdjMi4wMi0xLjA0LDMuOTktMi4xNSw2LjI1LTIuODljMy41LTAuNTUsNi42Ni0wLjI2LDkuNjYsMC4zNyAgbDYuNjcsMS45OWMxLjAyLTAuMDIsMS45NCwwLjA3LDMuMy0wLjM2bC0wLjA5LDAuOTlsMC44OSwyLjg0Yy0wLjg2LDIuNDUtMS4xMSwyLjEtMS41OCwyLjczYzAsMC0xLjYyLDAuNzQtMS43OCwwLjQ3ICBjLTAuMTYtMC4yNi0wLjA1LTIuNzMtMC4wNS0yLjczYy0wLjY0LTEuMTItMS41NS0yLjAyLTMuMzctMi4yYy0yLDAuMTQtMi43NSwxLjItMy4xNSwyLjUyYy0wLjMsMC45OC0wLjI0LDEuOTYtMC4xLDIuOTQgIGwtNC4wNS0wLjIxbC0xLjA1LTAuNDJsLTEwLjcxLDAuMjZ2LTIuNzNjLTAuMzktMS4wNi0wLjkxLTIuMDgtMy4yNi0yLjQ3Yy0xLjgyLDAuMjEtMi44OSwxLjEzLTMuNTIsMi40NmwwLjA1LDIuOTVMOS4xLDMzLjc3eiIvPiYjeGE7PHBhdGggaWQ9InBhdGgxNzg3MSIgaW5rc2NhcGU6Y29ubmVjdG9yLWN1cnZhdHVyZT0iMCIgc3R5bGU9ImZpbGw6IzFBMUExQTtmaWxsLW9wYWNpdHk6MC40NDtzdHJva2U6IzEwMDAwMDtzdHJva2Utd2lkdGg6MC40MDY0O3N0cm9rZS1saW5lY2FwOnNxdWFyZTtzdHJva2UtbWl0ZXJsaW1pdDozO3N0cm9rZS1vcGFjaXR5OjAuNDQ7IiBkPSIgIE0yMy4yMSwyOC4xN2wyLjY3LTIuNThjMC0wLjE4LDYuMTctMC4zMyw2LjE0LDAuMDdjMCwwLjE0LTAuNTgsMi4xMy0wLjU4LDIuMTNMMjMuMjEsMjguMTd6Ii8+JiN4YTs8cGF0aCBpZD0icGF0aDE3ODc2IiBpbmtzY2FwZTpjb25uZWN0b3ItY3VydmF0dXJlPSIwIiBzdHlsZT0iZmlsbDojMzMzMzMzO2ZpbGwtb3BhY2l0eTowLjc2O3N0cm9rZTojMTAwMDAwO3N0cm9rZS13aWR0aDowLjQwNjQ7c3Ryb2tlLWxpbmVjYXA6c3F1YXJlO3N0cm9rZS1taXRlcmxpbWl0OjM7c3Ryb2tlLW9wYWNpdHk6MC43NjsiIGQ9IiAgTTMyLjE4LDI1LjYyYzEuMzcsMC4xOCwyLjg4LDAuNDYsNS4zLDEuMzh2MC4zOGwtNS43MiwwLjM1TDMyLjE4LDI1LjYyeiIvPiYjeGE7PHBhdGggaWQ9InBhdGgxNzg4MSIgaW5rc2NhcGU6Y29ubmVjdG9yLWN1cnZhdHVyZT0iMCIgc3R5bGU9ImZpbGw6bm9uZTsiIGQ9Ik0yMi4xNywyOC4zNmMtMS4xLDAuNjktMC41MSwyLjc2LTAuMjMsNC41NyAgTDIyLjE3LDI4LjM2eiIvPiYjeGE7PHBhdGggaWQ9InBhdGgxNzg4MyIgaW5rc2NhcGU6Y29ubmVjdG9yLWN1cnZhdHVyZT0iMCIgc3R5bGU9ImZpbGw6bm9uZTtzdHJva2U6IzEwMDAwMDtzdHJva2Utd2lkdGg6MC40MDY0O3N0cm9rZS1saW5lY2FwOnNxdWFyZTtzdHJva2UtbWl0ZXJsaW1pdDozO3N0cm9rZS1vcGFjaXR5OjAuNzY7IiBkPSIgIE0yMi4xNywyOC4zNmMtMS4xLDAuNjktMC41MSwyLjc2LTAuMjMsNC41NyIvPiYjeGE7PHBhdGggaWQ9InBhdGgxNzg4OCIgaW5rc2NhcGU6Y29ubmVjdG9yLWN1cnZhdHVyZT0iMCIgc3R5bGU9ImZpbGw6bm9uZTsiIGQ9Ik0zMi4yNywyNy44NGMwLjQ4LDAuNTMsMC4wMSwyLjM0LTAuNjgsNC40NiAgYy0zLjE4LDAuNTEtNi40MiwwLjQ3LTkuNjMsMC42OEwzMi4yNywyNy44NHoiLz4mI3hhOzxwYXRoIGlkPSJwYXRoMTc4OTAiIGlua3NjYXBlOmNvbm5lY3Rvci1jdXJ2YXR1cmU9IjAiIHN0eWxlPSJmaWxsOm5vbmU7c3Ryb2tlOiMxMDAwMDA7c3Ryb2tlLXdpZHRoOjAuOTQ4NDtzdHJva2UtbGluZWNhcDpzcXVhcmU7c3Ryb2tlLW1pdGVybGltaXQ6MztzdHJva2Utb3BhY2l0eTowLjc2OyIgZD0iICBNMzIuMjcsMjcuODRjMC40OCwwLjUzLDAuMDEsMi4zNC0wLjY4LDQuNDZjLTMuMTgsMC41MS02LjQyLDAuNDctOS42MywwLjY4Ii8+JiN4YTs8cGF0aCBpZD0icGF0aDE3ODk1IiBpbmtzY2FwZTpjb25uZWN0b3ItY3VydmF0dXJlPSIwIiBzdHlsZT0iZmlsbDpub25lO3N0cm9rZTojMTAwMDAwO3N0cm9rZS13aWR0aDowLjQwNjQ7c3Ryb2tlLWxpbmVjYXA6c3F1YXJlO3N0cm9rZS1taXRlcmxpbWl0OjM7c3Ryb2tlLW9wYWNpdHk6MC43NjsiIGQ9IiAgTTE5LjQ1LDMyLjM5YzAsMS42Mi0xLjMxLDIuOTMtMi45MywyLjkzcy0yLjkzLTEuMzEtMi45My0yLjkzYzAtMS42MiwxLjMxLTIuOTMsMi45My0yLjkzUzE5LjQ1LDMwLjc3LDE5LjQ1LDMyLjM5eiIvPiYjeGE7PHBhdGggaWQ9InBhdGgxNzkwMCIgaW5rc2NhcGU6Y29ubmVjdG9yLWN1cnZhdHVyZT0iMCIgc3R5bGU9ImZpbGw6bm9uZTtzdHJva2U6IzEwMDAwMDtzdHJva2Utd2lkdGg6MC40MDY0O3N0cm9rZS1saW5lY2FwOnNxdWFyZTtzdHJva2UtbWl0ZXJsaW1pdDozO3N0cm9rZS1vcGFjaXR5OjAuNzY7IiBkPSIgIE0xOS40NSwzMi4zOWMwLDEuNjItMS4zMSwyLjkzLTIuOTMsMi45M3MtMi45My0xLjMxLTIuOTMtMi45M2MwLTEuNjIsMS4zMS0yLjkzLDIuOTMtMi45M1MxOS40NSwzMC43NywxOS40NSwzMi4zOXoiLz4mI3hhOzxwYXRoIGlkPSJwYXRoMTc5MDUiIGlua3NjYXBlOmNvbm5lY3Rvci1jdXJ2YXR1cmU9IjAiIHN0eWxlPSJmaWxsOm5vbmU7c3Ryb2tlOiMxMDAwMDA7c3Ryb2tlLXdpZHRoOjAuMzA2MjtzdHJva2UtbGluZWNhcDpzcXVhcmU7c3Ryb2tlLW1pdGVybGltaXQ6MztzdHJva2Utb3BhY2l0eTowLjc2OyIgZD0iICBNMTguNzMsMzIuMzljMCwxLjIyLTAuOTksMi4yMS0yLjIxLDIuMjFzLTIuMjEtMC45OS0yLjIxLTIuMjFjMC0xLjIyLDAuOTktMi4yMSwyLjIxLTIuMjFTMTguNzMsMzEuMTcsMTguNzMsMzIuMzl6Ii8+JiN4YTs8cGF0aCBpZD0icGF0aDE3OTEwIiBpbmtzY2FwZTpjb25uZWN0b3ItY3VydmF0dXJlPSIwIiBzdHlsZT0ic3Ryb2tlOiMxMDAwMDA7c3Ryb2tlLXdpZHRoOjAuNDA2NDtzdHJva2UtbGluZWNhcDpzcXVhcmU7c3Ryb2tlLW1pdGVybGltaXQ6MzsiIGQ9IiAgTTE5LjQ1LDMyLjM5YzAsMS42Mi0xLjMxLDIuOTMtMi45MywyLjkzcy0yLjkzLTEuMzEtMi45My0yLjkzYzAtMS42MiwxLjMxLTIuOTMsMi45My0yLjkzUzE5LjQ1LDMwLjc3LDE5LjQ1LDMyLjM5eiIvPiYjeGE7PHBhdGggaWQ9InBhdGgxNzkxNSIgaW5rc2NhcGU6Y29ubmVjdG9yLWN1cnZhdHVyZT0iMCIgc3R5bGU9ImZpbGw6IzgwODA4MDtmaWxsLW9wYWNpdHk6MC43NjtzdHJva2U6IzEwMDAwMDtzdHJva2Utd2lkdGg6MC4zMDYyO3N0cm9rZS1saW5lY2FwOnNxdWFyZTtzdHJva2UtbWl0ZXJsaW1pdDozO3N0cm9rZS1vcGFjaXR5OjAuNzY7IiBkPSIgIE0xOC43MywzMi4zOWMwLDEuMjItMC45OSwyLjIxLTIuMjEsMi4yMXMtMi4yMS0wLjk5LTIuMjEtMi4yMWMwLTEuMjIsMC45OS0yLjIxLDIuMjEtMi4yMVMxOC43MywzMS4xNywxOC43MywzMi4zOXoiLz4mI3hhOzxwYXRoIGlkPSJwYXRoMTc5MjAiIGlua3NjYXBlOmNvbm5lY3Rvci1jdXJ2YXR1cmU9IjAiIHN0eWxlPSJzdHJva2U6IzEwMDAwMDtzdHJva2Utd2lkdGg6MC40MDY0O3N0cm9rZS1saW5lY2FwOnNxdWFyZTtzdHJva2UtbWl0ZXJsaW1pdDozOyIgZD0iICBNNDIuMDUsMzIuMzJjMCwxLjYyLTEuMzEsMi45My0yLjkzLDIuOTNzLTIuOTMtMS4zMS0yLjkzLTIuOTNjMC0xLjYyLDEuMzEtMi45MywyLjkzLTIuOTNTNDIuMDUsMzAuNyw0Mi4wNSwzMi4zMnoiLz4mI3hhOzxwYXRoIGlkPSJwYXRoMTc5MjUiIGlua3NjYXBlOmNvbm5lY3Rvci1jdXJ2YXR1cmU9IjAiIHN0eWxlPSJmaWxsOiM5OTk5OTk7ZmlsbC1vcGFjaXR5OjAuNzY7c3Ryb2tlOiMxMDAwMDA7c3Ryb2tlLXdpZHRoOjAuMzA2MjtzdHJva2UtbGluZWNhcDpzcXVhcmU7c3Ryb2tlLW1pdGVybGltaXQ6MztzdHJva2Utb3BhY2l0eTowLjc2OyIgZD0iICBNNDEuMzMsMzIuMzJjMCwxLjIyLTAuOTksMi4yMS0yLjIxLDIuMjFjLTEuMjIsMC0yLjIxLTAuOTktMi4yMS0yLjIxYzAtMS4yMiwwLjk5LTIuMjEsMi4yMS0yLjIxICBDNDAuMzQsMzAuMTEsNDEuMzMsMzEuMSw0MS4zMywzMi4zMnoiLz4mI3hhOzxwYXRoIGlkPSJwYXRoMTc5MzIiIGlua3NjYXBlOmNvbm5lY3Rvci1jdXJ2YXR1cmU9IjAiIHN0eWxlPSJmaWxsOiM0NjcyQzQ7IiBkPSJNOS4xLDMzLjc3bC0wLjU4LTIuNjggIGMxLjk2LTEuMTMsMy44Ny0yLjM1LDYuMjUtMi44OGMxLjQ0LTAuMTIsMy4xLDAuMDMsNC4zMS0wLjM3YzIuMDItMS4wNCwzLjk5LTIuMTUsNi4yNS0yLjg5YzMuNS0wLjU1LDYuNjYtMC4yNiw5LjY2LDAuMzcgIGw2LjY3LDEuOTljMS4wMi0wLjAyLDEuOTQsMC4wNywzLjMtMC4zNmwtMC4wOSwwLjk5bDAuODksMi44NGMtMC44NiwyLjQ1LTEuMTEsMi4xLTEuNTgsMi43M2MwLDAtMS42MiwwLjc0LTEuNzgsMC40NyAgYy0wLjE2LTAuMjYtMC4wNS0yLjczLTAuMDUtMi43M2MtMC42NC0xLjEyLTEuNTUtMi4wMi0zLjM3LTIuMmMtMiwwLjE0LTIuNzUsMS4yLTMuMTUsMi41MmMtMC4zLDAuOTgtMC4yNCwxLjk2LTAuMSwyLjk0ICBsLTQuMDUtMC4yMWwtMS4wNS0wLjQybC0xMC43MSwwLjI2di0yLjczYy0wLjM5LTEuMDYtMC45MS0yLjA4LTMuMjYtMi40N2MtMS44MiwwLjIxLTIuODksMS4xMy0zLjUyLDIuNDZsMC4wNSwyLjk1TDkuMSwzMy43N3oiLz4mI3hhOzxwYXRoIGlkPSJwYXRoMTc5MzgiIGlua3NjYXBlOmNvbm5lY3Rvci1jdXJ2YXR1cmU9IjAiIHN0eWxlPSJmaWxsOiNGRjkzMkE7ZmlsbC1vcGFjaXR5OjAuNzY7c3Ryb2tlOiMxMDAwMDA7c3Ryb2tlLXdpZHRoOjAuNDA2NDtzdHJva2UtbGluZWNhcDpzcXVhcmU7c3Ryb2tlLW1pdGVybGltaXQ6MztzdHJva2Utb3BhY2l0eTowLjc2OyIgZD0iICBNMjMuODIsMjcuMjdjLTAuMDksMC4wNy0wLjE4LDAuMTQtMC4xOSwwLjI1YzAuMDMsMC4wOCwwLDAuMTEsMC4xNCwwLjI3YzAuNCwwLjE3LDAuOCwwLjE5LDEuMiwwLjJjMC4xNC0wLjA0LDAuMTctMC4xMiwwLjE5LTAuMjIgIGwwLjAzLTAuNTljLTAuMDItMC4xMS0wLjA5LTAuMTctMC4xOC0wLjIxQzI0LjU1LDI2Ljk3LDI0LjEzLDI3LjAyLDIzLjgyLDI3LjI3eiIvPiYjeGE7PHBhdGggaWQ9InBhdGgxNzk0NSIgaW5rc2NhcGU6Y29ubmVjdG9yLWN1cnZhdHVyZT0iMCIgc3R5bGU9ImZpbGw6IzQ2NzJDNDsiIGQ9Ik05LjEsMzMuNzdsLTAuNTgtMi42OCAgYzEuOTYtMS4xMywzLjg3LTIuMzUsNi4yNS0yLjg4YzEuNDQtMC4xMiwzLjEsMC4wMyw0LjMxLTAuMzdjMi4wMi0xLjA0LDMuOTktMi4xNSw2LjI1LTIuODljMy41LTAuNTUsNi42Ni0wLjI2LDkuNjYsMC4zNyAgbDYuNjcsMS45OWMxLjAyLTAuMDIsMS45NCwwLjA3LDMuMy0wLjM2bC0wLjA5LDAuOTlsMC44OSwyLjg0Yy0wLjg2LDIuNDUtMS4xMSwyLjEtMS41OCwyLjczYzAsMC0xLjYyLDAuNzQtMS43OCwwLjQ3ICBjLTAuMTYtMC4yNi0wLjA1LTIuNzMtMC4wNS0yLjczYy0wLjY0LTEuMTItMS41NS0yLjAyLTMuMzctMi4yYy0yLDAuMTQtMi43NSwxLjItMy4xNSwyLjUyYy0wLjMsMC45OC0wLjI0LDEuOTYtMC4xLDIuOTQgIGwtNC4wNS0wLjIxbC0xLjA1LTAuNDJsLTEwLjcxLDAuMjZ2LTIuNzNjLTAuMzktMS4wNi0wLjkxLTIuMDgtMy4yNi0yLjQ3Yy0xLjgyLDAuMjEtMi44OSwxLjEzLTMuNTIsMi40NmwwLjA1LDIuOTVMOS4xLDMzLjc3eiIvPiYjeGE7PHBhdGggaWQ9InBhdGgxNzk1MSIgaW5rc2NhcGU6Y29ubmVjdG9yLWN1cnZhdHVyZT0iMCIgc3R5bGU9ImZpbGw6I0Y5RjlGOTtmaWxsLW9wYWNpdHk6MC43NjtzdHJva2U6IzEwMDAwMDtzdHJva2Utd2lkdGg6MC40MDY0O3N0cm9rZS1saW5lY2FwOnNxdWFyZTtzdHJva2UtbWl0ZXJsaW1pdDozO3N0cm9rZS1vcGFjaXR5OjAuNzY7IiBkPSIgIE0zNS42MSwzMC4zM2MwLDAuMzctMC4zLDAuNjctMC42NiwwLjY3Yy0wLjM3LDAtMC42Ny0wLjMtMC42Ny0wLjY3YzAtMC4zNiwwLjMtMC42NiwwLjY3LTAuNjZDMzUuMzEsMjkuNjcsMzUuNjEsMjkuOTcsMzUuNjEsMzAuMzMgIHoiLz4mI3hhOzxwYXRoIGlkPSJwYXRoMTc5NTgiIGlua3NjYXBlOmNvbm5lY3Rvci1jdXJ2YXR1cmU9IjAiIHN0eWxlPSJzdHJva2U6I0ZGMDAwMDtzdHJva2Utd2lkdGg6MC4wNDE1O3N0cm9rZS1saW5lY2FwOnNxdWFyZTtzdHJva2UtbWl0ZXJsaW1pdDozOyIgZD0iICBNMTkuNjMsMzIuMjZjMCwxLjY5LTEuMzcsMy4wNi0zLjA1LDMuMDZjLTEuNjksMC0zLjA2LTEuMzctMy4wNi0zLjA2YzAtMS42OSwxLjM3LTMuMDUsMy4wNi0zLjA1ICBDMTguMjYsMjkuMjEsMTkuNjMsMzAuNTcsMTkuNjMsMzIuMjZ6Ii8+JiN4YTs8cGF0aCBpZD0icGF0aDE3OTYzIiBpbmtzY2FwZTpjb25uZWN0b3ItY3VydmF0dXJlPSIwIiBzdHlsZT0iZmlsbDojQzZEMkQyO3N0cm9rZTojRkYwMDAwO3N0cm9rZS13aWR0aDowLjAzMzg7c3Ryb2tlLWxpbmVjYXA6c3F1YXJlO3N0cm9rZS1taXRlcmxpbWl0OjM7IiBkPSIgIE0xOS4wNywzMi4yNmMwLDEuMzctMS4xMiwyLjQ5LTIuNDksMi40OWMtMS4zOCwwLTIuNDktMS4xMi0yLjQ5LTIuNDljMC0xLjM3LDEuMTEtMi40OSwyLjQ5LTIuNDkgIEMxNy45NSwyOS43NywxOS4wNywzMC44OSwxOS4wNywzMi4yNnoiLz4mI3hhOzxwYXRoIGlkPSJwYXRoMTc5NjgiIGlua3NjYXBlOmNvbm5lY3Rvci1jdXJ2YXR1cmU9IjAiIHN0eWxlPSJmaWxsOiM0RDRENEQ7c3Ryb2tlOiNGRjAwMDA7c3Ryb2tlLXdpZHRoOjAuMDMzODtzdHJva2UtbGluZWNhcDpzcXVhcmU7c3Ryb2tlLW1pdGVybGltaXQ6MzsiIGQ9IiAgTTE4Ljg1LDMyLjI1YzAsMS4yNS0xLjAyLDIuMjctMi4yNywyLjI3cy0yLjI3LTEuMDItMi4yNy0yLjI3YzAtMS4yNiwxLjAyLTIuMjcsMi4yNy0yLjI3UzE4Ljg1LDMwLjk5LDE4Ljg1LDMyLjI1eiIvPiYjeGE7PHBhdGggaWQ9InBhdGgxNzk3MyIgaW5rc2NhcGU6Y29ubmVjdG9yLWN1cnZhdHVyZT0iMCIgc3R5bGU9ImZpbGw6I0IzQjNCMztzdHJva2U6I0ZGMDAwMDtzdHJva2Utd2lkdGg6MC4wMzM4O3N0cm9rZS1saW5lY2FwOnNxdWFyZTtzdHJva2UtbWl0ZXJsaW1pdDozOyIgZD0iICBNMTcuMzIsMzIuMjVjMCwwLjQxLTAuMzMsMC43NC0wLjc0LDAuNzRjLTAuNCwwLTAuNzMtMC4zMy0wLjczLTAuNzRjMC0wLjQsMC4zMy0wLjczLDAuNzMtMC43MyAgQzE2Ljk5LDMxLjUyLDE3LjMyLDMxLjg1LDE3LjMyLDMyLjI1eiIvPiYjeGE7PHBhdGggaWQ9InBhdGgxNzk3OCIgaW5rc2NhcGU6Y29ubmVjdG9yLWN1cnZhdHVyZT0iMCIgc3R5bGU9ImZpbGw6I0NDQ0NDQztzdHJva2U6I0ZGMDAwMDtzdHJva2Utd2lkdGg6MC4wMzM4O3N0cm9rZS1saW5lY2FwOnNxdWFyZTtzdHJva2UtbWl0ZXJsaW1pdDozOyIgZD0iICBNMTYuODIsMzIuMjZsMC4zNywyLjMyaC0wLjM3Yy0wLjA0LTAuMTItMC4wMi0wLjI4LTAuMjQtMC4yNXYtMi4wN0gxNi44MnoiLz4mI3hhOzxwYXRoIGlkPSJwYXRoMTc5ODMiIGlua3NjYXBlOmNvbm5lY3Rvci1jdXJ2YXR1cmU9IjAiIHN0eWxlPSJmaWxsOiNDQ0NDQ0M7c3Ryb2tlOiNGRjAwMDA7c3Ryb2tlLXdpZHRoOjAuMDMzODtzdHJva2UtbGluZWNhcDpzcXVhcmU7c3Ryb2tlLW1pdGVybGltaXQ6MzsiIGQ9IiAgTTE2LjgyLDMyLjI1bDAuMzcsMi4zM2MtMC4xMSwwLjAyLTAuMjIsMC4wNS0wLjM3LDAuMDZjLTAuMDQtMC4xMi0wLjAyLTAuMzQtMC4yNC0wLjMxdi0yLjA4TDE2LjgyLDMyLjI1eiIvPiYjeGE7PHBhdGggaWQ9InBhdGgxNzk4OCIgaW5rc2NhcGU6Y29ubmVjdG9yLWN1cnZhdHVyZT0iMCIgc3R5bGU9ImZpbGw6I0NDQ0NDQztzdHJva2U6I0ZGMDAwMDtzdHJva2Utd2lkdGg6MC4wMzM4O3N0cm9rZS1saW5lY2FwOnNxdWFyZTtzdHJva2UtbWl0ZXJsaW1pdDozOyIgZD0iICBNMTYuMzQsMzIuMjVsLTAuMzcsMi4zM2MwLjExLDAuMDIsMC4yMiwwLjA1LDAuMzcsMC4wNmMwLjA0LTAuMTIsMC4wMi0wLjM0LDAuMjQtMC4zMXYtMi4wOEwxNi4zNCwzMi4yNXoiLz4mI3hhOzxwYXRoIGlkPSJwYXRoMTc5OTUiIGlua3NjYXBlOmNvbm5lY3Rvci1jdXJ2YXR1cmU9IjAiIHN0eWxlPSJmaWxsOiNDQ0NDQ0M7IiBkPSJNMTYuODIsMzIuMjVsMC4zNywyLjMzICBjLTAuMTEsMC4wMi0wLjIyLDAuMDUtMC4zNywwLjA2Yy0wLjA0LTAuMTItMC4wMi0wLjM0LTAuMjQtMC4zMXYtMi4wOEwxNi44MiwzMi4yNXoiLz4mI3hhOzxwYXRoIGlkPSJwYXRoMTgwMDAiIGlua3NjYXBlOmNvbm5lY3Rvci1jdXJ2YXR1cmU9IjAiIHN0eWxlPSJmaWxsOiNDQ0NDQ0M7IiBkPSJNMTYuNjIsMzIuNDZsLTIuMSwxLjA3ICBjLTAuMDUtMC4xLTAuMTItMC4xOS0wLjE3LTAuMzNjMC4xLTAuMDgsMC4zMi0wLjEyLDAuMjItMC4zMmwxLjk4LTAuNjRMMTYuNjIsMzIuNDZ6Ii8+JiN4YTs8cGF0aCBpZD0icGF0aDE4MDA1IiBpbmtzY2FwZTpjb25uZWN0b3ItY3VydmF0dXJlPSIwIiBzdHlsZT0iZmlsbDojQ0NDQ0NDOyIgZD0iTTE2LjM3LDMyLjMzbC0xLjY3LTEuNjcgIGMwLjA4LTAuMDgsMC4xNS0wLjE3LDAuMjYtMC4yN2MwLjEsMC4wNywwLjIyLDAuMjYsMC4zOCwwLjExbDEuMjIsMS42OEwxNi4zNywzMi4zM3oiLz4mI3hhOzxwYXRoIGlkPSJwYXRoMTgwMTAiIGlua3NjYXBlOmNvbm5lY3Rvci1jdXJ2YXR1cmU9IjAiIHN0eWxlPSJmaWxsOiNDQ0NDQ0M7IiBkPSJNMTYuNDEsMzIuMDVsMS4wNy0yLjEgIGMwLjEsMC4wNSwwLjIxLDAuMDksMC4zMywwLjE3Yy0wLjA0LDAuMTItMC4xOCwwLjI5LDAuMDEsMC4zOWwtMS4yMiwxLjY4TDE2LjQxLDMyLjA1eiIvPiYjeGE7PHBhdGggaWQ9InBhdGgxODAxNSIgaW5rc2NhcGU6Y29ubmVjdG9yLWN1cnZhdHVyZT0iMCIgc3R5bGU9ImZpbGw6I0NDQ0NDQzsiIGQ9Ik0xNi42OSwzMmwyLjMzLDAuMzdDMTksMzIuNDgsMTksMzIuNiwxOC45NiwzMi43NCAgYy0wLjEzLDAtMC4zMy0wLjA5LTAuMzcsMC4xM2wtMS45OC0wLjY0TDE2LjY5LDMyeiIvPiYjeGE7PHBhdGggaWQ9InBhdGgxODAyMCIgaW5rc2NhcGU6Y29ubmVjdG9yLWN1cnZhdHVyZT0iMCIgc3R5bGU9ImZpbGw6I0NDQ0NDQzsiIGQ9Ik0xNi4zNCwzMi4yNWwtMC4zNywyLjMzICBjMC4xMSwwLjAyLDAuMjIsMC4wNSwwLjM3LDAuMDZjMC4wNC0wLjEyLDAuMDItMC4zNCwwLjI0LTAuMzF2LTIuMDhMMTYuMzQsMzIuMjV6Ii8+JiN4YTs8cGF0aCBpZD0icGF0aDE4MDI1IiBpbmtzY2FwZTpjb25uZWN0b3ItY3VydmF0dXJlPSIwIiBzdHlsZT0iZmlsbDojQ0NDQ0NDOyIgZD0iTTE2LjQ4LDMybC0yLjMzLDAuMzcgIGMwLjAxLDAuMTEsMC4wMiwwLjIyLDAuMDYsMC4zN2MwLjEzLDAsMC4zMy0wLjA5LDAuMzcsMC4xM2wxLjk4LTAuNjRMMTYuNDgsMzJ6Ii8+JiN4YTs8cGF0aCBpZD0icGF0aDE4MDMwIiBpbmtzY2FwZTpjb25uZWN0b3ItY3VydmF0dXJlPSIwIiBzdHlsZT0iZmlsbDojQ0NDQ0NDOyIgZD0iTTE2Ljc2LDMyLjA1bC0xLjA3LTIuMSAgYy0wLjEsMC4wNS0wLjIxLDAuMDktMC4zMywwLjE3YzAuMDQsMC4xMiwwLjE4LDAuMjktMC4wMSwwLjM5bDEuMjIsMS42OEwxNi43NiwzMi4wNXoiLz4mI3hhOzxwYXRoIGlkPSJwYXRoMTgwMzUiIGlua3NjYXBlOmNvbm5lY3Rvci1jdXJ2YXR1cmU9IjAiIHN0eWxlPSJmaWxsOiNDQ0NDQ0M7IiBkPSJNMTYuOCwzMi4zNGwxLjY3LTEuNjcgIGMtMC4wOC0wLjA4LTAuMTUtMC4xNy0wLjI2LTAuMjdjLTAuMSwwLjA3LTAuMjIsMC4yNi0wLjM4LDAuMTFsLTEuMjIsMS42OEwxNi44LDMyLjM0eiIvPiYjeGE7PHBhdGggaWQ9InBhdGgxODA0MCIgaW5rc2NhcGU6Y29ubmVjdG9yLWN1cnZhdHVyZT0iMCIgc3R5bGU9ImZpbGw6I0NDQ0NDQzsiIGQ9Ik0xNi41NCwzMi40NmwyLjEsMS4wNyAgYzAuMDUtMC4xLDAuMTItMC4xOSwwLjE3LTAuMzNjLTAuMS0wLjA4LTAuMzItMC4xMi0wLjIyLTAuMzJsLTEuOTgtMC42NEwxNi41NCwzMi40NnoiLz4mI3hhOzxwYXRoIGlkPSJwYXRoMTgwNDYiIGlua3NjYXBlOmNvbm5lY3Rvci1jdXJ2YXR1cmU9IjAiIGQ9Ik0xNi43LDMyLjc0bC0wLjE3LDAuMDVsLTAuMTItMC4xMmwwLjA0LTAuMTdsMC4xNy0wLjA1bDAuMTIsMC4xMyAgTDE2LjcsMzIuNzR6Ii8+JiN4YTs8cGF0aCBpZD0icGF0aDE4MDUzIiBpbmtzY2FwZTpjb25uZWN0b3ItY3VydmF0dXJlPSIwIiBkPSJNMTYuNywzMi43NGwtMC4xNywwLjA1bC0wLjEyLTAuMTJsMC4wNC0wLjE3bDAuMTctMC4wNWwwLjEyLDAuMTMgIEwxNi43LDMyLjc0eiIvPiYjeGE7PHBhdGggaWQ9InBhdGgxODA1OCIgaW5rc2NhcGU6Y29ubmVjdG9yLWN1cnZhdHVyZT0iMCIgZD0iTTE2LjEyLDMyLjVsLTAuMS0wLjE1bDAuMDgtMC4xNWwwLjE3LTAuMDFsMC4xLDAuMTVsLTAuMDksMC4xNSAgTDE2LjEyLDMyLjV6Ii8+JiN4YTs8cGF0aCBpZD0icGF0aDE4MDYzIiBpbmtzY2FwZTpjb25uZWN0b3ItY3VydmF0dXJlPSIwIiBkPSJNMTYuMTcsMzEuODdsMC4xMS0wLjE0bDAuMTcsMC4wM2wwLjA3LDAuMTZsLTAuMTEsMC4xNGwtMC4xNy0wLjAzICBMMTYuMTcsMzEuODd6Ii8+JiN4YTs8cGF0aCBpZD0icGF0aDE4MDY4IiBpbmtzY2FwZTpjb25uZWN0b3ItY3VydmF0dXJlPSIwIiBkPSJNMTYuNzksMzEuNzNsMC4xNywwLjA2bDAuMDMsMC4xN2wtMC4xMywwLjExbC0wLjE3LTAuMDZsLTAuMDItMC4xOCAgTDE2Ljc5LDMxLjczeiIvPiYjeGE7PHBhdGggaWQ9InBhdGgxODA3MyIgaW5rc2NhcGU6Y29ubmVjdG9yLWN1cnZhdHVyZT0iMCIgZD0iTTE3LjEyLDMyLjI3bDAsMC4xOGwtMC4xNSwwLjA4bC0wLjE1LTAuMDlsMC0wLjE4bDAuMTYtMC4wN0wxNy4xMiwzMi4yN3ogICIvPiYjeGE7PHBhdGggaWQ9InBhdGgxODA4MSIgaW5rc2NhcGU6Y29ubmVjdG9yLWN1cnZhdHVyZT0iMCIgZD0iTTE2LjUyLDMyLjI4aDAuMDFjMCwwLjAxLTAuMDEsMC4wMi0wLjAxLDAuMDMgIGMtMC4wMSwwLjAxLTAuMDIsMC4wMS0wLjAzLDAuMDFzLTAuMDIsMC0wLjAzLTAuMDFjLTAuMDEsMC0wLjAxLTAuMDEtMC4wMS0wLjAyYy0wLjAxLTAuMDEtMC4wMS0wLjAyLTAuMDEtMC4wM3MwLTAuMDIsMC4wMS0wLjAzICBsMC4wMS0wLjAxYzAuMDEtMC4wMSwwLjAyLTAuMDEsMC4wMy0wLjAxczAuMDIsMCwwLjAzLDAuMDFjMCwwLDAuMDEsMC4wMSwwLjAxLDAuMDJoLTAuMDFjLTAuMDEsMC0wLjAxLTAuMDEtMC4wMS0wLjAxICBjLTAuMDEtMC4wMS0wLjAxLTAuMDEtMC4wMi0wLjAxcy0wLjAyLDAtMC4wMiwwLjAxYy0wLjAxLDAtMC4wMSwwLjAxLTAuMDEsMC4wMWMwLDAuMDEtMC4wMSwwLjAyLTAuMDEsMC4wMiAgYzAsMC4wMSwwLjAxLDAuMDIsMC4wMSwwLjAzYzAsMCwwLDAuMDEsMC4wMSwwLjAxczAuMDEsMC4wMSwwLjAyLDAuMDFzMC4wMS0wLjAxLDAuMDItMC4wMUMxNi41MSwzMi4zLDE2LjUyLDMyLjI5LDE2LjUyLDMyLjI4eiIvPiYjeGE7PHBhdGggaWQ9InBhdGgxODA4NiIgaW5rc2NhcGU6Y29ubmVjdG9yLWN1cnZhdHVyZT0iMCIgZD0iTTE2LjU0LDMyLjMybDAuMDQtMC4xMWgwLjAybDAuMDQsMC4xMWgtMC4wMmwtMC4wMS0wLjAzaC0wLjA0bC0wLjAyLDAuMDMgIEgxNi41NHogTTE2LjU3LDMyLjI4aDAuMDRsLTAuMDItMC4wM2MwLTAuMDEsMC0wLjAyLDAtMC4wM2MwLDAuMDEtMC4wMSwwLjAyLTAuMDEsMC4wMkwxNi41NywzMi4yOHoiLz4mI3hhOzxwYXRoIGlkPSJwYXRoMTgwOTEiIGlua3NjYXBlOmNvbm5lY3Rvci1jdXJ2YXR1cmU9IjAiIGQ9Ik0xNi42NSwzMi4zMnYtMC4xMWgwLjA1YzAuMDEsMCwwLjAxLDAsMC4wMiwwLjAxYzAsMCwwLjAxLDAsMC4wMSwwLjAxICB2MC4wMWMwLDAuMDEsMCwwLjAyLDAsMC4wMmMtMC4wMSwwLjAxLTAuMDIsMC4wMS0wLjAzLDAuMDFjMC4wMSwwLDAuMDEsMCwwLjAxLDAuMDFjMC4wMSwwLDAuMDEsMCwwLjAxLDAuMDFsMC4wMiwwLjAzaC0wLjAxICBsLTAuMDItMC4wMmMwLTAuMDEtMC4wMS0wLjAxLTAuMDEtMC4wMmMwLDAsMCwwLTAuMDEsMGMwLTAuMDEsMC0wLjAxLDAtMC4wMWgtMC4wMWgtMC4wMkwxNi42NSwzMi4zMkwxNi42NSwzMi4zMnogTTE2LjY2LDMyLjI2ICBoMC4wM2MwLjAxLDAsMC4wMiwwLDAuMDIsMHMwLTAuMDEsMC4wMS0wLjAxYzAsMCwwLDAsMC0wLjAxYzAsMCwwLTAuMDEtMC4wMS0wLjAxSDE2LjdoLTAuMDRWMzIuMjZ6Ii8+JiN4YTs8cGF0aCBpZD0icGF0aDE4MTAwIiBpbmtzY2FwZTpjb25uZWN0b3ItY3VydmF0dXJlPSIwIiBzdHlsZT0ic3Ryb2tlOiNGRjAwMDA7c3Ryb2tlLXdpZHRoOjAuMDQxNTtzdHJva2UtbGluZWNhcDpzcXVhcmU7c3Ryb2tlLW1pdGVybGltaXQ6MzsiIGQ9IiAgTTQyLjE0LDMyLjNjMCwxLjY5LTEuMzcsMy4wNi0zLjA1LDMuMDZjLTEuNjksMC0zLjA2LTEuMzctMy4wNi0zLjA2YzAtMS42OSwxLjM3LTMuMDUsMy4wNi0zLjA1ICBDNDAuNzcsMjkuMjUsNDIuMTQsMzAuNjEsNDIuMTQsMzIuM3oiLz4mI3hhOzxwYXRoIGlkPSJwYXRoMTgxMDUiIGlua3NjYXBlOmNvbm5lY3Rvci1jdXJ2YXR1cmU9IjAiIHN0eWxlPSJmaWxsOiNDNkQyRDI7c3Ryb2tlOiNGRjAwMDA7c3Ryb2tlLXdpZHRoOjAuMDMzODtzdHJva2UtbGluZWNhcDpzcXVhcmU7c3Ryb2tlLW1pdGVybGltaXQ6MzsiIGQ9IiAgTTQxLjU4LDMyLjNjMCwxLjM3LTEuMTIsMi40OS0yLjQ5LDIuNDljLTEuMzgsMC0yLjQ5LTEuMTItMi40OS0yLjQ5YzAtMS4zNywxLjExLTIuNDksMi40OS0yLjQ5ICBDNDAuNDYsMjkuODEsNDEuNTgsMzAuOTMsNDEuNTgsMzIuM3oiLz4mI3hhOzxwYXRoIGlkPSJwYXRoMTgxMTAiIGlua3NjYXBlOmNvbm5lY3Rvci1jdXJ2YXR1cmU9IjAiIHN0eWxlPSJmaWxsOiM0RDRENEQ7c3Ryb2tlOiNGRjAwMDA7c3Ryb2tlLXdpZHRoOjAuMDMzODtzdHJva2UtbGluZWNhcDpzcXVhcmU7c3Ryb2tlLW1pdGVybGltaXQ6MzsiIGQ9IiAgTTQxLjM2LDMyLjNjMCwxLjI1LTEuMDIsMi4yNy0yLjI3LDIuMjdzLTIuMjctMS4wMi0yLjI3LTIuMjdjMC0xLjI2LDEuMDItMi4yNywyLjI3LTIuMjdTNDEuMzYsMzEuMDQsNDEuMzYsMzIuM3oiLz4mI3hhOzxwYXRoIGlkPSJwYXRoMTgxMTUiIGlua3NjYXBlOmNvbm5lY3Rvci1jdXJ2YXR1cmU9IjAiIHN0eWxlPSJmaWxsOiNCM0IzQjM7c3Ryb2tlOiNGRjAwMDA7c3Ryb2tlLXdpZHRoOjAuMDMzODtzdHJva2UtbGluZWNhcDpzcXVhcmU7c3Ryb2tlLW1pdGVybGltaXQ6MzsiIGQ9IiAgTTM5LjgzLDMyLjNjMCwwLjQxLTAuMzMsMC43NC0wLjc0LDAuNzRjLTAuNCwwLTAuNzMtMC4zMy0wLjczLTAuNzRjMC0wLjQsMC4zMy0wLjczLDAuNzMtMC43M0MzOS41LDMxLjU3LDM5LjgzLDMxLjksMzkuODMsMzIuM3oiLz4mI3hhOzxwYXRoIGlkPSJwYXRoMTgxMjAiIGlua3NjYXBlOmNvbm5lY3Rvci1jdXJ2YXR1cmU9IjAiIHN0eWxlPSJmaWxsOiNDQ0NDQ0M7c3Ryb2tlOiNGRjAwMDA7c3Ryb2tlLXdpZHRoOjAuMDMzODtzdHJva2UtbGluZWNhcDpzcXVhcmU7c3Ryb2tlLW1pdGVybGltaXQ6MzsiIGQ9IiAgTTM5LjMzLDMyLjMxbDAuMzcsMi4zMmgtMC4zN2MtMC4wNC0wLjEyLTAuMDItMC4yOC0wLjI0LTAuMjV2LTIuMDdIMzkuMzN6Ii8+JiN4YTs8cGF0aCBpZD0icGF0aDE4MTI1IiBpbmtzY2FwZTpjb25uZWN0b3ItY3VydmF0dXJlPSIwIiBzdHlsZT0iZmlsbDojQ0NDQ0NDO3N0cm9rZTojRkYwMDAwO3N0cm9rZS13aWR0aDowLjAzMzg7c3Ryb2tlLWxpbmVjYXA6c3F1YXJlO3N0cm9rZS1taXRlcmxpbWl0OjM7IiBkPSIgIE0zOS4zMywzMi4zbDAuMzcsMi4zM2MtMC4xMSwwLjAyLTAuMjIsMC4wNS0wLjM3LDAuMDZjLTAuMDQtMC4xMi0wLjAyLTAuMzQtMC4yNC0wLjMxVjMyLjNMMzkuMzMsMzIuM3oiLz4mI3hhOzxwYXRoIGlkPSJwYXRoMTgxMzAiIGlua3NjYXBlOmNvbm5lY3Rvci1jdXJ2YXR1cmU9IjAiIHN0eWxlPSJmaWxsOiNDQ0NDQ0M7c3Ryb2tlOiNGRjAwMDA7c3Ryb2tlLXdpZHRoOjAuMDMzODtzdHJva2UtbGluZWNhcDpzcXVhcmU7c3Ryb2tlLW1pdGVybGltaXQ6MzsiIGQ9IiAgTTM4Ljg1LDMyLjNsLTAuMzcsMi4zM2MwLjExLDAuMDIsMC4yMiwwLjA1LDAuMzcsMC4wNmMwLjA0LTAuMTIsMC4wMi0wLjM0LDAuMjQtMC4zMVYzMi4zTDM4Ljg1LDMyLjN6Ii8+JiN4YTs8cGF0aCBpZD0icGF0aDE4MTM3IiBpbmtzY2FwZTpjb25uZWN0b3ItY3VydmF0dXJlPSIwIiBzdHlsZT0iZmlsbDojQ0NDQ0NDOyIgZD0iTTM5LjMzLDMyLjNsMC4zNywyLjMzICBjLTAuMTEsMC4wMi0wLjIyLDAuMDUtMC4zNywwLjA2Yy0wLjA0LTAuMTItMC4wMi0wLjM0LTAuMjQtMC4zMVYzMi4zTDM5LjMzLDMyLjN6Ii8+JiN4YTs8cGF0aCBpZD0icGF0aDE4MTQyIiBpbmtzY2FwZTpjb25uZWN0b3ItY3VydmF0dXJlPSIwIiBzdHlsZT0iZmlsbDojQ0NDQ0NDOyIgZD0iTTM5LjEzLDMyLjVsLTIuMSwxLjA3ICBjLTAuMDUtMC4xLTAuMTItMC4xOS0wLjE3LTAuMzNjMC4xLTAuMDgsMC4zMi0wLjEyLDAuMjItMC4zMmwxLjk4LTAuNjRMMzkuMTMsMzIuNXoiLz4mI3hhOzxwYXRoIGlkPSJwYXRoMTgxNDciIGlua3NjYXBlOmNvbm5lY3Rvci1jdXJ2YXR1cmU9IjAiIHN0eWxlPSJmaWxsOiNDQ0NDQ0M7IiBkPSJNMzguODgsMzIuMzhsLTEuNjctMS42NyAgYzAuMDgtMC4wOCwwLjE1LTAuMTcsMC4yNi0wLjI3YzAuMSwwLjA3LDAuMjIsMC4yNiwwLjM4LDAuMTFsMS4yMiwxLjY4TDM4Ljg4LDMyLjM4eiIvPiYjeGE7PHBhdGggaWQ9InBhdGgxODE1MiIgaW5rc2NhcGU6Y29ubmVjdG9yLWN1cnZhdHVyZT0iMCIgc3R5bGU9ImZpbGw6I0NDQ0NDQzsiIGQ9Ik0zOC45MiwzMi4xbDEuMDctMi4xYzAuMSwwLjA1LDAuMjEsMC4wOSwwLjMzLDAuMTcgIGMtMC4wNCwwLjEyLTAuMTgsMC4yOSwwLjAxLDAuMzlsLTEuMjIsMS42OEwzOC45MiwzMi4xeiIvPiYjeGE7PHBhdGggaWQ9InBhdGgxODE1NyIgaW5rc2NhcGU6Y29ubmVjdG9yLWN1cnZhdHVyZT0iMCIgc3R5bGU9ImZpbGw6I0NDQ0NDQzsiIGQ9Ik0zOS4yLDMyLjA1bDIuMzMsMC4zNyAgYy0wLjAxLDAuMTEtMC4wMiwwLjIyLTAuMDYsMC4zN2MtMC4xMywwLTAuMzMtMC4wOS0wLjM3LDAuMTNsLTEuOTgtMC42NEwzOS4yLDMyLjA1eiIvPiYjeGE7PHBhdGggaWQ9InBhdGgxODE2MiIgaW5rc2NhcGU6Y29ubmVjdG9yLWN1cnZhdHVyZT0iMCIgc3R5bGU9ImZpbGw6I0NDQ0NDQzsiIGQ9Ik0zOC44NSwzMi4zbC0wLjM3LDIuMzMgIGMwLjExLDAuMDIsMC4yMiwwLjA1LDAuMzcsMC4wNmMwLjA0LTAuMTIsMC4wMi0wLjM0LDAuMjQtMC4zMVYzMi4zTDM4Ljg1LDMyLjN6Ii8+JiN4YTs8cGF0aCBpZD0icGF0aDE4MTY3IiBpbmtzY2FwZTpjb25uZWN0b3ItY3VydmF0dXJlPSIwIiBzdHlsZT0iZmlsbDojQ0NDQ0NDOyIgZD0iTTM4Ljk4LDMyLjA1bC0yLjMzLDAuMzcgIGMwLjAxLDAuMTEsMC4wMiwwLjIyLDAuMDYsMC4zN2MwLjEzLDAsMC4zMy0wLjA5LDAuMzcsMC4xM2wxLjk4LTAuNjRMMzguOTgsMzIuMDV6Ii8+JiN4YTs8cGF0aCBpZD0icGF0aDE4MTcyIiBpbmtzY2FwZTpjb25uZWN0b3ItY3VydmF0dXJlPSIwIiBzdHlsZT0iZmlsbDojQ0NDQ0NDOyIgZD0iTTM5LjI3LDMyLjFsLTEuMDctMi4xICBjLTAuMSwwLjA1LTAuMjEsMC4wOS0wLjMzLDAuMTdjMC4wNCwwLjEyLDAuMTgsMC4yOS0wLjAxLDAuMzlsMS4yMiwxLjY4TDM5LjI3LDMyLjF6Ii8+JiN4YTs8cGF0aCBpZD0icGF0aDE4MTc3IiBpbmtzY2FwZTpjb25uZWN0b3ItY3VydmF0dXJlPSIwIiBzdHlsZT0iZmlsbDojQ0NDQ0NDOyIgZD0iTTM5LjMxLDMyLjM4bDEuNjctMS42NyAgYy0wLjA4LTAuMDgtMC4xNS0wLjE3LTAuMjYtMC4yN2MtMC4xLDAuMDctMC4yMiwwLjI2LTAuMzgsMC4xMWwtMS4yMiwxLjY4TDM5LjMxLDMyLjM4eiIvPiYjeGE7PHBhdGggaWQ9InBhdGgxODE4MiIgaW5rc2NhcGU6Y29ubmVjdG9yLWN1cnZhdHVyZT0iMCIgc3R5bGU9ImZpbGw6I0NDQ0NDQzsiIGQ9Ik0zOS4wNSwzMi41MWwyLjEsMS4wNyAgYzAuMDUtMC4xLDAuMTItMC4xOSwwLjE3LTAuMzNjLTAuMS0wLjA4LTAuMzItMC4xMi0wLjIyLTAuMzJsLTEuOTgtMC42NEwzOS4wNSwzMi41MXoiLz4mI3hhOzxwYXRoIGlkPSJwYXRoMTgxODgiIGlua3NjYXBlOmNvbm5lY3Rvci1jdXJ2YXR1cmU9IjAiIGQ9Ik0zOS4yMSwzMi43OWwtMC4xNywwLjA1bC0wLjEyLTAuMTJsMC4wNC0wLjE3bDAuMTctMC4wNWwwLjEyLDAuMTMgIEwzOS4yMSwzMi43OXoiLz4mI3hhOzxwYXRoIGlkPSJwYXRoMTgxOTUiIGlua3NjYXBlOmNvbm5lY3Rvci1jdXJ2YXR1cmU9IjAiIGQ9Ik0zOS4yMSwzMi43OWwtMC4xNywwLjA1bC0wLjEyLTAuMTJsMC4wNC0wLjE3bDAuMTctMC4wNWwwLjEyLDAuMTMgIEwzOS4yMSwzMi43OXoiLz4mI3hhOzxwYXRoIGlkPSJwYXRoMTgyMDAiIGlua3NjYXBlOmNvbm5lY3Rvci1jdXJ2YXR1cmU9IjAiIGQ9Ik0zOC42MywzMi41NGwtMC4xLTAuMTVsMC4wOC0wLjE1bDAuMTctMC4wMWwwLjEsMC4xNWwtMC4wOSwwLjE1ICBMMzguNjMsMzIuNTR6Ii8+JiN4YTs8cGF0aCBpZD0icGF0aDE4MjA1IiBpbmtzY2FwZTpjb25uZWN0b3ItY3VydmF0dXJlPSIwIiBkPSJNMzguNjgsMzEuOTFsMC4xMS0wLjE0bDAuMTcsMC4wM2wwLjA3LDAuMTZsLTAuMTEsMC4xNGwtMC4xNy0wLjAzICBMMzguNjgsMzEuOTF6Ii8+JiN4YTs8cGF0aCBpZD0icGF0aDE4MjEwIiBpbmtzY2FwZTpjb25uZWN0b3ItY3VydmF0dXJlPSIwIiBkPSJNMzkuMywzMS43N2wwLjE3LDAuMDZMMzkuNDksMzJsLTAuMTMsMC4xMWwtMC4xNy0wLjA2bC0wLjAyLTAuMTggIEwzOS4zLDMxLjc3eiIvPiYjeGE7PHBhdGggaWQ9InBhdGgxODIxNSIgaW5rc2NhcGU6Y29ubmVjdG9yLWN1cnZhdHVyZT0iMCIgZD0iTTM5LjYzLDMyLjMxbC0wLjAxLDAuMThsLTAuMTUsMC4wOGwtMC4xNS0wLjA5bDAuMDEtMC4xOGwwLjE2LTAuMDcgIEwzOS42MywzMi4zMXoiLz4mI3hhOzxwYXRoIGlkPSJwYXRoMTgyMjMiIGlua3NjYXBlOmNvbm5lY3Rvci1jdXJ2YXR1cmU9IjAiIGQ9Ik0zOS4wMywzMi4zMkwzOS4wMywzMi4zMmMwLjAxLDAuMDEsMCwwLjAyLDAsMC4wMyAgYy0wLjAxLDAuMDEtMC4wMiwwLjAxLTAuMDMsMC4wMXMtMC4wMiwwLTAuMDMtMC4wMWMtMC4wMSwwLTAuMDEtMC4wMS0wLjAxLTAuMDJjLTAuMDEtMC4wMS0wLjAxLTAuMDItMC4wMS0wLjAzczAtMC4wMiwwLjAxLTAuMDMgIGwwLjAxLTAuMDFjMC4wMS0wLjAxLDAuMDItMC4wMSwwLjAzLTAuMDFzMC4wMiwwLDAuMDMsMC4wMWMwLDAsMC4wMSwwLjAxLDAuMDEsMC4wMmgtMC4wMWMtMC4wMSwwLTAuMDEtMC4wMS0wLjAxLTAuMDEgIGMtMC4wMS0wLjAxLTAuMDEtMC4wMS0wLjAyLTAuMDFjLTAuMDEsMC0wLjAyLDAtMC4wMiwwLjAxYy0wLjAxLDAtMC4wMSwwLjAxLTAuMDEsMC4wMWMwLDAuMDEtMC4wMSwwLjAyLTAuMDEsMC4wMiAgYzAsMC4wMSwwLjAxLDAuMDIsMC4wMSwwLjAzYzAsMCwwLDAuMDEsMC4wMSwwLjAxczAuMDEsMC4wMSwwLjAyLDAuMDFjMC4wMSwwLDAuMDEtMC4wMSwwLjAyLTAuMDEgIEMzOS4wMiwzMi4zNCwzOS4wMywzMi4zMywzOS4wMywzMi4zMnoiLz4mI3hhOzxwYXRoIGlkPSJwYXRoMTgyMjgiIGlua3NjYXBlOmNvbm5lY3Rvci1jdXJ2YXR1cmU9IjAiIGQ9Ik0zOS4wNSwzMi4zNmwwLjA0LTAuMTFoMC4wMmwwLjA0LDAuMTFoLTAuMDJsLTAuMDEtMC4wM2gtMC4wNGwtMC4wMiwwLjAzICBIMzkuMDV6IE0zOS4wOCwzMi4zMmgwLjA0bC0wLjAyLTAuMDNjMC0wLjAxLDAtMC4wMiwwLTAuMDNjMCwwLjAxLTAuMDEsMC4wMi0wLjAxLDAuMDJMMzkuMDgsMzIuMzJ6Ii8+JiN4YTs8cGF0aCBpZD0icGF0aDE4MjMzIiBpbmtzY2FwZTpjb25uZWN0b3ItY3VydmF0dXJlPSIwIiBkPSJNMzkuMTYsMzIuMzZ2LTAuMTFoMC4wNWMwLjAxLDAsMC4wMSwwLDAuMDIsMC4wMWMwLDAsMC4wMSwwLDAuMDEsMC4wMSAgdjAuMDFjMCwwLjAxLDAsMC4wMiwwLDAuMDJjLTAuMDEsMC4wMS0wLjAyLDAuMDEtMC4wMywwLjAxYzAuMDEsMCwwLjAxLDAsMC4wMSwwLjAxYzAuMDEsMCwwLjAxLDAsMC4wMSwwLjAxbDAuMDIsMC4wM2gtMC4wMSAgbC0wLjAyLTAuMDJjMC0wLjAxLTAuMDEtMC4wMS0wLjAxLTAuMDJjMCwwLDAsMC0wLjAxLDBjMC0wLjAxLDAtMC4wMSwwLTAuMDFoLTAuMDFoLTAuMDJ2MC4wNUwzOS4xNiwzMi4zNnogTTM5LjE3LDMyLjNoMC4wMyAgYzAuMDEsMCwwLjAyLDAsMC4wMiwwczAtMC4wMSwwLjAxLTAuMDFjMCwwLDAsMCwwLTAuMDFjMCwwLDAtMC4wMS0wLjAxLTAuMDFoLTAuMDFoLTAuMDRWMzIuM3oiLz4mI3hhOzxwYXRoIGlkPSJwYXRoMTgyNDQiIGlua3NjYXBlOmNvbm5lY3Rvci1jdXJ2YXR1cmU9IjAiIHN0eWxlPSJmaWxsOiNFN0U3RTc7ZmlsbC1vcGFjaXR5OjAuNjsiIGQ9Ik03MC4yNSw0My43OCAgYy0yLjI2LDAtMTIuMywwLTEyLjMsMGwtMS4zMS0wLjM2YzAsMCwwLTAuOTIsMC0xLjA3czAtMi44OCwwLTMuMzljMC0wLjI1LDAuMDYtMC40MiwwLjI5LTAuNDJjMC4xNiwwLDguNDEsMCw4Ljc4LDAgIGMwLjQ3LDAsMC43MywwLjE2LDEuMDEsMC4zOGMwLjQ4LDAuMzYsMi4xNiwxLjU2LDIuMTYsMS41NnMxLjE3LDAuNDMsMS4zNywwLjUxYzAuMjMsMC4wOSwwLjc5LDAuMzMsMC43OSwxLjExICBjMC4xNCwwLDAuMDUsMC4xNCwwLjA1LDAuMjNjMCwwLjE5LDAuMTEsMC45Ni0wLjEsMS4xOUM3MC43OSw0My43NSw3MC40Miw0My43OCw3MC4yNSw0My43OEw3MC4yNSw0My43OHoiLz4mI3hhOzxwYXRoIGlkPSJwYXRoMTgyNDkiIGlua3NjYXBlOmNvbm5lY3Rvci1jdXJ2YXR1cmU9IjAiIHN0eWxlPSJmaWxsOiM3RUJGQzc7IiBkPSJNNjguMzksNDAuNDdoMC40OWMwLDAtMS42OS0xLjI0LTIuMTYtMS41NiAgYy0wLjA1LDAtMC4wOSwwLTAuMTUsMEM2Ny4wOSwzOS4zNCw2OC4wNCw0MC4xNCw2OC4zOSw0MC40N3oiLz4mI3hhOzxwYXRoIGlkPSJwYXRoMTgyNTQiIGlua3NjYXBlOmNvbm5lY3Rvci1jdXJ2YXR1cmU9IjAiIHN0eWxlPSJmaWxsOiM3RUJGQzc7IiBkPSJNNzAuOCw0MS4zNmgtMC45MXYwLjU2aDEuMTQgIEM3MSw0MS42OCw3MC45MSw0MS40OSw3MC44LDQxLjM2eiIvPiYjeGE7PHJlY3QgaWQ9InJlY3QxODI1OSIgeD0iNTYuNjQiIHk9IjQxLjA4IiBzdHlsZT0iZmlsbDojQ0IzMTAwOyIgd2lkdGg9IjAuMzUiIGhlaWdodD0iMS40Ii8+JiN4YTs8cGF0aCBpZD0icGF0aDE4MjY0IiBpbmtzY2FwZTpjb25uZWN0b3ItY3VydmF0dXJlPSIwIiBzdHlsZT0iZmlsbDojN0VCRkM3OyIgZD0iTTY0LjM4LDQwLjY4YzAsMCwyLjI0LDAsMy41LDAgIGMwLjEzLDAsMC4xOS0wLjE2LDAuMS0wLjI1Yy0wLjM5LTAuMzktMC45Ni0wLjgyLTEuNTUtMS4zYy0wLjI3LTAuMjMtMC40OS0wLjI5LTAuNzctMC4yOWMtMC4zNywwLTEuMjgsMC0xLjI4LDBWNDAuNjh6Ii8+JiN4YTs8Y2lyY2xlIGlkPSJlbGxpcHNlMTgyNzEiIHN0eWxlPSJmaWxsOiNCOUI3QjA7IiBjeD0iNjMuNTgiIGN5PSI0MS4wMiIgcj0iMC4xOSIvPiYjeGE7PHBhdGggaWQ9InBhdGgxODI3NiIgaW5rc2NhcGU6Y29ubmVjdG9yLWN1cnZhdHVyZT0iMCIgc3R5bGU9ImZpbGw6IzM0MkUyMDsiIGQ9Ik02My4xNCw0MS4wMkw2My4xNCw0MS4wMiAgYzAsMC4wMywwLjAzLDAuMDYsMC4wNiwwLjA2aDAuNThjMC4wNCwwLDAuMDctMC4wMywwLjA3LTAuMDd2MC4wMWMwLTAuMDQtMC4wMy0wLjA2LTAuMDctMC4wNkg2My4yICBDNjMuMTcsNDAuOTYsNjMuMTQsNDAuOTgsNjMuMTQsNDEuMDJ6Ii8+JiN4YTs8Y2lyY2xlIGlkPSJlbGxpcHNlMTgyODEiIHN0eWxlPSJmaWxsOiNCOUI3QjA7IiBjeD0iNjQuNzEiIGN5PSI0MS4wMiIgcj0iMC4xOSIvPiYjeGE7PHBhdGggaWQ9InBhdGgxODI4NiIgaW5rc2NhcGU6Y29ubmVjdG9yLWN1cnZhdHVyZT0iMCIgc3R5bGU9ImZpbGw6IzM0MkUyMDsiIGQ9Ik02NS4xNSw0MS4wMUw2NS4xNSw0MS4wMSAgYzAtMC4wMy0wLjAzLTAuMDUtMC4wNy0wLjA1SDY0LjVjLTAuMDMsMC0wLjA2LDAuMDItMC4wNiwwLjA2di0wLjAxYzAsMC4wNCwwLjAzLDAuMDcsMC4wNiwwLjA3aDAuNTggIEM2NS4xMiw0MS4wOCw2NS4xNSw0MS4wNSw2NS4xNSw0MS4wMXoiLz4mI3hhOzxwYXRoIGlkPSJwYXRoMTgyOTIiIGlua3NjYXBlOmNvbm5lY3Rvci1jdXJ2YXR1cmU9IjAiIHN0eWxlPSJmaWxsOiNGQ0Y5RUQ7ZmlsbC1vcGFjaXR5OjAuMzsiIGQ9Ik02NC41OCw0MC4xNmgyLjg3bC0xLjI0LTEuMDEgIGgtMS42M0w2NC41OCw0MC4xNnoiLz4mI3hhOzxwYXRoIGlkPSJwYXRoMTgyOTkiIGlua3NjYXBlOmNvbm5lY3Rvci1jdXJ2YXR1cmU9IjAiIHN0eWxlPSJmaWxsOiM0NjcyQzQ7ZmlsbC1vcGFjaXR5OjAuMjsiIGQ9Ik02MC45MSw0My43OCAgYy0wLjAxLDAtMC4wMi0wLjAxLTAuMDItMC4wMnYtNS4wMWMwLTAuMDEsMC4wMS0wLjAyLDAuMDItMC4wMmMwLjAxLDAsMC4wMiwwLjAxLDAuMDIsMC4wMnY1LjAxICBDNjAuOTMsNDMuNzcsNjAuOTIsNDMuNzgsNjAuOTEsNDMuNzh6Ii8+JiN4YTs8cGF0aCBpZD0icGF0aDE4MzA0IiBpbmtzY2FwZTpjb25uZWN0b3ItY3VydmF0dXJlPSIwIiBzdHlsZT0iZmlsbDojNDY3MkM0O2ZpbGwtb3BhY2l0eTowLjI7IiBkPSJNNjcuMjIsNDMuOCAgYy0wLjAxLDAtMC4wMS0wLjAxLTAuMDItMC4wMmMtMC4wMS0wLjA4LTAuMDItMC4xNi0wLjAyLTAuMjRjMC0wLjQ5LDAuMjUtMC45NCwwLjY2LTEuMlY0MC4yYy0wLjA5LTAuMDgtMS4wMy0wLjg2LTEuMzItMS4xICBsLTAuMDQtMC4wM2MtMC4xOS0wLjE1LTAuMzYtMC4yOS0wLjgzLTAuMjloLTEuNDl2NC45OWMwLDAuMDEtMC4wMSwwLjAyLTAuMDIsMC4wMmMtMC4wMSwwLTAuMDItMC4wMS0wLjAyLTAuMDJ2LTUuMDNoMS41MiAgYzAuNDksMCwwLjY3LDAuMTQsMC44NiwwLjNsMC4wNCwwLjAyYzAuMzEsMC4yNSwxLjMyLDEuMSwxLjMzLDEuMTFsMC4wMSwwLjAxdjIuMThoLTAuMDFjLTAuNDEsMC4yNS0wLjY1LDAuNjktMC42NSwxLjE3ICBjMCwwLjA4LDAuMDEsMC4xNywwLjAyLDAuMjRDNjcuMjQsNDMuNzksNjcuMjMsNDMuNzksNjcuMjIsNDMuOEM2Ny4yMiw0My43OSw2Ny4yMiw0My44LDY3LjIyLDQzLjhMNjcuMjIsNDMuOHoiLz4mI3hhOzxyZWN0IGlkPSJyZWN0MTgzMDkiIHg9IjU2Ljk3IiB5PSIzOC41MyIgc3R5bGU9ImZpbGw6IzQ2NzJDNDtmaWxsLW9wYWNpdHk6MC4yOyIgd2lkdGg9IjAuMDQiIGhlaWdodD0iNC4zNSIvPiYjeGE7PHBhdGggaWQ9InBhdGgxODMxNCIgaW5rc2NhcGU6Y29ubmVjdG9yLWN1cnZhdHVyZT0iMCIgc3R5bGU9ImZpbGw6IzQ2NzJDNDtmaWxsLW9wYWNpdHk6MC4yOyIgZD0iTTYzLjczLDQwLjY2aC02LjIgIGMtMC4xLDAtMC4xOC0wLjA4LTAuMTgtMC4xOHYtMS41N2MwLTAuMDksMC4wOC0wLjE3LDAuMTgtMC4xN2g2LjE5YzAuMSwwLDAuMTgsMC4wOCwwLjE4LDAuMTd2MS41NyAgQzYzLjksNDAuNTgsNjMuODIsNDAuNjYsNjMuNzMsNDAuNjZ6IE01Ny41MywzOC43OGMtMC4wOCwwLTAuMTQsMC4wNi0wLjE0LDAuMTN2MS41N2MwLDAuMDgsMC4wNiwwLjE0LDAuMTQsMC4xNGg2LjE5ICBjMC4wOCwwLDAuMTQtMC4wNiwwLjE0LTAuMTR2LTEuNTdjMC0wLjA3LTAuMDYtMC4xMy0wLjE0LTAuMTNINTcuNTN6Ii8+JiN4YTs8cGF0aCBpZD0icGF0aDE4MzE5IiBpbmtzY2FwZTpjb25uZWN0b3ItY3VydmF0dXJlPSIwIiBzdHlsZT0iZmlsbDojNDY3MkM0O2ZpbGwtb3BhY2l0eTowLjI7IiBkPSJNNzAuOCw0MS4zOEg1Ni45OSAgYy0wLjAxLDAtMC4wMi0wLjAxLTAuMDItMC4wMmMwLTAuMDEsMC4wMS0wLjAyLDAuMDItMC4wMkg3MC44YzAuMDEsMCwwLjAyLDAuMDEsMC4wMiwwLjAyQzcwLjgyLDQxLjM3LDcwLjgxLDQxLjM4LDcwLjgsNDEuMzh6Ii8+JiN4YTs8cGF0aCBpZD0icGF0aDE4MzI0IiBpbmtzY2FwZTpjb25uZWN0b3ItY3VydmF0dXJlPSIwIiBzdHlsZT0iZmlsbDojQjlCN0IwOyIgZD0iTTY2LjkyLDQzLjU5aC02LjFjLTAuMDksMC0wLjE2LTAuMDctMC4xNi0wLjE2ICB2LTAuMTdjMC0wLjA5LDAuMDctMC4xNiwwLjE2LTAuMTZoNi4xYzAuMDgsMCwwLjE2LDAuMDcsMC4xNiwwLjE2djAuMTdDNjcuMDgsNDMuNTIsNjcsNDMuNTksNjYuOTIsNDMuNTl6Ii8+JiN4YTs8cGF0aCBpZD0icGF0aDE4MzI5IiBpbmtzY2FwZTpjb25uZWN0b3ItY3VydmF0dXJlPSIwIiBzdHlsZT0iZmlsbDojQjlCN0IwOyIgZD0iTTU3LjIzLDQzLjVoLTFjLTAuMDIsMC0wLjA0LTAuMDItMC4wNC0wLjA0di0wLjI0ICBjMC0wLjAyLDAuMDItMC4wNCwwLjA0LTAuMDRoMWMwLjAzLDAsMC4wNCwwLjAyLDAuMDQsMC4wNHYwLjI0QzU3LjI3LDQzLjQ4LDU3LjI1LDQzLjUsNTcuMjMsNDMuNXoiLz4mI3hhOzxwYXRoIGlkPSJwYXRoMTgzMzUiIGlua3NjYXBlOmNvbm5lY3Rvci1jdXJ2YXR1cmU9IjAiIHN0eWxlPSJmaWxsOiNDQjMxMDA7IiBkPSJNNjguNDgsNDEuNjlMNjguNDgsNDEuNjkgIGMwLTAuMDQtMC4wNC0wLjA4LTAuMDktMC4wOGgtMC4yMmMtMC4wNSwwLTAuMDksMC4wNC0wLjA5LDAuMDl2LTAuMDFjMCwwLjA1LDAuMDQsMC4wOSwwLjA5LDAuMDloMC4yMiAgQzY4LjQ1LDQxLjc4LDY4LjQ4LDQxLjc0LDY4LjQ4LDQxLjY5eiIvPiYjeGE7PHBhdGggaWQ9InBhdGgxODM0MCIgaW5rc2NhcGU6Y29ubmVjdG9yLWN1cnZhdHVyZT0iMCIgc3R5bGU9ImZpbGw6IzM0MkUyMDsiIGQ9Ik02Ny45OSw0MC40M2MtMC4yMS0wLjItMC40Ni0wLjQxLTAuNzMtMC42NHYwLjg4ICBjMC4yMiwwLDAuNDQsMCwwLjYyLDBDNjguMDIsNDAuNjgsNjguMDcsNDAuNTIsNjcuOTksNDAuNDN6Ii8+JiN4YTs8cGF0aCBpZD0icGF0aDE4MzQ1IiBpbmtzY2FwZTpjb25uZWN0b3ItY3VydmF0dXJlPSIwIiBzdHlsZT0iZmlsbDojNDY3MkM0O2ZpbGwtb3BhY2l0eTowLjA5ODsiIGQ9Ik03MS4wNCw0Mi4wOSAgYzAtMC4xNS0wLjAyLTAuMjctMC4wNS0wLjM5SDU2LjY0YzAsMC4zNSwwLDAuNiwwLDAuNjVjMCwwLjE1LDAsMS4wNywwLDEuMDdsMS4zMSwwLjM2YzAsMCwxMC4wNCwwLDEyLjMsMCAgYzAuMTcsMCwwLjU0LTAuMDMsMC43NS0wLjI2YzAuMi0wLjIzLDAuMS0xLDAuMS0xLjE5QzcxLjEsNDIuMjMsNzEuMTgsNDIuMDksNzEuMDQsNDIuMDl6Ii8+JiN4YTs8Y2lyY2xlIGlkPSJlbGxpcHNlMTgzNTQiIHN0eWxlPSJmaWxsOiMzNDJFMjA7IiBjeD0iNjguNTgiIGN5PSI0My41MyIgcj0iMS4wOCIvPiYjeGE7PHBhdGggaWQ9InBhdGgxODM1OSIgaW5rc2NhcGU6Y29ubmVjdG9yLWN1cnZhdHVyZT0iMCIgc3R5bGU9ImZpbGw6IzIxMUUxNzsiIGQ9Ik02OC41OSw0NC42NGMtMC42MSwwLTEuMTEtMC41LTEuMTEtMS4xMSAgczAuNS0xLjExLDEuMTEtMS4xMXMxLjExLDAuNSwxLjExLDEuMTFTNjkuMiw0NC42NCw2OC41OSw0NC42NHogTTY4LjU5LDQyLjQ3Yy0wLjU5LDAtMS4wNywwLjQ4LTEuMDcsMS4wNiAgYzAsMC41OSwwLjQ4LDEuMDcsMS4wNywxLjA3czEuMDYtMC40OCwxLjA2LTEuMDdDNjkuNjUsNDIuOTUsNjkuMTgsNDIuNDcsNjguNTksNDIuNDd6Ii8+JiN4YTs8Y2lyY2xlIGlkPSJlbGxpcHNlMTgzNjciIHN0eWxlPSJmaWxsOiM1NDUxNDg7IiBjeD0iNjguNTgiIGN5PSI0My41MyIgcj0iMC42MyIvPiYjeGE7PHBhdGggaWQ9InBhdGgxODM3MiIgaW5rc2NhcGU6Y29ubmVjdG9yLWN1cnZhdHVyZT0iMCIgc3R5bGU9ImZpbGw6IzIxMUUxNzsiIGQ9Ik02OC41OCw0NC4xOGMtMC4zNiwwLTAuNjUtMC4zLTAuNjUtMC42NSAgYzAtMC4zNiwwLjI5LTAuNjUsMC42NS0wLjY1czAuNjUsMC4yOSwwLjY1LDAuNjVDNjkuMjMsNDMuODgsNjguOTQsNDQuMTgsNjguNTgsNDQuMTh6IE02OC41OCw0Mi45MmMtMC4zNCwwLTAuNjEsMC4yNy0wLjYxLDAuNjEgIGMwLDAuMzMsMC4yNywwLjYxLDAuNjEsMC42MWMwLjM0LDAsMC42MS0wLjI4LDAuNjEtMC42MUM2OS4xOSw0My4xOSw2OC45Miw0Mi45Miw2OC41OCw0Mi45MnoiLz4mI3hhOzxjaXJjbGUgaWQ9ImVsbGlwc2UxODM3OCIgc3R5bGU9ImZpbGw6IzIxMUUxNzsiIGN4PSI2OC41OCIgY3k9IjQzLjUzIiByPSIwLjE1Ii8+JiN4YTs8Y2lyY2xlIGlkPSJlbGxpcHNlMTgzODgiIHN0eWxlPSJmaWxsOiMzNDJFMjA7IiBjeD0iNTkuMzEiIGN5PSI0My41MyIgcj0iMS4wOCIvPiYjeGE7PHBhdGggaWQ9InBhdGgxODM5MyIgaW5rc2NhcGU6Y29ubmVjdG9yLWN1cnZhdHVyZT0iMCIgc3R5bGU9ImZpbGw6IzIxMUUxNzsiIGQ9Ik01OS4zMSw0NC42NGMtMC42MSwwLTEuMTEtMC41LTEuMTEtMS4xMSAgczAuNS0xLjExLDEuMTEtMS4xMXMxLjExLDAuNSwxLjExLDEuMTFTNTkuOTIsNDQuNjQsNTkuMzEsNDQuNjR6IE01OS4zMSw0Mi40N2MtMC41OSwwLTEuMDcsMC40OC0xLjA3LDEuMDYgIGMwLDAuNTksMC40OCwxLjA3LDEuMDcsMS4wN3MxLjA2LTAuNDgsMS4wNi0xLjA3QzYwLjM3LDQyLjk1LDU5LjksNDIuNDcsNTkuMzEsNDIuNDd6Ii8+JiN4YTs8Y2lyY2xlIGlkPSJlbGxpcHNlMTg0MDEiIHN0eWxlPSJmaWxsOiM1NDUxNDg7IiBjeD0iNTkuMzEiIGN5PSI0My41MyIgcj0iMC42MyIvPiYjeGE7PHBhdGggaWQ9InBhdGgxODQwNiIgaW5rc2NhcGU6Y29ubmVjdG9yLWN1cnZhdHVyZT0iMCIgc3R5bGU9ImZpbGw6IzIxMUUxNzsiIGQ9Ik01OS4zMSw0NC4xOGMtMC4zNiwwLTAuNjUtMC4zLTAuNjUtMC42NSAgYzAtMC4zNiwwLjI5LTAuNjUsMC42NS0wLjY1czAuNjUsMC4yOSwwLjY1LDAuNjVDNTkuOTYsNDMuODgsNTkuNjcsNDQuMTgsNTkuMzEsNDQuMTh6IE01OS4zMSw0Mi45MmMtMC4zNCwwLTAuNjEsMC4yNy0wLjYxLDAuNjEgIGMwLDAuMzMsMC4yNywwLjYxLDAuNjEsMC42MXMwLjYxLTAuMjgsMC42MS0wLjYxQzU5LjkyLDQzLjE5LDU5LjY1LDQyLjkyLDU5LjMxLDQyLjkyeiIvPiYjeGE7PGNpcmNsZSBpZD0iZWxsaXBzZTE4NDEyIiBzdHlsZT0iZmlsbDojMjExRTE3OyIgY3g9IjU5LjMxIiBjeT0iNDMuNTMiIHI9IjAuMTUiLz4mI3hhOzxwYXRoIGlkPSJwYXRoMTg0MTgiIGlua3NjYXBlOmNvbm5lY3Rvci1jdXJ2YXR1cmU9IjAiIHN0eWxlPSJmaWxsOiMzNDJFMjA7IiBkPSJNNTguMTYsNDIuODloLTEuNTh2MC42NHYwLjEzICBjMCwwLjA2LDAuMDUsMC4xMiwwLjEyLDAuMTJoMC4yYzAsMCwwLjgyLDAsMS4xMywwYy0wLjAxLTAuMDgtMC4wMi0wLjE3LTAuMDItMC4yNEM1OC4wMSw0My4zLDU4LjA2LDQzLjA4LDU4LjE2LDQyLjg5eiIvPiYjeGE7PHBhdGggaWQ9InBhdGgxODQyMyIgaW5rc2NhcGU6Y29ubmVjdG9yLWN1cnZhdHVyZT0iMCIgc3R5bGU9ImZpbGw6IzM0MkUyMDsiIGQ9Ik03MS4wOCw0Mi4wOWgtMS4xOXYwLjMybC0wLjI0LDAuMjMgIGMwLjIsMC4yNCwwLjMyLDAuNTUsMC4zMiwwLjg5YzAsMC4wOC0wLjAxLDAuMTctMC4wMiwwLjI0YzAuMDksMCwwLjMsMCwwLjMsMGwwLDBoMC44M2MwLjA2LDAsMC4xMi0wLjA1LDAuMTItMC4xMnYtMS40NCAgQzcxLjIsNDIuMTQsNzEuMTQsNDIuMDksNzEuMDgsNDIuMDl6Ii8+JiN4YTs8cGF0aCBpZD0icGF0aDE4NDMzIiBpbmtzY2FwZTpjb25uZWN0b3ItY3VydmF0dXJlPSIwIiBzdHlsZT0iZmlsbDojMzQyRTIwOyIgZD0iTTYyLjk4LDI2LjgxYy0wLjAxLDAtMC4wMi0wLjAxLTAuMDItMC4wMSAgYy0wLjAyLTAuMDEtMC4wMi0wLjAzLTAuMDEtMC4wNGwwLjQxLTAuNDhjMC4wMS0wLjAxLDAuMDMtMC4wMiwwLjA1LDBjMC4wMSwwLjAxLDAuMDEsMC4wMywwLDAuMDRMNjMsMjYuOCAgQzYzLDI2LjgsNjIuOTksMjYuODEsNjIuOTgsMjYuODF6Ii8+JiN4YTs8Y2lyY2xlIGlkPSJlbGxpcHNlMTg0MzgiIHN0eWxlPSJmaWxsOiMzNDJFMjA7IiBjeD0iNjIuOTciIGN5PSIyNi43NyIgcj0iMC4wNyIvPiYjeGE7PHBhdGggaWQ9InBhdGgxODQ0NCIgaW5rc2NhcGU6Y29ubmVjdG9yLWN1cnZhdHVyZT0iMCIgc3R5bGU9ImZpbGw6I0ZGRDY1MDsiIGQ9Ik01Ny43NiwzMi4yMmMxLjk4LDAsNi44MiwwLDEwLjA3LDAgIGMwLjE3LDAsMi4xNy0wLjI2LDIuMTctMC4yNmgwLjE2bDAuODgtMC41MWMwLDAsMC0wLjc1LDAtMC45M2MwLTAuMTcsMC0yLjIyLDAtMy4zNmMwLTAuMzItMC4xOC0wLjUxLTAuNTUtMC41MSAgYy0wLjE5LDAtNS4xNSwwLTUuNTgsMGMtMS40OSwwLTIuNTIsMC4wMS0zLjc2LDAuOTZjLTAuNjIsMC40Ny0xLjI4LDAuODYtMS4yOCwwLjg2cy0wLjU4LDAuMjYtMS45NiwwLjYyICBjLTAuNzEsMC4xOC0xLjM1LDAuNTEtMS4zNSwxLjE0YzAsMC4xOC0wLjMsMC4yOS0wLjMsMC41MXMwLDAuMDcsMCwwLjUyYzAsMC4xNSwwLjE4LDAuMywwLjMsMC40NCAgQzU2Ljc0LDMxLjkyLDU3Ljc2LDMxLjc3LDU3Ljc2LDMyLjIyeiIvPiYjeGE7PHBhdGggaWQ9InBhdGgxODQ0OSIgaW5rc2NhcGU6Y29ubmVjdG9yLWN1cnZhdHVyZT0iMCIgc3R5bGU9ImZpbGw6IzQ2NzJDNDtmaWxsLW9wYWNpdHk6MC4wOTg7IiBkPSJNNzEuMDMsMzAuMzEgIGMwLDAuMTEsMCwwLjE5LDAsMC4yMmMwLDAuMTgsMCwwLjkzLDAsMC45M2wtMC44NywwLjUxSDcwYzAsMC0wLjkxLDAuMjYtMS4xNSwwLjI2Yy0zLjI1LDAtOS4xMSwwLTExLjA5LDAgIGMtMC4xMiwwLTAuMTUtMC41MS0xLjItMC41MWMtMC4xMi0wLjE0LTAuMy0wLjI5LTAuMy0wLjQ0YzAtMC40NSwwLTAuMywwLTAuNTJjMC0wLjE5LDAuMjMtMC4zLDAuMjktMC40NEw3MS4wMywzMC4zMUw3MS4wMywzMC4zMXogICIvPiYjeGE7PHBhdGggaWQ9InBhdGgxODQ1NCIgaW5rc2NhcGU6Y29ubmVjdG9yLWN1cnZhdHVyZT0iMCIgc3R5bGU9ImZpbGw6I0ZGRDY1MDsiIGQ9Ik02Ni44NSwzMS41OGgtNS41Yy0wLjA1LDAtMC4wOC0wLjA0LTAuMDgtMC4wOCAgYzAtMC4wNCwwLjA0LTAuMDgsMC4wOC0wLjA4aDUuNWMwLjA0LDAsMC4wNywwLjA0LDAuMDcsMC4wOEM2Ni45MiwzMS41NCw2Ni44OSwzMS41OCw2Ni44NSwzMS41OHoiLz4mI3hhOzxwYXRoIGlkPSJwYXRoMTg0NTkiIGlua3NjYXBlOmNvbm5lY3Rvci1jdXJ2YXR1cmU9IjAiIHN0eWxlPSJmaWxsOiM3RUJGQzc7IiBkPSJNNjQuMSwyNy4yYzAsMC4xMSwwLDAuNzcsMCwwLjkxICBjMCwwLjEyLTAuMDIsMC4yMy0wLjE2LDAuM2MtMC4xNCwwLjA4LTAuNjIsMC4zLTAuNzQsMC4zNGMtMC4xNiwwLjA3LTAuMzYsMC4xNC0wLjY5LDAuMTljLTAuMzQsMC4wNS0yLjU0LDAuNDItMi42LDAuNDMgIGMtMC4wNiwwLjAxLTAuMTEtMC4wMS0wLjA5LTAuMDljMC4wMy0wLjA4LDAuMTMtMC4zMSwwLjE1LTAuMzZjMC4wMy0wLjA3LDAuMDctMC4xNCwwLjMyLTAuMzNjMC4yNi0wLjIsMC45My0wLjcxLDEuMjItMC45MyAgYzAuMy0wLjIyLDEuMDctMC42MiwyLjM5LTAuNjJDNjQsMjcuMDMsNjQuMSwyNy4wNSw2NC4xLDI3LjJ6Ii8+JiN4YTs8cGF0aCBpZD0icGF0aDE4NDY2IiBpbmtzY2FwZTpjb25uZWN0b3ItY3VydmF0dXJlPSIwIiBzdHlsZT0iZmlsbDojNDY3MkM0O2ZpbGwtb3BhY2l0eTowLjI7IiBkPSJNNjMuNjIsMzEuOTJINjEuMSAgYy0wLjI1LDAtMC4yOC0wLjA5LTAuMzMtMC4yM2MtMC4wMS0wLjAzLTAuMDItMC4wNi0wLjA0LTAuMDljLTAuMjEtMC40OS0wLjA3LTIuMjktMC4wNi0yLjM3YzAtMC4wMSwwLjAxLTAuMDIsMC4wMi0wLjAyICBjMC4wMSwwLDAuMDIsMC4wMSwwLjAyLDAuMDNzLTAuMTQsMS44NiwwLjA2LDIuMzRjMC4wMiwwLjA0LDAuMDMsMC4wNywwLjA0LDAuMWMwLjA1LDAuMTMsMC4wNywwLjE5LDAuMywwLjE5aDIuNTEgIGMwLjA1LDAsMC4xMy0wLjAxLDAuMTMtMC4xNnYtMC45NGMwLTAuMTksMC4xMi0wLjMyLDAuMzEtMC4zMmgwLjM3YzAuMDIsMCwwLjAyLDAuMDEsMC4wMiwwLjAyYzAsMC4wMiwwLDAuMDItMC4wMiwwLjAyaC0wLjM3ICBjLTAuMTYsMC0wLjI3LDAuMTEtMC4yNywwLjI4djAuOTRDNjMuNzksMzEuODgsNjMuNjksMzEuOTIsNjMuNjIsMzEuOTJ6Ii8+JiN4YTs8cGF0aCBpZD0icGF0aDE4NDcxIiBpbmtzY2FwZTpjb25uZWN0b3ItY3VydmF0dXJlPSIwIiBzdHlsZT0iZmlsbDojNDY3MkM0O2ZpbGwtb3BhY2l0eTowLjI7IiBkPSJNNjcuNzMsMzAuODIgIGMwLDAtMC4wMS0wLjAxLTAuMDItMC4wMWMwLTAuMDEsMC0wLjAyLDAtMC4wM2MwLjE1LTAuMTUsMC4yMy0wLjI2LDAuMjMtMC40M3YtMy4yN2MwLTAuMTMtMC4wNy0wLjItMC4yLTAuMmgtMy4zMyAgYy0wLjkyLDAtMi4wNywwLjA3LTIuOSwwLjY4Yy0wLjY5LDAuNTEtMC43MywwLjkyLTAuOCwxLjY5YzAsMC4wMS0wLjAyLDAuMDItMC4wMywwLjAycy0wLjAyLTAuMDItMC4wMi0wLjAzICBjMC4wOC0wLjc1LDAuMTItMS4yLDAuODMtMS43MWMwLjg0LTAuNjIsMi0wLjcsMi45Mi0wLjdoMy4zM2MwLjE2LDAsMC4yNSwwLjA5LDAuMjUsMC4yNXYzLjI4YzAsMC4xOC0wLjA5LDAuMy0wLjI0LDAuNDUgIEM2Ny43NCwzMC44MSw2Ny43MywzMC44Miw2Ny43MywzMC44Mkw2Ny43MywzMC44MnoiLz4mI3hhOzxwYXRoIGlkPSJwYXRoMTg0NzYiIGlua3NjYXBlOmNvbm5lY3Rvci1jdXJ2YXR1cmU9IjAiIHN0eWxlPSJmaWxsOiM0NjcyQzQ7ZmlsbC1vcGFjaXR5OjAuMjsiIGQ9Ik02Ny4wOSwzMS45NGgtMi41ICBjLTAuMTEsMC0wLjE4LTAuMDgtMC4xOC0wLjJ2LTQuODljMC0wLjAyLDAuMDEtMC4wMiwwLjAyLTAuMDJjMC4wMSwwLDAuMDIsMCwwLjAyLDAuMDJ2NC44OWMwLDAuMTMsMC4wNywwLjE1LDAuMTMsMC4xNWgyLjUxICBjMC4yMSwwLDAuMjMtMC4wNywwLjI0LTAuMjNjMC4wMi0wLjMxLDAuMTYtMC42NCwwLjM4LTAuODhjMC4wMS0wLjAxLDAuMDItMC4wMSwwLjA0LDBjMCwwLDAsMC4wMiwwLDAuMDMgIGMtMC4yMiwwLjI0LTAuMzYsMC41Ni0wLjM4LDAuODVDNjcuMzcsMzEuODQsNjcuMzIsMzEuOTQsNjcuMDksMzEuOTR6Ii8+JiN4YTs8cGF0aCBpZD0icGF0aDE4NDgxIiBpbmtzY2FwZTpjb25uZWN0b3ItY3VydmF0dXJlPSIwIiBzdHlsZT0iZmlsbDojNDY3MkM0O2ZpbGwtb3BhY2l0eTowLjI7IiBkPSJNNjQuNDMsMzEuMjRoLTAuNjcgIGMtMC4wMSwwLTAuMDItMC4wMS0wLjAyLTAuMDJzMC4wMS0wLjAyLDAuMDItMC4wMmgwLjY3YzAuMDEsMCwwLjAyLDAuMDEsMC4wMiwwLjAyUzY0LjQ0LDMxLjI0LDY0LjQzLDMxLjI0eiIvPiYjeGE7PHBhdGggaWQ9InBhdGgxODQ4NiIgaW5rc2NhcGU6Y29ubmVjdG9yLWN1cnZhdHVyZT0iMCIgc3R5bGU9ImZpbGw6IzQ2NzJDNDtmaWxsLW9wYWNpdHk6MC4yOyIgZD0iTTU3Ljk1LDI5LjI1ICBjMCwwLTAuMDItMC4wMS0wLjAyLTAuMDJzMC4wMS0wLjAyLDAuMDItMC4wM2MwLjA4LTAuMDIsMC4xNi0wLjA0LDAuMjMtMC4wNWMwLjMxLTAuMDgsMC41Ny0wLjE1LDAuNzgtMC4yMyAgYzAuMTQtMC4wNSwwLjE0LTAuMTQsMC4xNC0wLjE1czAuMDItMC4wMiwwLjAzLTAuMDJzMC4wMiwwLjAyLDAuMDIsMC4wM2MwLDAtMC4wMSwwLjEyLTAuMTcsMC4xOGMtMC4yMiwwLjA4LTAuNDgsMC4xNS0wLjc5LDAuMjMgIGMtMC4wNywwLjAyLTAuMTUsMC4wMy0wLjIzLDAuMDVMNTcuOTUsMjkuMjV6Ii8+JiN4YTs8cGF0aCBpZD0icGF0aDE4NDkyIiBpbmtzY2FwZTpjb25uZWN0b3ItY3VydmF0dXJlPSIwIiBzdHlsZT0iZmlsbDojN0VCRkM3OyIgZD0iTTU4LjUsMjkuMDVjLTAuMTcsMC4wNS0wLjM2LDAuMS0wLjU3LDAuMTUgIGMtMC43NCwwLjE5LTEuMTUsMC40OS0xLjI0LDAuODhsMS4xNi0wLjI2Yy0wLjAzLTAuMSwwLjA4LTAuMTgsMC4xNi0wLjI1YzAuMDUtMC4wNCwwLjM5LTAuMzMsMC40NC0wLjM4ICBDNTguNSwyOS4xNSw1OC41LDI5LjEsNTguNSwyOS4wNXoiLz4mI3hhOzxwYXRoIGlkPSJwYXRoMTg0OTciIGlua3NjYXBlOmNvbm5lY3Rvci1jdXJ2YXR1cmU9IjAiIHN0eWxlPSJmaWxsOiNGQ0Y5RUQ7ZmlsbC1vcGFjaXR5OjAuMzsiIGQ9Ik02MS42MSwyNy44M2wwLjAyLTAuMDIgIGMwLjA5LTAuMDYsMC4zMy0wLjIzLDAuNzUtMC4zNmMwLjQ1LTAuMTUsMC45Ni0wLjIyLDEuNTItMC4yMmwwLDB2MC44OGMwLDAuMS0wLjAxLDAuMS0wLjA2LDAuMTJjLTAuMDQsMC4wMi0wLjExLDAuMDYtMC4yLDAuMSAgaC0yLjY5QzYxLjIsMjguMTQsNjEuNDUsMjcuOTUsNjEuNjEsMjcuODN6Ii8+JiN4YTs8cGF0aCBpZD0icGF0aDE4NTAyIiBpbmtzY2FwZTpjb25uZWN0b3ItY3VydmF0dXJlPSIwIiBzdHlsZT0iZmlsbDojQ0IzMTAwOyIgZD0iTTYwLjE3LDI5Ljc1djAuMDFjMC0wLjA0LDAuMDMtMC4wNywwLjA3LTAuMDdoMC4xNyAgYzAuMDMsMCwwLjA2LDAuMDMsMC4wNiwwLjA3di0wLjAxYzAsMC4wNC0wLjAzLDAuMDctMC4wNiwwLjA3aC0wLjE3QzYwLjIsMjkuODIsNjAuMTcsMjkuNzksNjAuMTcsMjkuNzV6Ii8+JiN4YTs8cGF0aCBpZD0icGF0aDE4NTA3IiBpbmtzY2FwZTpjb25uZWN0b3ItY3VydmF0dXJlPSIwIiBzdHlsZT0iZmlsbDojNDY3MkM0O2ZpbGwtb3BhY2l0eTowLjI7IiBkPSJNNjMuNDUsMjkuNWgwLjU5ICBjMC4wNywwLDAuMTEtMC4wNSwwLjExLTAuMTFWMjkuMmMwLTAuMDYtMC4wNC0wLjExLTAuMTEtMC4xMWgtMC4zOGMtMC4xOSwwLTAuMzIsMC4xMS0wLjMyLDAuMnYwLjEgIEM2My4zNCwyOS40NSw2My4zOSwyOS41LDYzLjQ1LDI5LjV6Ii8+JiN4YTs8cGF0aCBpZD0icGF0aDE4NTEyIiBpbmtzY2FwZTpjb25uZWN0b3ItY3VydmF0dXJlPSIwIiBzdHlsZT0iZmlsbDojMzQyRTIwOyIgZD0iTTY0LjAxLDI5LjM0YzAsMC4wNC0wLjAzLDAuMDctMC4wNywwLjA3aC0wLjM4ICBjLTAuMDQsMC0wLjA3LTAuMDMtMC4wNy0wLjA3di0wLjA2aDAuNTJWMjkuMzR6Ii8+JiN4YTs8cGF0aCBpZD0icGF0aDE4NTE3IiBpbmtzY2FwZTpjb25uZWN0b3ItY3VydmF0dXJlPSIwIiBzdHlsZT0iZmlsbDojMzQyRTIwOyIgZD0iTTcwLjE3LDMxLjc5YzAtMC4yNS0wLjA3LTAuNDgtMC4xOS0wLjY5aDEuMDR2MC4xNiAgbDAuMTQsMC4wN2MwLjA0LDAuMDIsMC4wNSwwLjA4LDAuMDUsMC4xMWMwLDAuMDQsMCwwLjM2LDAsMC40YzAsMC4wNS0wLjA0LDAuMTMtMC4xMiwwLjEzcy0wLjQ5LDAtMC45MywwICBDNzAuMTYsMzEuOTIsNzAuMTcsMzEuODQsNzAuMTcsMzEuNzl6Ii8+JiN4YTs8cGF0aCBpZD0icGF0aDE4NTIyIiBpbmtzY2FwZTpjb25uZWN0b3ItY3VydmF0dXJlPSIwIiBzdHlsZT0iZmlsbDojMzQyRTIwOyIgZD0iTTU2LjM0LDMwLjc3YzAsMCwwLjM4LDAsMC40NywwICBjMC4xMSwwLDAuMTgsMC4wMiwwLjMyLDAuMTNjMC4wNSwwLjA1LDAuMiwwLjE2LDAuMzMsMC4yNmMwLjAzLDAuMDIsMC4xMiwwLjA5LDAuMjIsMC4wOWMwLjAzLDAsMC4xMSwwLDAuMjEsMCAgYy0wLjA3LDAuMTctMC4xMSwwLjM1LTAuMTEsMC41NGMwLDAuMTUsMC4wMiwwLjI5LDAuMDcsMC40M2MtMC4wNCwwLTAuMTQsMC0wLjE0LDBzLTEuMDQtMC4yMS0xLjM1LTAuMjcgIGMtMC4wOS0wLjAyLTAuMTItMC4xNS0wLjA1LTAuMjJjMC4wNS0wLjA0LDAuMDUtMC4xLDAtMC4xN2MtMC4wMi0wLjA0LTAuMDQtMC4wNy0wLjA2LTAuMTFjLTAuMDQtMC4wNi0wLjA1LTAuMTQtMC4wNS0wLjI0di0wLjMgIEM1Ni4yLDMwLjg0LDU2LjI3LDMwLjc3LDU2LjM0LDMwLjc3eiIvPiYjeGE7PHBhdGggaWQ9InBhdGgxODUyNyIgaW5rc2NhcGU6Y29ubmVjdG9yLWN1cnZhdHVyZT0iMCIgc3R5bGU9ImZpbGw6IzM0MkUyMDsiIGQ9Ik01OS45OCwyOC45MmMwLjAyLTAuMDYsMC4wNi0wLjEzLDAuMzItMC4zMyAgYzAuMTMtMC4xMSwwLjM4LTAuMywwLjY0LTAuNDljLTAuMTksMC4zMi0wLjIzLDAuNjctMC4yOCwxLjEzdjAuMDJjLTAuMzgsMC4wNi0wLjczLDAuMTMtMC43NSwwLjEzYy0wLjA3LDAuMDEtMC4xMS0wLjAxLTAuMDktMC4wOSAgQzU5Ljg2LDI5LjIsNTkuOTUsMjguOTgsNTkuOTgsMjguOTJ6Ii8+JiN4YTs8Y2lyY2xlIGlkPSJlbGxpcHNlMTg1MzYiIHN0eWxlPSJmaWxsOiMzNDJFMjA7IiBjeD0iNjguODIiIGN5PSIzMS43OCIgcj0iMS4xNyIvPiYjeGE7PHBhdGggaWQ9InBhdGgxODU0MSIgaW5rc2NhcGU6Y29ubmVjdG9yLWN1cnZhdHVyZT0iMCIgc3R5bGU9ImZpbGw6IzM0MkUyMDsiIGQ9Ik02OC44MiwzMi45OGMtMC42NiwwLTEuMi0wLjU0LTEuMi0xLjIgIHMwLjU0LTEuMTksMS4yLTEuMTljMC42NSwwLDEuMTksMC41MywxLjE5LDEuMTlTNjkuNDcsMzIuOTgsNjguODIsMzIuOTh6IE02OC44MiwzMC42NGMtMC42NCwwLTEuMTUsMC41MS0xLjE1LDEuMTUgIGMwLDAuNjMsMC41MSwxLjE1LDEuMTUsMS4xNWMwLjYzLDAsMS4xNS0wLjUyLDEuMTUtMS4xNUM2OS45NywzMS4xNSw2OS40NSwzMC42NCw2OC44MiwzMC42NHoiLz4mI3hhOzxjaXJjbGUgaWQ9ImVsbGlwc2UxODU0NyIgc3R5bGU9ImZpbGw6IzdDQzEyNzsiIGN4PSI2OC44MiIgY3k9IjMxLjc4IiByPSIwLjc5Ii8+JiN4YTs8Y2lyY2xlIGlkPSJlbGxpcHNlMTg1NTIiIHN0eWxlPSJmaWxsOiMzRjM3MkE7IiBjeD0iNjguODIiIGN5PSIzMS43OCIgcj0iMC42OSIvPiYjeGE7PGNpcmNsZSBpZD0iZWxsaXBzZTE4NTYyIiBzdHlsZT0iZmlsbDojMzQyRTIwOyIgY3g9IjU5LjE0IiBjeT0iMzEuNzkiIHI9IjEuMTciLz4mI3hhOzxwYXRoIGlkPSJwYXRoMTg1NjciIGlua3NjYXBlOmNvbm5lY3Rvci1jdXJ2YXR1cmU9IjAiIHN0eWxlPSJmaWxsOiMzNDJFMjA7IiBkPSJNNTkuMTQsMzIuOThjLTAuNjYsMC0xLjItMC41NC0xLjItMS4yICBzMC41NC0xLjE5LDEuMi0xLjE5YzAuNjUsMCwxLjE5LDAuNTMsMS4xOSwxLjE5UzU5Ljc5LDMyLjk4LDU5LjE0LDMyLjk4eiBNNTkuMTQsMzAuNjRjLTAuNjQsMC0xLjE1LDAuNTEtMS4xNSwxLjE1ICBjMCwwLjYzLDAuNTEsMS4xNSwxLjE1LDEuMTVjMC42MywwLDEuMTUtMC41MiwxLjE1LTEuMTVDNjAuMjgsMzEuMTUsNTkuNzcsMzAuNjQsNTkuMTQsMzAuNjR6Ii8+JiN4YTs8Y2lyY2xlIGlkPSJlbGxpcHNlMTg1NzMiIHN0eWxlPSJmaWxsOiM3Q0MxMjc7IiBjeD0iNTkuMTQiIGN5PSIzMS43OSIgcj0iMC43OSIvPiYjeGE7PGNpcmNsZSBpZD0iZWxsaXBzZTE4NTc4IiBzdHlsZT0iZmlsbDojM0YzNzJBOyIgY3g9IjU5LjE0IiBjeT0iMzEuNzkiIHI9IjAuNjkiLz4mI3hhOzxwYXRoIGlkPSJwYXRoMTg1OTEiIGlua3NjYXBlOmNvbm5lY3Rvci1jdXJ2YXR1cmU9IjAiIHN0eWxlPSJmaWxsOiNCOUI3QjA7IiBkPSJNNjIuNiwxNy42MWwtNS4wMi0wLjk1bDAuMTUtMC43OWw1LjAyLDAuOTUgIEw2Mi42LDE3LjYxeiIvPiYjeGE7PHBhdGggaWQ9InBhdGgxODU5NiIgaW5rc2NhcGU6Y29ubmVjdG9yLWN1cnZhdHVyZT0iMCIgc3R5bGU9ImZpbGw6IzU0NTE0ODsiIGQ9Ik02Mi42LDE3LjYxbC01LjAyLTAuOTVsMC4wOC0wLjM4bDUuMDEsMC45NCAgTDYyLjYsMTcuNjF6Ii8+JiN4YTs8cmVjdCBpZD0icmVjdDE4NjAxIiB4PSI1Ny4zOCIgeT0iMTYuMTYiIHRyYW5zZm9ybT0ibWF0cml4KDAuMTg3OSAtMC45ODIyIDAuOTgyMiAwLjE4NzkgMzAuNzg1IDY5LjczNjQpIiBzdHlsZT0iZmlsbDojQjlCN0IwOyIgd2lkdGg9IjAuMzciIGhlaWdodD0iMC4xOSIvPiYjeGE7PHBhdGggaWQ9InBhdGgxODYwNiIgaW5rc2NhcGU6Y29ubmVjdG9yLWN1cnZhdHVyZT0iMCIgc3R5bGU9ImZpbGw6IzU0NTE0ODsiIGQ9Ik01Ny40NCwxNi40MmwwLjE5LDAuMDRsMC4wNS0wLjA4bC0wLjAyLTAuMSAgbDAuMDItMC4wN2wtMC4xOS0wLjAzTDU3LjQ0LDE2LjQyeiIvPiYjeGE7PHBhdGggaWQ9InBhdGgxODYxMSIgaW5rc2NhcGU6Y29ubmVjdG9yLWN1cnZhdHVyZT0iMCIgc3R5bGU9ImZpbGw6IzIxMUUxNzsiIGQ9Ik02Mi42LDE3LjYxbC01LjAyLTAuOTVsMC4wMi0wLjA5bDUuMDIsMC45NSAgTDYyLjYsMTcuNjF6Ii8+JiN4YTs8cmVjdCBpZD0icmVjdDE4NjE2IiB4PSI1Ny41IiB5PSIxNi4zMSIgdHJhbnNmb3JtPSJtYXRyaXgoMC4xODc1IC0wLjk4MjMgMC45ODIzIDAuMTg3NSAzMC42Mzc5IDY5Ljg0NDgpIiBzdHlsZT0iZmlsbDojMjExRTE3OyIgd2lkdGg9IjAuMDciIGhlaWdodD0iMC4xOSIvPiYjeGE7PHJlY3QgaWQ9InJlY3QxODYyMSIgeD0iNTcuNSIgeT0iMTYuNSIgdHJhbnNmb3JtPSJtYXRyaXgoMC4xODc2IC0wLjk4MjIgMC45ODIyIDAuMTg3NiAzMC41ODk0IDcwLjA1NjIpIiBzdHlsZT0iZmlsbDojMjExRTE3OyIgd2lkdGg9IjAuMjkiIGhlaWdodD0iMC4wNyIvPiYjeGE7PHBhdGggaWQ9InBhdGgxODYyNyIgaW5rc2NhcGU6Y29ubmVjdG9yLWN1cnZhdHVyZT0iMCIgc3R5bGU9ImZpbGw6IzM0MkUyMDsiIGQ9Ik02My4xNiwxNi43OWMwLjAzLTAuMDUsMC4wMS0wLjExLTAuMDQtMC4xMyAgbC0wLjE0LTAuMDdjLTAuMDUtMC4wMi0wLjEsMC0wLjEyLDAuMDRsLTEuMTMsMi4zNGMtMC4wMiwwLjA1LDAsMC4xMSwwLjA0LDAuMTNsMC4xNSwwLjA3YzAuMDQsMC4wMiwwLjEsMCwwLjEyLTAuMDVMNjMuMTYsMTYuNzl6Ii8+JiN4YTs8cGF0aCBpZD0icGF0aDE4NjMyIiBpbmtzY2FwZTpjb25uZWN0b3ItY3VydmF0dXJlPSIwIiBzdHlsZT0iZmlsbDojMzQyRTIwOyIgZD0iTTY0LjYsMTYuOTZjMC4wNC0wLjA0LDAuMDQtMC4xLDAtMC4xM2wtMC4xMi0wLjExICBjLTAuMDQtMC4wMy0wLjEtMC4wMy0wLjEzLDAuMDFsLTIuNjEsMi43N2MtMC4wMywwLjA0LTAuMDMsMC4xLDAuMDEsMC4xNGwwLjExLDAuMWMwLjA0LDAuMDQsMC4xLDAuMDQsMC4xNCwwTDY0LjYsMTYuOTZ6Ii8+JiN4YTs8cGF0aCBpZD0icGF0aDE4NjM3IiBpbmtzY2FwZTpjb25uZWN0b3ItY3VydmF0dXJlPSIwIiBzdHlsZT0iZmlsbDojMzQyRTIwOyIgZD0iTTY0Ljk0LDE3LjJjMCwwLjI1LTAuMiwwLjQ1LTAuNDQsMC40NSAgYy0wLjI1LDAtMC40NS0wLjItMC40NS0wLjQ1czAuMi0wLjQ0LDAuNDUtMC40NFM2NC45NCwxNi45NSw2NC45NCwxNy4yeiIvPiYjeGE7PHJlY3QgaWQ9InJlY3QxODY0MiIgeD0iNjQuMzEiIHk9IjE3LjUyIiBzdHlsZT0iZmlsbDojMzQyRTIwOyIgd2lkdGg9IjAuMSIgaGVpZ2h0PSIwLjk0Ii8+JiN4YTs8cmVjdCBpZD0icmVjdDE4NjQ3IiB4PSI2NC40NyIgeT0iMTcuNTIiIHN0eWxlPSJmaWxsOiMzNDJFMjA7IiB3aWR0aD0iMC4xIiBoZWlnaHQ9IjAuOTQiLz4mI3hhOzxyZWN0IGlkPSJyZWN0MTg2NTIiIHg9IjYzLjczIiB5PSIxNy45MyIgdHJhbnNmb3JtPSJtYXRyaXgoMC43NzYzIC0wLjYzMDQgMC42MzA0IDAuNzc2MyAyLjY2NjEgNDQuMzI2MikiIHN0eWxlPSJmaWxsOiMzNDJFMjA7IiB3aWR0aD0iMC4xIiBoZWlnaHQ9IjAuOTQiLz4mI3hhOzxwYXRoIGlkPSJwYXRoMTg2NTciIGlua3NjYXBlOmNvbm5lY3Rvci1jdXJ2YXR1cmU9IjAiIHN0eWxlPSJmaWxsOiMzNDJFMjA7IiBkPSJNNjQuMjUsMTguNjNsLTAuMDgsMC4wN2wtMC42LTAuNzNsMC4wOC0wLjA3ICBMNjQuMjUsMTguNjN6Ii8+JiN4YTs8cGF0aCBpZD0icGF0aDE4NjYyIiBpbmtzY2FwZTpjb25uZWN0b3ItY3VydmF0dXJlPSIwIiBzdHlsZT0iZmlsbDojMzQyRTIwOyIgZD0iTTYzLjQ0LDIwLjc3Yy0wLjI1LDAtMC41NC0wLjA2LTAuNzYtMC4yNSAgYy0wLjMzLTAuMzEtMC44NC0wLjc5LTAuODQtMC43OWwtMC4wOS0wLjA5bDAuNzYtMC43NmMwLjA0LTAuMDQsMC4xMi0wLjA0LDAuMTYsMGMwLjA1LDAuMDUsMC4wNSwwLjEyLDAsMC4xN2wtMC41OSwwLjU5ICBjMC4xNiwwLjE1LDAuNTEsMC40OCwwLjc2LDAuN2MwLjMxLDAuMjksMC44NiwwLjE4LDEuMDIsMC4xNWMwLjI1LTAuMDYsMS4xOS0wLjMsMS40Ny0wLjM4YzAuMjUtMC4wOCwwLjQyLTAuMzMsMC40Ny0wLjQ0ICBjMC4wMi0wLjA2LDAuMjItMC42MSwwLjQ3LTEuMjdjMC4zLTAuODMsMC42NS0xLjc5LDAuNzUtMi4wNGMwLjE1LTAuNDEsMC4xLTAuODUtMC4xMi0xLjA0Yy0wLjA1LTAuMDUtMC4wNi0wLjExLTAuMDItMC4xNiAgYzAuMDUtMC4wNSwwLjExLTAuMDUsMC4xNi0wLjAxYzAuMywwLjI1LDAuMzgsMC43OSwwLjE5LDEuMjljLTAuMSwwLjI2LTAuNDUsMS4yLTAuNzUsMi4wNGMtMC4yNCwwLjY1LTAuNDUsMS4yMS0wLjQ3LDEuMjcgIGMtMC4wNSwwLjEzLTAuMjUsMC40Ny0wLjYsMC41N2MtMC4yOSwwLjA5LTEuMjQsMC4zMy0xLjQ5LDAuMzhDNjMuODEsMjAuNzMsNjMuNjMsMjAuNzcsNjMuNDQsMjAuNzd6Ii8+JiN4YTs8cGF0aCBpZD0icGF0aDE4NjY3IiBpbmtzY2FwZTpjb25uZWN0b3ItY3VydmF0dXJlPSIwIiBzdHlsZT0iZmlsbDojNzI2RjY3OyIgZD0iTTYzLjUyLDIwLjU3Yy0wLjI0LDAtMC40My0wLjExLTAuNTQtMC4zMSAgYy0wLjExLTAuMTgtMC4xLTAuNDEsMC4wMS0wLjYxYzAuMTMtMC4yMSwwLjM2LTAuMzQsMC42MS0wLjMzYzAuMDksMCwwLjE2LDAuMDcsMC4xNSwwLjE2YzAsMC4wOS0wLjA3LDAuMTYtMC4xNiwwLjE1ICBjLTAuMTMsMC0wLjI2LDAuMDctMC4zMywwLjE4Yy0wLjA1LDAuMS0wLjA2LDAuMjEtMC4wMSwwLjI5YzAuMDcsMC4xMywwLjIxLDAuMTgsMC40LDAuMTNjMC4yNi0wLjA2LDEuMjQtMC4yOSwxLjUtMC4zNyAgYzAuMjItMC4wNiwwLjM1LTAuMjgsMC4zOC0wLjM2YzAuMDEtMC4wNCwwLjA0LTAuMTEsMC4wNy0wLjE5YzAuMDQtMC4xNCwwLjExLTAuMzMsMC4yMS0wLjU5YzAuMTEtMC4zLDAuMS0wLjYyLTAuMDItMC45OCAgYy0wLjAzLTAuMDgsMC4wMS0wLjE4LDAuMS0wLjJjMC4wOC0wLjAzLDAuMTcsMC4wMSwwLjIsMC4xYzAuMTUsMC40MywwLjE2LDAuODMsMC4wMiwxLjJjLTAuMSwwLjI2LTAuMTcsMC40NC0wLjIxLDAuNTcgIGMtMC4wMywwLjA5LTAuMDYsMC4xNi0wLjA4LDAuMjFjLTAuMDYsMC4xNi0wLjI1LDAuNDUtMC41OCwwLjU1Yy0wLjI5LDAuMDgtMS4zMiwwLjMzLTEuNTIsMC4zNyAgQzYzLjY1LDIwLjU2LDYzLjU4LDIwLjU3LDYzLjUyLDIwLjU3TDYzLjUyLDIwLjU3eiIvPiYjeGE7PHBhdGggaWQ9InBhdGgxODY3MiIgaW5rc2NhcGU6Y29ubmVjdG9yLWN1cnZhdHVyZT0iMCIgc3R5bGU9ImZpbGw6IzM0MkUyMDsiIGQ9Ik02NS41OCwxOS43Yy0wLjAxLDAtMC4wMiwwLTAuMDMtMC4wMSAgYy0wLjA1LTAuMDEtMC4wNy0wLjA3LTAuMDUtMC4xMmMwLjAyLTAuMDUsMC4yMi0wLjU4LDAuNDQtMS4yMWMwLjMtMC44MiwwLjY0LTEuNzQsMC43My0xLjk5YzAuMDItMC4wNCwwLjA3LTAuMDcsMC4xMi0wLjA1ICBzMC4wNywwLjA3LDAuMDUsMC4xMmMtMC4wOSwwLjI0LTAuNDMsMS4xNy0wLjczLDEuOTljLTAuMjMsMC42Mi0wLjQyLDEuMTYtMC40NSwxLjIxQzY1LjY1LDE5LjY4LDY1LjYyLDE5LjcsNjUuNTgsMTkuN3oiLz4mI3hhOzxwYXRoIGlkPSJwYXRoMTg2NzciIGlua3NjYXBlOmNvbm5lY3Rvci1jdXJ2YXR1cmU9IjAiIHN0eWxlPSJmaWxsOiNCOUI3QjA7IiBkPSJNNjQuNDEsMjAuODljLTAuMjcsMC0wLjU4LTAuMTktMC43My0wLjYgIGMtMC4xNi0wLjQzLTAuNDUtMS4yMy0wLjQ1LTEuMjRjLTAuMDMtMC4wOCwwLjAxLTAuMTgsMC4xLTAuMmMwLjA4LTAuMDMsMC4xNywwLjAxLDAuMiwwLjA5YzAsMC4wMSwwLjI5LDAuODIsMC40NCwxLjI0ICBjMC4xNCwwLjM1LDAuMzksMC40MiwwLjQ4LDAuNGMwLjA0LTAuMDEsMC4xMS0wLjAzLDAuMTgtMC4wNWMwLjI1LTAuMDYsMC42Ni0wLjE2LDAuODUtMC4yM2MwLjIxLTAuMDksMC40NS0wLjQsMC41MS0wLjU0ICBjMC4wNi0wLjE1LDAuMzktMS4wOCwwLjQ5LTEuMzVjMC4wNS0wLjE1LTAuMTEtMC4yNC0wLjEyLTAuMjRjLTAuMDYtMC4wMy0wLjI2LTAuMDgtMC4zMy0wLjExYy0wLjA4LTAuMDItMC4xMy0wLjExLTAuMS0wLjE5ICBjMC4wMi0wLjA5LDAuMTEtMC4xNCwwLjE5LTAuMTFjMC4wMSwwLDAuMjYsMC4wOCwwLjM1LDAuMTFjMC4xNiwwLjA1LDAuNDMsMC4zMSwwLjMxLDAuNjVjLTAuMDgsMC4yNC0wLjQzLDEuMTktMC40OSwxLjM2ICBjLTAuMDgsMC4xOS0wLjM4LDAuNTktMC42OCwwLjcxYy0wLjIxLDAuMDgtMC42MiwwLjE4LTAuOSwwLjI1Yy0wLjA3LDAuMDEtMC4xMywwLjAzLTAuMTcsMC4wNCAgQzY0LjQ5LDIwLjg4LDY0LjQ1LDIwLjg5LDY0LjQxLDIwLjg5eiIvPiYjeGE7PHBhdGggaWQ9InBhdGgxODY4MiIgaW5rc2NhcGU6Y29ubmVjdG9yLWN1cnZhdHVyZT0iMCIgc3R5bGU9ImZpbGw6IzM0MkUyMDsiIGQ9Ik02Ni42NSwxNi43Yy0wLjAxLDAuMDMtMC42MSwxLjY1LTAuNjEsMS42NSAgcy0wLjE5LTAuODQtMC42OS0wLjg0cy0yLjIxLDAtMi41NSwwcy0wLjcxLTAuMi0wLjcxLTAuNjFjMC0wLjExLDAtMC4yMywwLTAuMjNMNjYuNjUsMTYuN3oiLz4mI3hhOzxwYXRoIGlkPSJwYXRoMTg2ODkiIGlua3NjYXBlOmNvbm5lY3Rvci1jdXJ2YXR1cmU9IjAiIHN0eWxlPSJmaWxsOiMzNDJFMjA7IiBkPSJNNTkuMDksMjEuMTZjLTEuMjYsMC0yLjI5LTEuMDMtMi4yOS0yLjI5ICBjMC0xLjI3LDEuMDMtMi4zLDIuMjktMi4zYzEuMjcsMCwyLjI5LDEuMDMsMi4yOSwyLjNDNjEuMzgsMjAuMTMsNjAuMzUsMjEuMTYsNTkuMDksMjEuMTZ6IE01OS4wOSwxNy4zYy0wLjg2LDAtMS41NiwwLjctMS41NiwxLjU3ICBjMCwwLjg2LDAuNywxLjU2LDEuNTYsMS41NnMxLjU2LTAuNywxLjU2LTEuNTZDNjAuNjUsMTgsNTkuOTUsMTcuMyw1OS4wOSwxNy4zeiIvPiYjeGE7PHBhdGggaWQ9InBhdGgxODY5NCIgaW5rc2NhcGU6Y29ubmVjdG9yLWN1cnZhdHVyZT0iMCIgc3R5bGU9ImZpbGw6IzIxMUUxNzsiIGQ9Ik01OS4wOSwyMC40NmMtMC44NywwLTEuNTktMC43MS0xLjU5LTEuNTkgIGMwLTAuODgsMC43MS0xLjYsMS41OS0xLjZzMS41OSwwLjcyLDEuNTksMS42QzYwLjY4LDE5Ljc0LDU5Ljk3LDIwLjQ2LDU5LjA5LDIwLjQ2eiBNNTkuMDksMTcuNDFjLTAuOCwwLTEuNDYsMC42NS0xLjQ2LDEuNDYgIHMwLjY2LDEuNDYsMS40NiwxLjQ2czEuNDYtMC42NSwxLjQ2LTEuNDZTNTkuODksMTcuNDEsNTkuMDksMTcuNDF6Ii8+JiN4YTs8cGF0aCBpZD0icGF0aDE4Njk5IiBpbmtzY2FwZTpjb25uZWN0b3ItY3VydmF0dXJlPSIwIiBzdHlsZT0iZmlsbDojQjlCN0IwOyIgZD0iTTU5LjEsMjAuMzZjLTAuODMsMC0xLjUtMC42Ny0xLjUtMS41ICBjMC0wLjgyLDAuNjctMS40OSwxLjUtMS40OWMwLjgyLDAsMS40OSwwLjY3LDEuNDksMS40OVM1OS45MiwyMC4zNiw1OS4xLDIwLjM2eiBNNTkuMSwxNy40MWMtMC44LDAtMS40NSwwLjY1LTEuNDUsMS40NSAgYzAsMC44MSwwLjY1LDEuNDYsMS40NSwxLjQ2czEuNDUtMC42NSwxLjQ1LTEuNDZDNjAuNTQsMTguMDYsNTkuOSwxNy40MSw1OS4xLDE3LjQxeiIvPiYjeGE7PGNpcmNsZSBpZD0iZWxsaXBzZTE4NzA2IiBzdHlsZT0iZmlsbDojQjlCN0IwOyIgY3g9IjU5LjA5IiBjeT0iMTguODYiIHI9IjEuMTIiLz4mI3hhOzxwYXRoIGlkPSJwYXRoMTg3MTEiIGlua3NjYXBlOmNvbm5lY3Rvci1jdXJ2YXR1cmU9IjAiIHN0eWxlPSJmaWxsOiM3MjZGNjc7IiBkPSJNNTkuMSwyMGMtMC42MywwLTEuMTQtMC41MS0xLjE0LTEuMTQgIHMwLjUxLTEuMTQsMS4xNC0xLjE0czEuMTMsMC41MSwxLjEzLDEuMTRDNjAuMjQsMTkuNDksNTkuNzIsMjAsNTkuMSwyMHogTTU5LjEsMTcuNzdjLTAuNiwwLTEuMSwwLjQ5LTEuMSwxLjEgIGMwLDAuNiwwLjUsMS4wOSwxLjEsMS4wOXMxLjA5LTAuNDksMS4wOS0xLjA5QzYwLjE5LDE4LjI2LDU5LjcsMTcuNzcsNTkuMSwxNy43N3oiLz4mI3hhOzxjaXJjbGUgaWQ9ImVsbGlwc2UxODcxOSIgc3R5bGU9ImZpbGw6IzU0NTE0ODsiIGN4PSI1OS4wOSIgY3k9IjE4Ljg2IiByPSIwLjkxIi8+JiN4YTs8cGF0aCBpZD0icGF0aDE4NzI0IiBpbmtzY2FwZTpjb25uZWN0b3ItY3VydmF0dXJlPSIwIiBzdHlsZT0iZmlsbDojMjExRTE3OyIgZD0iTTU5LjEsMTkuOGMtMC41MiwwLTAuOTQtMC40Mi0wLjk0LTAuOTQgIGMwLTAuNTEsMC40Mi0wLjkzLDAuOTQtMC45M2MwLjUxLDAsMC45MywwLjQyLDAuOTMsMC45M0M2MC4wMywxOS4zOCw1OS42MSwxOS44LDU5LjEsMTkuOHogTTU5LjEsMTcuOTdjLTAuNSwwLTAuODksMC40LTAuODksMC44OSAgYzAsMC41LDAuNCwwLjg5LDAuODksMC44OWMwLjQ5LDAsMC44OC0wLjQsMC44OC0wLjg5QzU5Ljk5LDE4LjM3LDU5LjU4LDE3Ljk3LDU5LjEsMTcuOTd6Ii8+JiN4YTs8cGF0aCBpZD0icGF0aDE4NzMwIiBpbmtzY2FwZTpjb25uZWN0b3ItY3VydmF0dXJlPSIwIiBzdHlsZT0iZmlsbDojRkZGRkZGOyIgZD0iTTU5LjEzLDE5LjljLTAuMDEsMC0wLjAzLTAuMDEtMC4wMy0wLjAzICBzMC4wMi0wLjAzLDAuMDMtMC4wM2gwLjAyYzAuMDIsMCwwLjAzLDAuMDEsMC4wMywwLjAyYzAsMC4wMi0wLjAxLDAuMDMtMC4wMiwwLjAzTDU5LjEzLDE5Ljl6IE01OC45LDE5Ljg5ICBjLTAuMDEsMC0wLjAyLTAuMDEtMC4wMi0wLjAxYy0wLjAyLDAtMC4wMy0wLjAyLTAuMDMtMC4wM2MwLjAxLTAuMDIsMC4wMi0wLjAzLDAuMDQtMC4wMmMwLjAxLDAsMC4wMSwwLDAuMDIsMCAgYzAuMDIsMCwwLjAzLDAuMDIsMC4wMywwLjAzQzU4LjkzLDE5Ljg3LDU4LjkyLDE5Ljg5LDU4LjksMTkuODl6IE01OS4zOCwxOS44NmMtMC4wMiwwLTAuMDMtMC4wMS0wLjAzLTAuMDIgIGMtMC4wMS0wLjAyLDAtMC4wNCwwLjAyLTAuMDRjMC4wMSwwLDAuMDEsMCwwLjAyLTAuMDFjMC4wMiwwLDAuMDMsMC4wMSwwLjA0LDAuMDJjMCwwLjAyLTAuMDEsMC4wMy0wLjAyLDAuMDQgIGMtMC4wMSwwLTAuMDIsMC0wLjAyLDAuMDFDNTkuMzgsMTkuODYsNTkuMzgsMTkuODYsNTkuMzgsMTkuODZ6IE01OC42NiwxOS44TDU4LjY2LDE5LjhjLTAuMDIsMC0wLjAyLTAuMDEtMC4wMy0wLjAxICBjLTAuMDItMC4wMS0wLjAyLTAuMDItMC4wMi0wLjA0YzAuMDEtMC4wMSwwLjAzLTAuMDIsMC4wNC0wLjAxYzAuMDEsMCwwLjAyLDAuMDEsMC4wMiwwLjAxYzAuMDIsMC4wMSwwLjAzLDAuMDIsMC4wMiwwLjA0ICBDNTguNjgsMTkuOCw1OC42NywxOS44LDU4LjY2LDE5Ljh6IE01OS42MSwxOS43NmMtMC4wMSwwLTAuMDItMC4wMS0wLjAzLTAuMDJjMC0wLjAxLDAtMC4wMywwLjAxLTAuMDMgIGMwLjAxLTAuMDEsMC4wMi0wLjAxLDAuMDItMC4wMmMwLjAxLTAuMDEsMC4wMywwLDAuMDQsMC4wMWMwLjAxLDAuMDEsMC4wMSwwLjAzLTAuMDEsMC4wNGMwLDAuMDEtMC4wMSwwLjAxLTAuMDIsMC4wMiAgQzU5LjYyLDE5Ljc1LDU5LjYxLDE5Ljc2LDU5LjYxLDE5Ljc2eiBNNTguNDUsMTkuNjdjLTAuMDEsMC0wLjAyLDAtMC4wMi0wLjAxYy0wLjAxLDAtMC4wMS0wLjAxLTAuMDItMC4wMSAgYy0wLjAxLTAuMDEtMC4wMS0wLjAzLDAtMC4wNWMwLjAxLTAuMDEsMC4wMy0wLjAxLDAuMDQsMGMwLDAsMC4wMSwwLjAxLDAuMDIsMC4wMWMwLjAxLDAuMDEsMC4wMSwwLjAzLDAsMC4wNCAgQzU4LjQ2LDE5LjY3LDU4LjQ1LDE5LjY3LDU4LjQ1LDE5LjY3eiBNNTkuODEsMTkuNmMtMC4wMSwwLTAuMDItMC4wMS0wLjAyLTAuMDFjLTAuMDItMC4wMS0wLjAyLTAuMDMsMC0wLjA0ICBjMC0wLjAxLDAtMC4wMiwwLjAxLTAuMDJjMC4wMi0wLjAxLDAuMDMtMC4wMSwwLjA1LDBjMC4wMSwwLjAxLDAuMDEsMC4wMywwLDAuMDRzLTAuMDIsMC4wMi0wLjAyLDAuMDIgIEM1OS44MiwxOS41OSw1OS44MiwxOS42LDU5LjgxLDE5LjZ6IE01OC4yNywxOS40OWMwLDAtMC4wMSwwLTAuMDItMC4wMWMtMC4wMS0wLjAxLTAuMDEtMC4wMi0wLjAxLTAuMDIgIGMtMC4wMS0wLjAyLTAuMDEtMC4wMywwLTAuMDVjMC4wMi0wLjAxLDAuMDMsMCwwLjA1LDAuMDFjMCwwLjAxLDAuMDEsMC4wMSwwLjAxLDAuMDJjMC4wMSwwLjAxLDAuMDEsMC4wMy0wLjAxLDAuMDQgIEM1OC4yOSwxOS40OSw1OC4yOCwxOS40OSw1OC4yNywxOS40OXogTTU5Ljk2LDE5LjRMNTkuOTYsMTkuNGMtMC4wMi0wLjAxLTAuMDMtMC4wMy0wLjAyLTAuMDRsMC4wMS0wLjAyICBjMC4wMS0wLjAyLDAuMDItMC4wMywwLjA0LTAuMDJjMC4wMSwwLjAxLDAuMDIsMC4wMywwLjAxLDAuMDRsLTAuMDEsMC4wMkM1OS45OCwxOS40LDU5Ljk3LDE5LjQsNTkuOTYsMTkuNHogTTU4LjE1LDE5LjI3ICBjLTAuMDEsMC0wLjAyLTAuMDEtMC4wMi0wLjAyYy0wLjAxLTAuMDEtMC4wMS0wLjAxLTAuMDEtMC4wMmMwLTAuMDIsMC0wLjA0LDAuMDItMC4wNGMwLjAxLDAsMC4wMywwLDAuMDQsMC4wMiAgYzAsMC4wMSwwLDAuMDEsMCwwLjAyYzAuMDEsMC4wMiwwLDAuMDMtMC4wMSwwLjA0QzU4LjE2LDE5LjI3LDU4LjE2LDE5LjI3LDU4LjE1LDE5LjI3eiBNNjAuMDYsMTkuMTcgIEM2MC4wNiwxOS4xNyw2MC4wNiwxOS4xNyw2MC4wNiwxOS4xN2MtMC4wMy0wLjAxLTAuMDMtMC4wMi0wLjAzLTAuMDR2LTAuMDJjMC4wMS0wLjAyLDAuMDMtMC4wMywwLjA0LTAuMDIgIGMwLjAyLDAsMC4wMiwwLjAyLDAuMDIsMC4wM3YwLjAyQzYwLjA5LDE5LjE2LDYwLjA3LDE5LjE3LDYwLjA2LDE5LjE3eiBNNTguMDksMTkuMDJjLTAuMDEsMC0wLjAyLTAuMDEtMC4wMy0wLjAyICBjMC0wLjAxLDAtMC4wMiwwLTAuMDJjMC0wLjAyLDAuMDEtMC4wMywwLjAzLTAuMDRjMC4wMSwwLDAuMDMsMC4wMSwwLjAzLDAuMDNjMCwwLjAxLDAsMC4wMSwwLDAuMDIgIEM1OC4xMiwxOS4wMSw1OC4xMSwxOS4wMiw1OC4wOSwxOS4wMnogTTYwLjEsMTguOTJjLTAuMDIsMC0wLjAzLTAuMDItMC4wMy0wLjAzczAtMC4wMiwwLTAuMDNzMC4wMS0wLjAzLDAuMDMtMC4wMyAgczAuMDMsMC4wMiwwLjAzLDAuMDNINjAuMWgwLjAzYzAsMC4wMSwwLDAuMDIsMCwwLjAzUzYwLjEyLDE4LjkyLDYwLjEsMTguOTJ6IE01OC4wOSwxOC43N0w1OC4wOSwxOC43NyAgYy0wLjAyLDAtMC4wMy0wLjAyLTAuMDMtMC4wM3MwLTAuMDIsMC4wMS0wLjAzYzAtMC4wMiwwLjAyLTAuMDMsMC4wMy0wLjAzYzAuMDIsMC4wMSwwLjAzLDAuMDIsMC4wMywwLjA0YzAsMC4wMSwwLDAuMDEtMC4wMSwwLjAyICBDNTguMTIsMTguNzYsNTguMTEsMTguNzcsNTguMDksMTguNzd6IE02MC4wNywxOC42NmMtMC4wMSwwLTAuMDItMC4wMS0wLjAzLTAuMDJjMC0wLjAxLDAtMC4wMSwwLTAuMDJjLTAuMDEtMC4wMiwwLTAuMDMsMC4wMi0wLjAzICBjMC4wMi0wLjAxLDAuMDMsMCwwLjAzLDAuMDJjMCwwLjAxLDAuMDEsMC4wMSwwLjAxLDAuMDJDNjAuMSwxOC42NSw2MC4wOSwxOC42Niw2MC4wNywxOC42NnogTTU4LjE1LDE4LjUzICBDNTguMTUsMTguNTMsNTguMTUsMTguNTMsNTguMTUsMTguNTNjLTAuMDMsMC0wLjAzLTAuMDItMC4wMy0wLjA0YzAuMDEtMC4wMSwwLjAxLTAuMDEsMC4wMS0wLjAyYzAuMDEtMC4wMiwwLjAzLTAuMDIsMC4wNC0wLjAyICBjMC4wMiwwLjAxLDAuMDIsMC4wMywwLjAyLDAuMDRjLTAuMDEsMC4wMS0wLjAxLDAuMDEtMC4wMSwwLjAyUzU4LjE3LDE4LjUzLDU4LjE1LDE4LjUzeiBNNTkuOTgsMTguNDNjLTAuMDEsMC0wLjAyLDAtMC4wMi0wLjAyICBjLTAuMDEtMC4wMS0wLjAxLTAuMDEtMC4wMS0wLjAyYy0wLjAxLTAuMDEtMC4wMS0wLjAzLDAuMDEtMC4wNGMwLjAxLTAuMDEsMC4wNCwwLDAuMDQsMC4wMmMwLDAsMC4wMSwwLjAxLDAuMDEsMC4wMiAgYzAuMDEsMC4wMSwwLjAxLDAuMDMtMC4wMSwwLjA0QzU5Ljk5LDE4LjQzLDU5Ljk5LDE4LjQzLDU5Ljk4LDE4LjQzeiBNNTguMjcsMTguMzFjMCwwLTAuMDEsMC0wLjAyLTAuMDEgIGMtMC4wMS0wLjAxLTAuMDEtMC4wMy0wLjAxLTAuMDRjMC4wMS0wLjAxLDAuMDEtMC4wMSwwLjAyLTAuMDJjMC4wMS0wLjAxLDAuMDMtMC4wMiwwLjA0LDBjMC4wMSwwLjAxLDAuMDIsMC4wMywwLDAuMDQgIGMwLDAsMCwwLjAxLTAuMDEsMC4wMkM1OC4yOSwxOC4zLDU4LjI4LDE4LjMxLDU4LjI3LDE4LjMxeiBNNTkuODQsMTguMjJjLTAuMDEsMC0wLjAyLDAtMC4wMi0wLjAxYy0wLjAxLDAtMC4wMS0wLjAxLTAuMDItMC4wMiAgYy0wLjAxLTAuMDEtMC4wMS0wLjAzLDAtMC4wNHMwLjAzLTAuMDEsMC4wNCwwYzAuMDEsMC4wMSwwLjAxLDAuMDEsMC4wMiwwLjAyYzAuMDEsMC4wMSwwLjAxLDAuMDMtMC4wMSwwLjA0ICBDNTkuODUsMTguMjIsNTkuODUsMTguMjIsNTkuODQsMTguMjJ6IE01OC40NSwxOC4xMmMtMC4wMSwwLTAuMDIsMC0wLjAzLTAuMDFjMC0wLjAxLDAtMC4wMywwLjAxLTAuMDRjMCwwLDAuMDEtMC4wMSwwLjAyLTAuMDEgIGMwLjAxLTAuMDEsMC4wMy0wLjAxLDAuMDQsMGMwLjAxLDAuMDEsMC4wMSwwLjAzLTAuMDEsMC4wNGMwLDAuMDEtMC4wMSwwLjAxLTAuMDEsMC4wMkM1OC40NiwxOC4xMiw1OC40NSwxOC4xMiw1OC40NSwxOC4xMnogICBNNTkuNjQsMTguMDZjMCwwLTAuMDEsMC0wLjAxLTAuMDFjLTAuMDEsMC0wLjAyLTAuMDEtMC4wMi0wLjAxYy0wLjAxLTAuMDEtMC4wMi0wLjAzLTAuMDEtMC4wNGMwLjAxLTAuMDIsMC4wMy0wLjAyLDAuMDQtMC4wMSAgYzAuMDEsMCwwLjAyLDAuMDEsMC4wMywwLjAxYzAuMDEsMC4wMSwwLjAxLDAuMDMsMCwwLjA0QzU5LjY3LDE4LjA1LDU5LjY2LDE4LjA2LDU5LjY0LDE4LjA2eiBNNTguNjYsMTcuOTggIGMtMC4wMiwwLTAuMDIsMC0wLjAzLTAuMDFjLTAuMDEtMC4wMiwwLTAuMDQsMC4wMS0wLjA0YzAuMDEtMC4wMSwwLjAyLTAuMDEsMC4wMy0wLjAxYzAuMDEtMC4wMSwwLjAzLDAsMC4wMywwLjAxICBjMC4wMSwwLjAyLDAsMC4wNC0wLjAxLDAuMDRDNTguNjgsMTcuOTgsNTguNjgsMTcuOTgsNTguNjYsMTcuOThMNTguNjYsMTcuOTh6IE01OS40MiwxNy45NEw1OS40MiwxNy45NGMtMC4wMiwwLTAuMDIsMC0wLjAzLTAuMDEgIGMtMC4wMiwwLTAuMDMtMC4wMi0wLjAyLTAuMDRjMC4wMS0wLjAxLDAuMDItMC4wMiwwLjA0LTAuMDFjMC4wMSwwLDAuMDIsMCwwLjAyLDAuMDFjMC4wMiwwLDAuMDIsMC4wMiwwLjAyLDAuMDMgIEM1OS40NCwxNy45NCw1OS40MywxNy45NCw1OS40MiwxNy45NHogTTU4LjksMTcuOTFjLTAuMDIsMC0wLjAzLTAuMDEtMC4wMy0wLjAzYy0wLjAxLTAuMDIsMC4wMS0wLjAzLDAuMDItMC4wMyAgYzAuMDEsMCwwLjAyLTAuMDEsMC4wMi0wLjAxYzAuMDIsMCwwLjAzLDAuMDEsMC4wMywwLjAzYzAuMDEsMC4wMiwwLDAuMDMtMC4wMiwwLjAzQzU4LjkxLDE3LjksNTguOTEsMTcuOTEsNTguOSwxNy45MUw1OC45LDE3LjkxeiAgIE01OS4xOCwxNy44OUM1OS4xOCwxNy44OSw1OS4xNywxNy44OSw1OS4xOCwxNy44OWgtMC4wM2MtMC4wMiwwLTAuMDMtMC4wMS0wLjAzLTAuMDNzMC4wMi0wLjAzLDAuMDMtMC4wM2gwLjAzICBjMC4wMSwwLDAuMDMsMC4wMiwwLjAyLDAuMDNDNTkuMiwxNy44OCw1OS4xOSwxNy44OSw1OS4xOCwxNy44OXoiLz4mI3hhOzxwYXRoIGlkPSJwYXRoMTg3MzUiIGlua3NjYXBlOmNvbm5lY3Rvci1jdXJ2YXR1cmU9IjAiIHN0eWxlPSJmaWxsOiMyMTFFMTc7IiBkPSJNNTkuMDksMTkuNjljLTAuNDYsMC0wLjgzLTAuMzctMC44My0wLjgzICBjMC0wLjQ1LDAuMzctMC44MywwLjgzLTAuODNjMC40NSwwLDAuODMsMC4zOCwwLjgzLDAuODNDNTkuOTIsMTkuMzIsNTkuNTQsMTkuNjksNTkuMDksMTkuNjl6IE01OS4wOSwxOC4wOCAgYy0wLjQ0LDAtMC43OSwwLjM1LTAuNzksMC43OGMwLDAuNDQsMC4zNSwwLjc5LDAuNzksMC43OWMwLjQzLDAsMC43OC0wLjM1LDAuNzgtMC43OUM1OS44NywxOC40Myw1OS41MiwxOC4wOCw1OS4wOSwxOC4wOHoiLz4mI3hhOzxjaXJjbGUgaWQ9ImVsbGlwc2UxODc0MiIgc3R5bGU9ImZpbGw6IzIxMUUxNzsiIGN4PSI1OS4wOSIgY3k9IjE4Ljg2IiByPSIwLjU0Ii8+JiN4YTs8cGF0aCBpZD0icGF0aDE4NzQ3IiBpbmtzY2FwZTpjb25uZWN0b3ItY3VydmF0dXJlPSIwIiBzdHlsZT0iZmlsbDojNzI2RjY3OyIgZD0iTTU5LjA5LDE5LjQzYy0wLjMxLDAtMC41Ni0wLjI1LTAuNTYtMC41NiAgYzAtMC4zLDAuMjUtMC41NiwwLjU2LTAuNTZjMC4zLDAsMC41NiwwLjI2LDAuNTYsMC41NkM1OS42NSwxOS4xOCw1OS40LDE5LjQzLDU5LjA5LDE5LjQzeiBNNTkuMDksMTguMzYgIGMtMC4yOSwwLTAuNTIsMC4yMy0wLjUyLDAuNTFjMCwwLjI5LDAuMjMsMC41MiwwLjUyLDAuNTJzMC41MS0wLjI0LDAuNTEtMC41MlM1OS4zNywxOC4zNiw1OS4wOSwxOC4zNnoiLz4mI3hhOzxwYXRoIGlkPSJwYXRoMTg3NTMiIGlua3NjYXBlOmNvbm5lY3Rvci1jdXJ2YXR1cmU9IjAiIHN0eWxlPSJmaWxsOiMyMTFFMTc7IiBkPSJNNTkuMDksMjEuMmMtMS4yOSwwLTIuMzMtMS4wNS0yLjMzLTIuMzMgIGMwLTEuMjksMS4wNS0yLjMzLDIuMzMtMi4zM2MxLjI5LDAsMi4zMywxLjA0LDIuMzMsMi4zM0M2MS40MiwyMC4xNSw2MC4zNywyMS4yLDU5LjA5LDIxLjJ6IE01OS4wOSwxNi42MiAgYy0xLjI0LDAtMi4yNCwxLjAxLTIuMjQsMi4yNGMwLDEuMjQsMSwyLjI0LDIuMjQsMi4yNHMyLjI0LTEsMi4yNC0yLjI0QzYxLjMzLDE3LjYzLDYwLjMyLDE2LjYyLDU5LjA5LDE2LjYyeiIvPiYjeGE7PHBhdGggaWQ9InBhdGgxODc1OSIgaW5rc2NhcGU6Y29ubmVjdG9yLWN1cnZhdHVyZT0iMCIgc3R5bGU9ImZpbGw6IzAxNUI3RDsiIGQ9Ik02NS40NCwxNi42NGMwLDAuMTMtMC4xLDAuMjMtMC4yMywwLjIzaC02Ljg5ICBjLTAuMywwLTAuMzMtMC4zMi0wLjIxLTAuNjNjMC4xLTAuMjYsMS44LDAuMTcsMS45MywwLjE3aDUuMTdDNjUuMzQsMTYuNDEsNjUuNDQsMTYuNTEsNjUuNDQsMTYuNjR6Ii8+JiN4YTs8cGF0aCBpZD0icGF0aDE4NzY0IiBpbmtzY2FwZTpjb25uZWN0b3ItY3VydmF0dXJlPSIwIiBzdHlsZT0iZmlsbDojMzQyRTIwOyIgZD0iTTYxLjg2LDE2LjQ2Yy0wLjYyLDAtMS4zNC0wLjQ0LTEuMzQtMC44NyAgYzAtMC4wOSwwLjEzLTAuMTMsMC4yMi0wLjEzYzAuMDQsMCwwLjIzLTAuMDQsMC4zNCwwLjE0YzAuMDYsMC4wOSwwLjA4LDAuMjIsMC40NSwwLjM2YzAuNDEsMC4xNSwxLjA2LDAuMTgsMS41NSwwLjE4ICBjMC4xNCwwLDAuMjIsMC4xMSwwLjIyLDAuMTlDNjMuMywxNi40Miw2MS45NSwxNi40Niw2MS44NiwxNi40NnoiLz4mI3hhOzxwYXRoIGlkPSJwYXRoMTg3NzEiIGlua3NjYXBlOmNvbm5lY3Rvci1jdXJ2YXR1cmU9IjAiIHN0eWxlPSJmaWxsOiMzNDJFMjA7IiBkPSJNNjkuNDQsMjEuMTZjLTEuMjYsMC0yLjI5LTEuMDMtMi4yOS0yLjI5ICBjMC0xLjI3LDEuMDMtMi4zLDIuMjktMi4zYzEuMjcsMCwyLjI5LDEuMDMsMi4yOSwyLjNDNzEuNzMsMjAuMTMsNzAuNywyMS4xNiw2OS40NCwyMS4xNnogTTY5LjQ0LDE3LjNjLTAuODYsMC0xLjU2LDAuNy0xLjU2LDEuNTcgIGMwLDAuODYsMC43LDEuNTYsMS41NiwxLjU2UzcxLDE5LjczLDcxLDE4Ljg3QzcxLjAxLDE4LDcwLjMxLDE3LjMsNjkuNDQsMTcuM3oiLz4mI3hhOzxwYXRoIGlkPSJwYXRoMTg3NzYiIGlua3NjYXBlOmNvbm5lY3Rvci1jdXJ2YXR1cmU9IjAiIHN0eWxlPSJmaWxsOiMyMTFFMTc7IiBkPSJNNjkuNDQsMjAuNDZjLTAuODcsMC0xLjU5LTAuNzEtMS41OS0xLjU5ICBjMC0wLjg4LDAuNzEtMS42LDEuNTktMS42czEuNTksMC43MiwxLjU5LDEuNkM3MS4wMywxOS43NCw3MC4zMiwyMC40Niw2OS40NCwyMC40NnogTTY5LjQ0LDE3LjQxYy0wLjgsMC0xLjQ2LDAuNjUtMS40NiwxLjQ2ICBzMC42NiwxLjQ2LDEuNDYsMS40NmMwLjgsMCwxLjQ2LTAuNjUsMS40Ni0xLjQ2UzcwLjI1LDE3LjQxLDY5LjQ0LDE3LjQxeiIvPiYjeGE7PHBhdGggaWQ9InBhdGgxODc4MSIgaW5rc2NhcGU6Y29ubmVjdG9yLWN1cnZhdHVyZT0iMCIgc3R5bGU9ImZpbGw6I0I5QjdCMDsiIGQ9Ik02OS40NCwyMC4zNmMtMC44MiwwLTEuNDktMC42Ny0xLjQ5LTEuNSAgYzAtMC44MiwwLjY3LTEuNDksMS40OS0xLjQ5YzAuODMsMCwxLjUsMC42NywxLjUsMS40OVM3MC4yNywyMC4zNiw2OS40NCwyMC4zNnogTTY5LjQ0LDE3LjQxYy0wLjc5LDAtMS40NSwwLjY1LTEuNDUsMS40NSAgYzAsMC44MSwwLjY1LDEuNDYsMS40NSwxLjQ2YzAuOCwwLDEuNDUtMC42NSwxLjQ1LTEuNDZDNzAuODksMTguMDYsNzAuMjUsMTcuNDEsNjkuNDQsMTcuNDF6Ii8+JiN4YTs8Y2lyY2xlIGlkPSJlbGxpcHNlMTg3ODgiIHN0eWxlPSJmaWxsOiNCOUI3QjA7IiBjeD0iNjkuNDQiIGN5PSIxOC44NiIgcj0iMS4xMiIvPiYjeGE7PHBhdGggaWQ9InBhdGgxODc5MyIgaW5rc2NhcGU6Y29ubmVjdG9yLWN1cnZhdHVyZT0iMCIgc3R5bGU9ImZpbGw6IzcyNkY2NzsiIGQ9Ik02OS40NCwyMGMtMC42MywwLTEuMTQtMC41MS0xLjE0LTEuMTQgIHMwLjUxLTEuMTQsMS4xNC0xLjE0czEuMTMsMC41MSwxLjEzLDEuMTRTNzAuMDcsMjAsNjkuNDQsMjB6IE02OS40NCwxNy43N2MtMC42LDAtMS4xLDAuNDktMS4xLDEuMWMwLDAuNiwwLjUsMS4wOSwxLjEsMS4wOSAgczEuMDktMC40OSwxLjA5LTEuMDlDNzAuNTMsMTguMjYsNzAuMDQsMTcuNzcsNjkuNDQsMTcuNzd6Ii8+JiN4YTs8cGF0aCBpZD0icGF0aDE4ODAxIiBpbmtzY2FwZTpjb25uZWN0b3ItY3VydmF0dXJlPSIwIiBzdHlsZT0iZmlsbDojNTQ1MTQ4OyIgZD0iTTcwLjM1LDE4Ljg2YzAsMC41MS0wLjQxLDAuOTItMC45MiwwLjkyICBjLTAuNSwwLTAuOTEtMC40MS0wLjkxLTAuOTJjMC0wLjUsMC40MS0wLjkxLDAuOTEtMC45MUM2OS45NCwxNy45NSw3MC4zNSwxOC4zNiw3MC4zNSwxOC44NnoiLz4mI3hhOzxwYXRoIGlkPSJwYXRoMTg4MDYiIGlua3NjYXBlOmNvbm5lY3Rvci1jdXJ2YXR1cmU9IjAiIHN0eWxlPSJmaWxsOiMyMTFFMTc7IiBkPSJNNjkuNDQsMTkuOGMtMC41MiwwLTAuOTQtMC40Mi0wLjk0LTAuOTQgIGMwLTAuNTEsMC40Mi0wLjkzLDAuOTQtMC45M2MwLjUxLDAsMC45MywwLjQyLDAuOTMsMC45M0M3MC4zNywxOS4zOCw2OS45NSwxOS44LDY5LjQ0LDE5Ljh6IE02OS40NCwxNy45NyAgYy0wLjUsMC0wLjg5LDAuNC0wLjg5LDAuODljMCwwLjUsMC40LDAuODksMC44OSwwLjg5czAuODgtMC40LDAuODgtMC44OVM2OS45MywxNy45Nyw2OS40NCwxNy45N3oiLz4mI3hhOzxwYXRoIGlkPSJwYXRoMTg4MTIiIGlua3NjYXBlOmNvbm5lY3Rvci1jdXJ2YXR1cmU9IjAiIHN0eWxlPSJmaWxsOiNGRkZGRkY7IiBkPSJNNjkuNDgsMTkuOWMtMC4wMSwwLTAuMDMtMC4wMS0wLjAzLTAuMDMgIHMwLjAyLTAuMDMsMC4wMy0wLjAzczAuMDIsMCwwLjAyLDBjMC4wMiwwLDAuMDMsMC4wMSwwLjAzLDAuMDJjMCwwLjAyLTAuMDEsMC4wMy0wLjAyLDAuMDNDNjkuNSwxOS45LDY5LjUsMTkuOSw2OS40OCwxOS45ICBDNjkuNDksMTkuOSw2OS40OSwxOS45LDY5LjQ4LDE5Ljl6IE02OS4yNiwxOS44OWMtMC4wMSwwLTAuMDItMC4wMS0wLjAzLTAuMDFzLTAuMDItMC4wMi0wLjAyLTAuMDNjMC4wMS0wLjAyLDAuMDItMC4wMywwLjA0LTAuMDIgIGMwLjAxLDAsMC4wMSwwLDAuMDIsMGMwLjAyLDAsMC4wMiwwLjAyLDAuMDIsMC4wM1M2OS4yNywxOS44OSw2OS4yNiwxOS44OXogTTY5Ljc0LDE5Ljg2Yy0wLjAyLDAtMC4wMy0wLjAxLTAuMDMtMC4wMiAgYy0wLjAxLTAuMDIsMC0wLjA0LDAuMDItMC4wNGMwLjAxLDAsMC4wMSwwLDAuMDItMC4wMWMwLjAyLDAsMC4wMywwLjAxLDAuMDQsMC4wMmMwLDAuMDItMC4wMSwwLjAzLTAuMDIsMC4wNCAgYy0wLjAxLDAtMC4wMiwwLTAuMDIsMC4wMUM2OS43NCwxOS44Niw2OS43NCwxOS44Niw2OS43NCwxOS44NnogTTY5LjAyLDE5LjhoLTAuMDFjLTAuMDEsMC0wLjAyLTAuMDEtMC4wMi0wLjAxICBjLTAuMDItMC4wMS0wLjAzLTAuMDItMC4wMi0wLjA0YzAuMDEtMC4wMSwwLjAzLTAuMDIsMC4wNC0wLjAxYzAuMDEsMCwwLjAxLDAuMDEsMC4wMiwwLjAxYzAuMDIsMC4wMSwwLjAyLDAuMDIsMC4wMiwwLjA0ICBDNjkuMDQsMTkuOCw2OS4wMywxOS44LDY5LjAyLDE5Ljh6IE02OS45NywxOS43NmMtMC4wMSwwLTAuMDItMC4wMS0wLjAzLTAuMDJzMC0wLjAzLDAuMDEtMC4wM2MwLjAxLTAuMDEsMC4wMS0wLjAxLDAuMDItMC4wMiAgYzAuMDEtMC4wMSwwLjAzLDAsMC4wNCwwLjAxczAuMDEsMC4wMy0wLjAxLDAuMDRjLTAuMDEsMC4wMS0wLjAxLDAuMDEtMC4wMiwwLjAyQzY5Ljk4LDE5Ljc1LDY5Ljk3LDE5Ljc2LDY5Ljk3LDE5Ljc2eiBNNjguOCwxOS42NyAgYzAsMC0wLjAxLDAtMC4wMS0wLjAxYy0wLjAxLDAtMC4wMi0wLjAxLTAuMDItMC4wMWMtMC4wMS0wLjAxLTAuMDEtMC4wMywwLTAuMDVjMC0wLjAxLDAuMDMtMC4wMSwwLjA0LDBjMCwwLDAuMDEsMC4wMSwwLjAyLDAuMDEgIGMwLjAxLDAuMDEsMC4wMSwwLjAzLDAsMC4wNEM2OC44MiwxOS42Nyw2OC44MSwxOS42Nyw2OC44LDE5LjY3eiBNNzAuMTcsMTkuNmMtMC4wMSwwLTAuMDItMC4wMS0wLjAzLTAuMDEgIGMtMC4wMS0wLjAxLTAuMDEtMC4wMywwLTAuMDRzMC4wMS0wLjAyLDAuMDItMC4wMmMwLjAxLTAuMDEsMC4wMy0wLjAxLDAuMDQsMGMwLjAyLDAuMDEsMC4wMiwwLjAzLDAsMC4wNCAgYzAsMC4wMS0wLjAxLDAuMDItMC4wMSwwLjAyQzcwLjE4LDE5LjU5LDcwLjE3LDE5LjYsNzAuMTcsMTkuNnogTTY4LjYzLDE5LjQ5Yy0wLjAxLDAtMC4wMiwwLTAuMDMtMC4wMWMwLTAuMDEtMC4wMS0wLjAyLTAuMDEtMC4wMiAgYy0wLjAxLTAuMDIsMC0wLjAzLDAuMDEtMC4wNWMwLjAxLTAuMDEsMC4wMywwLDAuMDQsMC4wMXMwLjAxLDAuMDEsMC4wMSwwLjAyYzAuMDEsMC4wMSwwLjAxLDAuMDMsMCwwLjA0UzY4LjY0LDE5LjQ5LDY4LjYzLDE5LjQ5eiAgIE03MC4zMiwxOS40aC0wLjAxYy0wLjAyLTAuMDEtMC4wMi0wLjAzLTAuMDItMC4wNGwwLjAyLTAuMDJjMC4wMS0wLjAyLDAuMDItMC4wMywwLjA0LTAuMDJjMC4wMSwwLjAxLDAuMDIsMC4wMywwLjAxLDAuMDQgIGwtMC4wMSwwLjAyQzcwLjMzLDE5LjQsNzAuMzMsMTkuNCw3MC4zMiwxOS40eiBNNjguNTEsMTkuMjdjLTAuMDEsMC0wLjAyLTAuMDEtMC4wMy0wLjAyYzAtMC4wMSwwLTAuMDEtMC4wMS0wLjAyICBjMC0wLjAyLDAtMC4wNCwwLjAyLTAuMDRzMC4wNCwwLDAuMDQsMC4wMmMwLDAuMDEsMCwwLjAxLDAuMDEsMC4wMmMwLDAuMDIsMCwwLjAzLTAuMDIsMC4wNEg2OC41MXogTTcwLjQxLDE5LjE3TDcwLjQxLDE5LjE3ICBjLTAuMDItMC4wMS0wLjAzLTAuMDItMC4wMy0wLjA0bDAuMDEtMC4wMmMwLTAuMDIsMC4wMi0wLjAzLDAuMDMtMC4wMmMwLjAyLDAsMC4wMywwLjAyLDAuMDIsMC4wM3YwLjAyICBDNzAuNDQsMTkuMTYsNzAuNDMsMTkuMTcsNzAuNDEsMTkuMTd6IE02OC40NCwxOS4wMmMtMC4wMSwwLTAuMDItMC4wMS0wLjAzLTAuMDJjMC0wLjAxLDAtMC4wMiwwLTAuMDJjMC0wLjAyLDAuMDEtMC4wMywwLjAzLTAuMDQgIGMwLjAxLDAsMC4wMywwLjAxLDAuMDMsMC4wM2MwLDAuMDEsMCwwLjAxLDAsMC4wMkM2OC40NywxOS4wMSw2OC40NywxOS4wMiw2OC40NCwxOS4wMkM2OC40NSwxOS4wMiw2OC40NCwxOS4wMiw2OC40NCwxOS4wMnogICBNNzAuNDUsMTguOTJjLTAuMDIsMC0wLjAzLTAuMDItMC4wMy0wLjAzczAtMC4wMiwwLTAuMDNzMC4wMS0wLjAzLDAuMDMtMC4wM3MwLjAzLDAuMDIsMC4wMywwLjAzbDAsMGMwLDAuMDEsMCwwLjAyLDAsMC4wMyAgUzcwLjQ3LDE4LjkyLDcwLjQ1LDE4LjkyeiBNNjguNDQsMTguNzdMNjguNDQsMTguNzdjLTAuMDIsMC0wLjAzLTAuMDItMC4wMy0wLjAzczAtMC4wMiwwLjAxLTAuMDNjMC0wLjAyLDAuMDItMC4wMywwLjAzLTAuMDMgIGMwLjAyLDAuMDEsMC4wMywwLjAyLDAuMDMsMC4wNGMwLDAuMDEsMCwwLjAxLTAuMDEsMC4wMkM2OC40NywxOC43Niw2OC40NiwxOC43Nyw2OC40NCwxOC43N3ogTTcwLjQyLDE4LjY2ICBjLTAuMDEsMC0wLjAyLTAuMDEtMC4wMy0wLjAyYzAtMC4wMSwwLTAuMDEsMC0wLjAyYy0wLjAxLTAuMDIsMC0wLjAzLDAuMDItMC4wM2MwLjAyLTAuMDEsMC4wMywwLDAuMDMsMC4wMiAgYzAsMC4wMSwwLjAxLDAuMDEsMC4wMSwwLjAyQzcwLjQ1LDE4LjY1LDcwLjQ0LDE4LjY2LDcwLjQyLDE4LjY2QzcwLjQzLDE4LjY2LDcwLjQzLDE4LjY2LDcwLjQyLDE4LjY2eiBNNjguNTEsMTguNTMgIGMtMC4wMSwwLTAuMDEsMC0wLjAxLDBjLTAuMDIsMC0wLjAzLTAuMDItMC4wMi0wLjA0YzAtMC4wMSwwLTAuMDEsMC4wMS0wLjAyYzAuMDEtMC4wMiwwLjAyLTAuMDIsMC4wNC0wLjAyICBjMC4wMSwwLjAxLDAuMDIsMC4wMywwLjAxLDAuMDRjMCwwLjAxLDAsMC4wMS0wLjAxLDAuMDJDNjguNTMsMTguNTIsNjguNTIsMTguNTMsNjguNTEsMTguNTN6IE03MC4zMywxOC40MyAgYy0wLjAxLDAtMC4wMiwwLTAuMDItMC4wMmMtMC4wMS0wLjAxLTAuMDEtMC4wMS0wLjAxLTAuMDJjLTAuMDEtMC4wMS0wLjAxLTAuMDMsMC4wMS0wLjA0YzAuMDEtMC4wMSwwLjA0LDAsMC4wNCwwLjAyICBjMCwwLDAuMDEsMC4wMSwwLjAxLDAuMDJjMC4wMSwwLjAxLDAuMDEsMC4wMy0wLjAxLDAuMDRDNzAuMzUsMTguNDMsNzAuMzQsMTguNDMsNzAuMzMsMTguNDN6IE02OC42MywxOC4zMSAgYy0wLjAxLDAtMC4wMSwwLTAuMDItMC4wMWMtMC4wMS0wLjAxLTAuMDItMC4wMy0wLjAxLTAuMDRjMC4wMS0wLjAxLDAuMDEtMC4wMSwwLjAyLTAuMDJjMC0wLjAxLDAuMDMtMC4wMiwwLjA0LDAgIGMwLjAxLDAuMDEsMC4wMiwwLjAzLDAsMC4wNGMwLDAtMC4wMSwwLjAxLTAuMDEsMC4wMkM2OC42NSwxOC4zLDY4LjY0LDE4LjMxLDY4LjYzLDE4LjMxeiBNNzAuMiwxOC4yMmMtMC4wMSwwLTAuMDIsMC0wLjAzLTAuMDEgIGMwLDAsMC0wLjAxLTAuMDEtMC4wMmMtMC4wMi0wLjAxLTAuMDEtMC4wMywwLTAuMDRzMC4wMy0wLjAxLDAuMDQsMGMwLDAuMDEsMC4wMSwwLjAxLDAuMDIsMC4wMmMwLjAxLDAuMDEsMC4wMSwwLjAzLTAuMDEsMC4wNCAgQzcwLjIxLDE4LjIyLDcwLjIsMTguMjIsNzAuMiwxOC4yMnogTTY4LjgsMTguMTJjLTAuMDEsMC0wLjAyLDAtMC4wMi0wLjAxYy0wLjAxLTAuMDEtMC4wMS0wLjAzLDAtMC4wNGMwLjAxLDAsMC4wMi0wLjAxLDAuMDItMC4wMSAgYzAuMDEtMC4wMSwwLjAzLTAuMDEsMC4wNCwwczAuMDEsMC4wMywwLDAuMDRzLTAuMDEsMC4wMS0wLjAyLDAuMDJDNjguODEsMTguMTIsNjguODEsMTguMTIsNjguOCwxOC4xMnogTTcwLDE4LjA2ICBjMCwwLTAuMDEsMC0wLjAxLTAuMDFjLTAuMDEsMC0wLjAyLTAuMDEtMC4wMi0wLjAxYy0wLjAxLTAuMDEtMC4wMi0wLjAzLTAuMDEtMC4wNGMwLjAxLTAuMDIsMC4wMy0wLjAyLDAuMDQtMC4wMSAgYzAuMDEsMCwwLjAyLDAuMDEsMC4wMiwwLjAxYzAuMDIsMC4wMSwwLjAyLDAuMDMsMC4wMSwwLjA0QzcwLjAyLDE4LjA1LDcwLjAxLDE4LjA2LDcwLDE4LjA2eiBNNjkuMDIsMTcuOTggIGMtMC4wMiwwLTAuMDMsMC0wLjAzLTAuMDFjLTAuMDEtMC4wMiwwLTAuMDQsMC4wMS0wLjA0YzAuMDEtMC4wMSwwLjAyLTAuMDEsMC4wMi0wLjAxYzAuMDItMC4wMSwwLjA0LDAsMC4wNCwwLjAxICBjMC4wMSwwLjAyLDAsMC4wNC0wLjAxLDAuMDRjLTAuMDEsMC4wMS0wLjAxLDAuMDEtMC4wMiwwLjAxQzY5LjAyLDE3Ljk4LDY5LjAyLDE3Ljk4LDY5LjAyLDE3Ljk4eiBNNjkuNzcsMTcuOTRMNjkuNzcsMTcuOTQgIGMtMC4wMSwwLTAuMDIsMC0wLjAzLTAuMDFjLTAuMDEsMC0wLjAyLTAuMDItMC4wMS0wLjA0YzAtMC4wMSwwLjAyLTAuMDIsMC4wNC0wLjAxYzAsMCwwLjAxLDAsMC4wMiwwLjAxICBjMC4wMSwwLDAuMDIsMC4wMiwwLjAxLDAuMDNDNjkuOCwxNy45NCw2OS43OSwxNy45NCw2OS43NywxNy45NHogTTY5LjI2LDE3LjkxYy0wLjAyLDAtMC4wMy0wLjAxLTAuMDMtMC4wMyAgYy0wLjAxLTAuMDIsMC0wLjAzLDAuMDItMC4wM2MwLjAxLDAsMC4wMS0wLjAxLDAuMDItMC4wMWMwLjAyLDAsMC4wMywwLjAxLDAuMDMsMC4wM2MwLjAxLDAuMDItMC4wMSwwLjAzLTAuMDIsMC4wMyAgQzY5LjI3LDE3LjksNjkuMjYsMTcuOTEsNjkuMjYsMTcuOTFMNjkuMjYsMTcuOTF6IE02OS41MywxNy44OWMtMC4wMSwwLTAuMDIsMC0wLjAzLDBjLTAuMDIsMC0wLjAzLTAuMDEtMC4wMy0wLjAzICBzMC4wMi0wLjAzLDAuMDMtMC4wM3MwLjAyLDAsMC4wMywwYzAuMDIsMCwwLjAzLDAuMDIsMC4wMywwLjAzQzY5LjU2LDE3Ljg4LDY5LjU0LDE3Ljg5LDY5LjUzLDE3Ljg5eiIvPiYjeGE7PHBhdGggaWQ9InBhdGgxODgxNyIgaW5rc2NhcGU6Y29ubmVjdG9yLWN1cnZhdHVyZT0iMCIgc3R5bGU9ImZpbGw6IzIxMUUxNzsiIGQ9Ik02OS40NCwxOS42OWMtMC40NiwwLTAuODMtMC4zNy0wLjgzLTAuODMgIGMwLTAuNDUsMC4zNy0wLjgzLDAuODMtMC44M2MwLjQ1LDAsMC44MywwLjM4LDAuODMsMC44M0M3MC4yNywxOS4zMiw2OS45LDE5LjY5LDY5LjQ0LDE5LjY5eiBNNjkuNDQsMTguMDggIGMtMC40NCwwLTAuNzksMC4zNS0wLjc5LDAuNzhjMCwwLjQ0LDAuMzUsMC43OSwwLjc5LDAuNzljMC40MywwLDAuNzgtMC4zNSwwLjc4LTAuNzlDNzAuMjIsMTguNDMsNjkuODcsMTguMDgsNjkuNDQsMTguMDh6Ii8+JiN4YTs8cGF0aCBpZD0icGF0aDE4ODI0IiBpbmtzY2FwZTpjb25uZWN0b3ItY3VydmF0dXJlPSIwIiBzdHlsZT0iZmlsbDojMjExRTE3OyIgZD0iTTY5Ljk4LDE4Ljg2YzAsMC4zLTAuMjQsMC41NC0wLjUzLDAuNTQgIGMtMC4zLDAtMC41NC0wLjI0LTAuNTQtMC41NGMwLTAuMjksMC4yNC0wLjUzLDAuNTQtMC41M0M2OS43NCwxOC4zMyw2OS45OCwxOC41Nyw2OS45OCwxOC44NnoiLz4mI3hhOzxwYXRoIGlkPSJwYXRoMTg4MjkiIGlua3NjYXBlOmNvbm5lY3Rvci1jdXJ2YXR1cmU9IjAiIHN0eWxlPSJmaWxsOiM3MjZGNjc7IiBkPSJNNjkuNDQsMTkuNDNjLTAuMzEsMC0wLjU2LTAuMjUtMC41Ni0wLjU2ICBjMC0wLjMsMC4yNS0wLjU2LDAuNTYtMC41NlM3MCwxOC41Nyw3MCwxOC44N0M3MCwxOS4xOCw2OS43NSwxOS40Myw2OS40NCwxOS40M3ogTTY5LjQ0LDE4LjM2Yy0wLjI5LDAtMC41MiwwLjIzLTAuNTIsMC41MSAgYzAsMC4yOSwwLjIzLDAuNTIsMC41MiwwLjUyYzAuMjksMCwwLjUxLTAuMjQsMC41MS0wLjUyUzY5LjcyLDE4LjM2LDY5LjQ0LDE4LjM2eiIvPiYjeGE7PHBhdGggaWQ9InBhdGgxODgzNSIgaW5rc2NhcGU6Y29ubmVjdG9yLWN1cnZhdHVyZT0iMCIgc3R5bGU9ImZpbGw6IzIxMUUxNzsiIGQ9Ik02OS40NCwyMS4yYy0xLjI5LDAtMi4zMy0xLjA1LTIuMzMtMi4zMyAgYzAtMS4yOSwxLjA1LTIuMzMsMi4zMy0yLjMzYzEuMjksMCwyLjMzLDEuMDQsMi4zMywyLjMzQzcxLjc3LDIwLjE1LDcwLjczLDIxLjIsNjkuNDQsMjEuMnogTTY5LjQ0LDE2LjYyICBjLTEuMjQsMC0yLjI0LDEuMDEtMi4yNCwyLjI0YzAsMS4yNCwxLDIuMjQsMi4yNCwyLjI0czIuMjQtMSwyLjI0LTIuMjRDNzEuNjgsMTcuNjMsNzAuNjgsMTYuNjIsNjkuNDQsMTYuNjJ6Ii8+JiN4YTs8cGF0aCBpZD0icGF0aDE4ODQxIiBpbmtzY2FwZTpjb25uZWN0b3ItY3VydmF0dXJlPSIwIiBzdHlsZT0iZmlsbDojMDE1QjdEOyIgZD0iTTYwLjQ3LDE1LjQ2Yy0wLjA3LDAtMC42MiwwLTAuOTMsMCAgYy0wLjQ5LDAtMS4xNiwwLjExLTEuNDQsMC43OGMtMC4wNSwwLjExLTAuMDUsMC4yNSwwLjA3LDAuMjVjMC4wOSwwLDUuNzMsMCw1LjczLDBjMC0wLjA3LDAtMC4wOSwwLTAuMTZjLTAuMjIsMC0xLjg4LDAtMi4wOSwwICBjLTAuNTksMC0xLjI0LTAuMzctMS4yNC0wLjc1QzYwLjU4LDE1LjUyLDYwLjUzLDE1LjQ2LDYwLjQ3LDE1LjQ2eiIvPiYjeGE7PHBhdGggaWQ9InBhdGgxODg0NiIgaW5rc2NhcGU6Y29ubmVjdG9yLWN1cnZhdHVyZT0iMCIgc3R5bGU9ImZpbGw6IzAxNUI3RDsiIGQ9Ik02My43NCwxNi44N2gyLjg5YzAuMDgsMCwwLjE3LTAuMDYsMC4yNC0wLjIgIGMwLjA3LTAuMTQsMC44Ny0xLjQ2LTAuOTMtMS45OWMtMS44LTAuNTItMi4zMSwwLjg2LTIuNTMsMS4yOEM2My4xOCwxNi4zOCw2My4yNCwxNi44Nyw2My43NCwxNi44N3oiLz4mI3hhOzxwYXRoIGlkPSJwYXRoMTg4NTEiIGlua3NjYXBlOmNvbm5lY3Rvci1jdXJ2YXR1cmU9IjAiIHN0eWxlPSJmaWxsOiNGRkZGRkY7ZmlsbC1vcGFjaXR5OjAuMzsiIGQ9Ik02Ni44MiwxNS41OSAgYy0wLjAyLDAtMC4wNC0wLjAxLTAuMDQtMC4wM2MtMC4xMi0wLjI3LTAuNDMtMC40OS0wLjkyLTAuNjNjLTAuMjQtMC4wNy0wLjQ3LTAuMTEtMC42OC0wLjExYy0wLjQ3LDAtMC44NCwwLjE5LTEuMTMsMC41NiAgYy0wLjAyLDAuMDItMC4wNSwwLjAyLTAuMDcsMC4wMWMtMC4wMi0wLjAyLTAuMDItMC4wNS0wLjAxLTAuMDdjMC4zMi0wLjQsMC43MS0wLjU5LDEuMjEtMC41OWMwLjIxLDAsMC40NSwwLjA0LDAuNywwLjEyICBjMC41MiwwLjE1LDAuODQsMC4zOCwwLjk3LDAuNjhjMC4wMSwwLjAyLDAsMC4wNS0wLjAyLDAuMDZDNjYuODMsMTUuNTksNjYuODIsMTUuNTksNjYuODIsMTUuNTl6Ii8+JiN4YTs8cGF0aCBpZD0icGF0aDE4ODU2IiBpbmtzY2FwZTpjb25uZWN0b3ItY3VydmF0dXJlPSIwIiBzdHlsZT0iZmlsbDojNDY3MkM0O2ZpbGwtb3BhY2l0eTowLjI7IiBkPSJNNjMuMjksMTYuNDkgIEM2My4yOSwxNi40OSw2My4yOSwxNi41Niw2My4yOSwxNi40OWMtMC4yMiwwLTEuNTYsMC0xLjcyLDBjLTAuNSwwLTAuODYtMC4yLTAuOTgtMC4zNGMtMC4wNywwLTEuMzgsMC0xLjY5LDAgIGMtMC4zNywwLTAuNTEtMC4xMi0wLjM4LTAuMzRjLTAuNDksMC40My0wLjQ5LDEuMDUtMC4yLDEuMDVoOC4zMWMwLjA4LDAsMC4xNy0wLjA2LDAuMjQtMC4yYzAuMDEtMC4wMiwwLjA1LTAuMDgsMC4wOS0wLjE3ICBMNjMuMjksMTYuNDl6Ii8+JiN4YTs8cGF0aCBpZD0icGF0aDE4ODYxIiBpbmtzY2FwZTpjb25uZWN0b3ItY3VydmF0dXJlPSIwIiBzdHlsZT0iZmlsbDojNTQ1MTQ4OyIgZD0iTTYyLjMyLDE5LjQ0YzAsMC4wNS0wLjExLDAuMDgtMC4yNSwwLjA2ICBsLTIuOTUtMC40NmMtMC4wMS0wLjAxLTAuMDMtMC4wMi0wLjAzLTAuMDR2LTAuMjFjMC0wLjAyLDAuMDItMC4wNCwwLjAzLTAuMDRoMy4yMWMwLjE0LDAsMC4xOCwwLjA1LDAuMTgsMC4xTDYyLjMyLDE5LjQ0eiIvPiYjeGE7PHBhdGggaWQ9InBhdGgxODg2NiIgaW5rc2NhcGU6Y29ubmVjdG9yLWN1cnZhdHVyZT0iMCIgc3R5bGU9ImZpbGw6I0I5QjdCMDsiIGQ9Ik01OS4yNCwxOC45N2MtMC4wMywwLTAuMDUtMC4wMy0wLjA1LTAuMDV2LTAuMDEgIGMwLTAuMDMsMC4wMy0wLjA1LDAuMDUtMC4wNWgyLjE4YzAuMDMsMCwwLjA1LDAuMDIsMC4wNSwwLjA1djAuMDFjMCwwLjAzLTAuMDIsMC4wNS0wLjA1LDAuMDVINTkuMjR6Ii8+JiN4YTs8Y2lyY2xlIGlkPSJlbGxpcHNlMTg4NzEiIHN0eWxlPSJmaWxsOiMzNDJFMjA7IiBjeD0iNjEuODgiIGN5PSIxOS4xMyIgcj0iMC4yNCIvPiYjeGE7PHBhdGggaWQ9InBhdGgxODg3NiIgaW5rc2NhcGU6Y29ubmVjdG9yLWN1cnZhdHVyZT0iMCIgc3R5bGU9ImZpbGw6I0ZGRkZGRjtmaWxsLW9wYWNpdHk6MC4zOyIgZD0iTTU4LjI5LDE2LjMyICBjLTAuMDEsMC0wLjAyLDAtMC4wMy0wLjAxYy0wLjAyLTAuMDEtMC4wMy0wLjAzLTAuMDItMC4wNmMwLjMyLTAuNjcsMS4xMS0wLjY2LDEuNzktMC42NmMwLjA2LDAsMC4xMiwwLDAuMTgsMCAgYzAuMDIsMCwwLjA1LDAuMDIsMC4wNSwwLjA1cy0wLjAzLDAuMDUtMC4wNSwwLjA1Yy0wLjA2LDAtMC4xMiwwLTAuMTgsMGMtMC42OS0wLjAxLTEuNDEtMC4wMS0xLjcsMC42MSAgQzU4LjMyLDE2LjMxLDU4LjMsMTYuMzIsNTguMjksMTYuMzJ6Ii8+JiN4YTs8cGF0aCBpZD0icGF0aDE4ODgxIiBpbmtzY2FwZTpjb25uZWN0b3ItY3VydmF0dXJlPSIwIiBzdHlsZT0iZmlsbDojNzI2RjY3OyIgZD0iTTYzLjE5LDE5LjRjLTAuMTQsMC0wLjI2LDAuMTItMC4yNiwwLjI3ICBjMCwwLjE0LDAuMTIsMC4yNiwwLjI2LDAuMjZoMS43MXYtMS4zMWgtMS44NHYwLjU0TDYzLjE5LDE5LjR6Ii8+JiN4YTs8cGF0aCBpZD0icGF0aDE4ODg2IiBpbmtzY2FwZTpjb25uZWN0b3ItY3VydmF0dXJlPSIwIiBzdHlsZT0iZmlsbDojQjlCN0IwOyIgZD0iTTYzLjA4LDE5LjAxaC0wLjIzVjE4LjcgIGMwLTAuMTcsMC4xNC0wLjMxLDAuMzItMC4zMWgxLjAydjAuMjJoLTEuMDJjLTAuMDUsMC0wLjA5LDAuMDQtMC4wOSwwLjA5VjE5LjAxeiIvPiYjeGE7PHBhdGggaWQ9InBhdGgxODg5MSIgaW5rc2NhcGU6Y29ubmVjdG9yLWN1cnZhdHVyZT0iMCIgc3R5bGU9ImZpbGw6IzM0MkUyMDsiIGQ9Ik02NC45MSwxOC41NmMwLDAuMDYtMC4wNCwwLjEtMC4wOSwwLjFINjMuNSAgYy0wLjA1LDAtMC4wOS0wLjA0LTAuMDktMC4xdi0wLjE0YzAtMC4wNSwwLjA0LTAuMDksMC4wOS0wLjA5aDEuMzJjMC4wNSwwLDAuMDksMC4wNCwwLjA5LDAuMDlWMTguNTZ6Ii8+JiN4YTs8cGF0aCBpZD0icGF0aDE4ODk4IiBpbmtzY2FwZTpjb25uZWN0b3ItY3VydmF0dXJlPSIwIiBzdHlsZT0iZmlsbDojQjlCN0IwOyIgZD0iTTY2LjM0LDE3LjI1YzAsMC0wLjg5LTAuMzItMS4wMi0wLjM3ICBjLTAuMTItMC4wNC0wLjIxLDAuMDEtMC4yNSwwLjEyYy0wLjA0LDAuMTItMC4zNywxLjA0LTAuMzcsMS4wNGwwLjEyLDAuMDRsLTAuMTQsMC40bDAuOTUsMC4zNGwwLjE0LTAuNGwwLjEyLDAuMDVMNjYuMzQsMTcuMjV6Ii8+JiN4YTs8cGF0aCBpZD0icGF0aDE4OTAzIiBpbmtzY2FwZTpjb25uZWN0b3ItY3VydmF0dXJlPSIwIiBzdHlsZT0iZmlsbDojN0M3QTczOyIgZD0iTTY1Ljc0LDE3LjAzbC0wLjU4LDEuNjJsMC40NywwLjE3bDAuMTQtMC4zOSAgbDAuMTMsMC4wNGwwLjQ0LTEuMjJMNjUuNzQsMTcuMDN6Ii8+JiN4YTs8cmVjdCBpZD0icmVjdDE4OTA4IiB4PSI2NS4yOCIgeT0iMTcuNDkiIHRyYW5zZm9ybT0ibWF0cml4KDAuMzM2NSAtMC45NDE3IDAuOTQxNyAwLjMzNjUgMjYuMTY5NSA3My41OTgyKSIgc3R5bGU9ImZpbGw6I0I5QjdCMDsiIHdpZHRoPSIwLjA3IiBoZWlnaHQ9IjEuNDgiLz4mI3hhOzxyZWN0IGlkPSJyZWN0MTg5MTMiIHg9IjY1LjMzIiB5PSIxNy4zNiIgdHJhbnNmb3JtPSJtYXRyaXgoMC4zMzY1IC0wLjk0MTcgMC45NDE3IDAuMzM2NSAyNi4zMjU5IDczLjU1NjIpIiBzdHlsZT0iZmlsbDojQjlCN0IwOyIgd2lkdGg9IjAuMDciIGhlaWdodD0iMS40OCIvPiYjeGE7PHJlY3QgaWQ9InJlY3QxODkxOCIgeD0iNjUuMzciIHk9IjE3LjIzIiB0cmFuc2Zvcm09Im1hdHJpeCgwLjMzNjYgLTAuOTQxNyAwLjk0MTcgMC4zMzY2IDI2LjQ3NDQgNzMuNTEwMSkiIHN0eWxlPSJmaWxsOiNCOUI3QjA7IiB3aWR0aD0iMC4wNyIgaGVpZ2h0PSIxLjQ4Ii8+JiN4YTs8cmVjdCBpZD0icmVjdDE4OTIzIiB4PSI2NS40MiIgeT0iMTcuMDkiIHRyYW5zZm9ybT0ibWF0cml4KDAuMzM2NCAtMC45NDE3IDAuOTQxNyAwLjMzNjQgMjYuNjM5NiA3My40Njk5KSIgc3R5bGU9ImZpbGw6I0I5QjdCMDsiIHdpZHRoPSIwLjA3IiBoZWlnaHQ9IjEuNDgiLz4mI3hhOzxyZWN0IGlkPSJyZWN0MTg5MjgiIHg9IjY1LjE0IiB5PSIxOC4wNCIgdHJhbnNmb3JtPSJtYXRyaXgoMC4zMzY1IC0wLjk0MTcgMC45NDE3IDAuMzM2NSAyNS43MTI5IDczLjcyMjMpIiBzdHlsZT0iZmlsbDojQjlCN0IwOyIgd2lkdGg9IjAuMDciIGhlaWdodD0iMS4xNCIvPiYjeGE7PHJlY3QgaWQ9InJlY3QxODkzMyIgeD0iNjUuMTgiIHk9IjE3LjkxIiB0cmFuc2Zvcm09Im1hdHJpeCgwLjMzNjQgLTAuOTQxNyAwLjk0MTcgMC4zMzY0IDI1Ljg2OTIgNzMuNjgyNykiIHN0eWxlPSJmaWxsOiNCOUI3QjA7IiB3aWR0aD0iMC4wNyIgaGVpZ2h0PSIxLjE0Ii8+JiN4YTs8cmVjdCBpZD0icmVjdDE4OTM4IiB4PSI2NS4yMyIgeT0iMTcuNzgiIHRyYW5zZm9ybT0ibWF0cml4KDAuMzM2NSAtMC45NDE3IDAuOTQxNyAwLjMzNjUgMjYuMDE5OCA3My42Mzc5KSIgc3R5bGU9ImZpbGw6I0I5QjdCMDsiIHdpZHRoPSIwLjA3IiBoZWlnaHQ9IjEuMTQiLz4mI3hhOzxwYXRoIGlkPSJwYXRoMTg5NDMiIGlua3NjYXBlOmNvbm5lY3Rvci1jdXJ2YXR1cmU9IjAiIHN0eWxlPSJmaWxsOiNCOUI3QjA7IiBkPSJNNjYuMjEsMTcuOTJsLTEuNC0wLjQ5bC0wLjAyLDAuMDZsMS4zOSwwLjUgIEw2Ni4yMSwxNy45MnoiLz4mI3hhOzxyZWN0IGlkPSJyZWN0MTg5NDgiIHg9IjY1LjUxIiB5PSIxNi44MyIgdHJhbnNmb3JtPSJtYXRyaXgoMC4zMzY1IC0wLjk0MTcgMC45NDE3IDAuMzM2NSAyNi45NDM1IDczLjM4MDkpIiBzdHlsZT0iZmlsbDojQjlCN0IwOyIgd2lkdGg9IjAuMDciIGhlaWdodD0iMS40OCIvPiYjeGE7PHJlY3QgaWQ9InJlY3QxODk1NSIgeD0iNjUuNjMiIHk9IjE3Ljk4IiB0cmFuc2Zvcm09Im1hdHJpeCgwLjMzNzQgLTAuOTQxNCAwLjk0MTQgMC4zMzc0IDI2LjIzNTggNzMuOTY5NCkiIHN0eWxlPSJmaWxsOiNCOUI3QjA7IiB3aWR0aD0iMC4wNyIgaGVpZ2h0PSIwLjc0Ii8+JiN4YTs8cmVjdCBpZD0icmVjdDE4OTYwIiB4PSI2NS42NyIgeT0iMTcuODUiIHRyYW5zZm9ybT0ibWF0cml4KDAuMzM2MiAtMC45NDE4IDAuOTQxOCAwLjMzNjIgMjYuNDU3MSA3My45NzgxKSIgc3R5bGU9ImZpbGw6I0I5QjdCMDsiIHdpZHRoPSIwLjA3IiBoZWlnaHQ9IjAuNzQiLz4mI3hhOzxyZWN0IGlkPSJyZWN0MTg5NjUiIHg9IjY1LjcyIiB5PSIxNy43MiIgdHJhbnNmb3JtPSJtYXRyaXgoMC4zMzYgLTAuOTQxOSAwLjk0MTkgMC4zMzYgMjYuNjI4MSA3My45NDMxKSIgc3R5bGU9ImZpbGw6I0I5QjdCMDsiIHdpZHRoPSIwLjA3IiBoZWlnaHQ9IjAuNzQiLz4mI3hhOzxyZWN0IGlkPSJyZWN0MTg5NzAiIHg9IjY1Ljc3IiB5PSIxNy41OSIgdHJhbnNmb3JtPSJtYXRyaXgoMC4zMzU3IC0wLjk0MiAwLjk0MiAwLjMzNTcgMjYuNzk1MyA3My45MTY0KSIgc3R5bGU9ImZpbGw6I0I5QjdCMDsiIHdpZHRoPSIwLjA3IiBoZWlnaHQ9IjAuNzQiLz4mI3hhOzxyZWN0IGlkPSJyZWN0MTg5NzUiIHg9IjY1LjQxIiB5PSIxOC40MyIgdHJhbnNmb3JtPSJtYXRyaXgoMC4zMzYzIC0wLjk0MTggMC45NDE4IDAuMzM2MyAyNS44MTMgNzQuMDUwMikiIHN0eWxlPSJmaWxsOiNCOUI3QjA7IiB3aWR0aD0iMC4wNyIgaGVpZ2h0PSIwLjU3Ii8+JiN4YTs8cmVjdCBpZD0icmVjdDE4OTgwIiB4PSI2NS40NSIgeT0iMTguMyIgdHJhbnNmb3JtPSJtYXRyaXgoMC4zMzc0IC0wLjk0MTQgMC45NDE0IDAuMzM3NCAyNS45MDAyIDczLjk2MTYpIiBzdHlsZT0iZmlsbDojQjlCN0IwOyIgd2lkdGg9IjAuMDciIGhlaWdodD0iMC41NyIvPiYjeGE7PHJlY3QgaWQ9InJlY3QxODk4NSIgeD0iNjUuNSIgeT0iMTguMTciIHRyYW5zZm9ybT0ibWF0cml4KDAuMzM2MiAtMC45NDE4IDAuOTQxOCAwLjMzNjIgMjYuMTIwOSA3My45Njg3KSIgc3R5bGU9ImZpbGw6I0I5QjdCMDsiIHdpZHRoPSIwLjA3IiBoZWlnaHQ9IjAuNTciLz4mI3hhOzxwYXRoIGlkPSJwYXRoMTg5OTAiIGlua3NjYXBlOmNvbm5lY3Rvci1jdXJ2YXR1cmU9IjAiIHN0eWxlPSJmaWxsOiNCOUI3QjA7IiBkPSJNNjYuMTksMTcuOTlsMC4wMi0wLjA3bC0wLjctMC4yNWwtMC4wMiwwLjA3ICBMNjYuMTksMTcuOTl6Ii8+JiN4YTs8cmVjdCBpZD0icmVjdDE4OTk1IiB4PSI2NS44NiIgeT0iMTcuMzMiIHRyYW5zZm9ybT0ibWF0cml4KDAuMzM2NiAtMC45NDE2IDAuOTQxNiAwLjMzNjYgMjcuMDQ4IDczLjc4NykiIHN0eWxlPSJmaWxsOiNCOUI3QjA7IiB3aWR0aD0iMC4wNyIgaGVpZ2h0PSIwLjc0Ii8+JiN4YTs8cmVjdCBpZD0icmVjdDE5MDAwIiB4PSI2NC45MyIgeT0iMTcuNzMiIHRyYW5zZm9ybT0ibWF0cml4KDAuMzM2NiAtMC45NDE2IDAuOTQxNiAwLjMzNjYgMjYuMDU1NSA3My4xODI5KSIgc3R5bGU9ImZpbGw6IzdDN0E3MzsiIHdpZHRoPSIwLjA3IiBoZWlnaHQ9IjAuNzQiLz4mI3hhOzxyZWN0IGlkPSJyZWN0MTkwMDUiIHg9IjY0Ljk4IiB5PSIxNy42IiB0cmFuc2Zvcm09Im1hdHJpeCgwLjMzNjYgLTAuOTQxNiAwLjk0MTYgMC4zMzY2IDI2LjIwMTMgNzMuMTM5MikiIHN0eWxlPSJmaWxsOiM3QzdBNzM7IiB3aWR0aD0iMC4wNyIgaGVpZ2h0PSIwLjc0Ii8+JiN4YTs8cmVjdCBpZD0icmVjdDE5MDEwIiB4PSI2NS4wMiIgeT0iMTcuNDgiIHRyYW5zZm9ybT0ibWF0cml4KDAuMzM2NCAtMC45NDE3IDAuOTQxNyAwLjMzNjQgMjYuMzYzOCA3My4xMDM5KSIgc3R5bGU9ImZpbGw6IzdDN0E3MzsiIHdpZHRoPSIwLjA3IiBoZWlnaHQ9IjAuNzQiLz4mI3hhOzxyZWN0IGlkPSJyZWN0MTkwMTUiIHg9IjY1LjA3IiB5PSIxNy4zNCIgdHJhbnNmb3JtPSJtYXRyaXgoMC4zMzY2IC0wLjk0MTcgMC45NDE3IDAuMzM2NiAyNi41MTY3IDczLjA1OCkiIHN0eWxlPSJmaWxsOiM3QzdBNzM7IiB3aWR0aD0iMC4wNyIgaGVpZ2h0PSIwLjc0Ii8+JiN4YTs8cmVjdCBpZD0icmVjdDE5MDIwIiB4PSI2NC44NyIgeT0iMTguMjMiIHRyYW5zZm9ybT0ibWF0cml4KDAuMzM2NyAtMC45NDE2IDAuOTQxNiAwLjMzNjcgMjUuNjEzNyA3My40MDAxKSIgc3R5bGU9ImZpbGw6IzdDN0E3MzsiIHdpZHRoPSIwLjA3IiBoZWlnaHQ9IjAuNTciLz4mI3hhOzxyZWN0IGlkPSJyZWN0MTkwMjUiIHg9IjY0LjkxIiB5PSIxOC4xMSIgdHJhbnNmb3JtPSJtYXRyaXgoMC4zMzY1IC0wLjk0MTcgMC45NDE3IDAuMzM2NSAyNS43NzEyIDczLjM2NzIpIiBzdHlsZT0iZmlsbDojN0M3QTczOyIgd2lkdGg9IjAuMDciIGhlaWdodD0iMC41NyIvPiYjeGE7PHJlY3QgaWQ9InJlY3QxOTAzMCIgeD0iNjQuOTYiIHk9IjE3Ljk4IiB0cmFuc2Zvcm09Im1hdHJpeCgwLjMzNjQgLTAuOTQxNyAwLjk0MTcgMC4zMzY0IDI1LjkzNSA3My4zMjk4KSIgc3R5bGU9ImZpbGw6IzdDN0E3MzsiIHdpZHRoPSIwLjA3IiBoZWlnaHQ9IjAuNTciLz4mI3hhOzxyZWN0IGlkPSJyZWN0MTkwMzUiIHg9IjY1LjEyIiB5PSIxNy4yMSIgdHJhbnNmb3JtPSJtYXRyaXgoMC4zMzY2IC0wLjk0MTYgMC45NDE2IDAuMzM2NiAyNi42NjM2IDczLjAxMzgpIiBzdHlsZT0iZmlsbDojN0M3QTczOyIgd2lkdGg9IjAuMDciIGhlaWdodD0iMC43NCIvPiYjeGE7PHJlY3QgaWQ9InJlY3QxOTA0MCIgeD0iNjUuMTciIHk9IjE3LjA4IiB0cmFuc2Zvcm09Im1hdHJpeCgwLjMzNjUgLTAuOTQxNyAwLjk0MTcgMC4zMzY1IDI2LjgyNjIgNzIuOTc3OSkiIHN0eWxlPSJmaWxsOiM3QzdBNzM7IiB3aWR0aD0iMC4wNyIgaGVpZ2h0PSIwLjc0Ii8+JiN4YTs8Y2lyY2xlIGlkPSJlbGxpcHNlMTkwNDkiIHN0eWxlPSJmaWxsOiNCOUI3QjA7IiBjeD0iNjQuOTEiIGN5PSIxOS4xOCIgcj0iMC43NCIvPiYjeGE7PHBhdGggaWQ9InBhdGgxOTA1NCIgaW5rc2NhcGU6Y29ubmVjdG9yLWN1cnZhdHVyZT0iMCIgc3R5bGU9ImZpbGw6IzcyNkY2NzsiIGQ9Ik02NC45MSwxOS45N2MtMC40NCwwLTAuNzktMC4zNi0wLjc5LTAuNzkgIGMwLTAuNDQsMC4zNi0wLjc5LDAuNzktMC43OXMwLjc5LDAuMzYsMC43OSwwLjc5UzY1LjM0LDE5Ljk3LDY0LjkxLDE5Ljk3eiBNNjQuOTEsMTguNDhjLTAuMzksMC0wLjcsMC4zMS0wLjcsMC43ICBjMCwwLjM5LDAuMzEsMC43LDAuNywwLjdzMC43LTAuMzEsMC43LTAuN0M2NS42MSwxOC43OSw2NS4zLDE4LjQ4LDY0LjkxLDE4LjQ4eiIvPiYjeGE7PGNpcmNsZSBpZD0iZWxsaXBzZTE5MDYyIiBzdHlsZT0iZmlsbDojQjlCN0IwOyIgY3g9IjY0LjkxIiBjeT0iMTkuMTgiIHI9IjAuNTYiLz4mI3hhOzxwYXRoIGlkPSJwYXRoMTkwNjciIGlua3NjYXBlOmNvbm5lY3Rvci1jdXJ2YXR1cmU9IjAiIHN0eWxlPSJmaWxsOiM3MjZGNjc7IiBkPSJNNjQuOSwxOS43NmMtMC4zMiwwLTAuNTgtMC4yNi0wLjU4LTAuNTkgIGMwLTAuMzIsMC4yNi0wLjU4LDAuNTgtMC41OGMwLjMzLDAsMC41OSwwLjI2LDAuNTksMC41OEM2NS40OSwxOS41LDY1LjIzLDE5Ljc2LDY0LjksMTkuNzZ6IE02NC45LDE4LjYzICBjLTAuMywwLTAuNTQsMC4yNS0wLjU0LDAuNTRjMCwwLjMsMC4yNSwwLjU1LDAuNTQsMC41NWMwLjMsMCwwLjU0LTAuMjUsMC41NC0wLjU1QzY1LjQ0LDE4Ljg4LDY1LjIsMTguNjMsNjQuOSwxOC42M3oiLz4mI3hhOzxwYXRoIGlkPSJwYXRoMTkwNzMiIGlua3NjYXBlOmNvbm5lY3Rvci1jdXJ2YXR1cmU9IjAiIHN0eWxlPSJmaWxsOiMzNDJFMjA7IiBkPSJNNjMuMjQsMTkuNTZjLTAuMDMsMC0wLjA1LTAuMDMtMC4wNS0wLjA1VjE5LjUgIGMwLTAuMDMsMC4wMy0wLjA1LDAuMDUtMC4wNWgwLjc5YzAuMDMsMCwwLjA1LDAuMDIsMC4wNSwwLjA1djAuMDFjMCwwLjAzLTAuMDMsMC4wNS0wLjA1LDAuMDVINjMuMjR6Ii8+JiN4YTs8cGF0aCBpZD0icGF0aDE5MDc4IiBpbmtzY2FwZTpjb25uZWN0b3ItY3VydmF0dXJlPSIwIiBzdHlsZT0iZmlsbDojNzI2RjY3OyIgZD0iTTYzLjI0LDE5LjI5YzAsMC4yMi0wLjE4LDAuNC0wLjQsMC40ICBjLTAuMjEsMC0wLjM5LTAuMTgtMC4zOS0wLjRzMC4xOC0wLjM5LDAuMzktMC4zOUM2My4wNiwxOC45LDYzLjI0LDE5LjA3LDYzLjI0LDE5LjI5eiIvPiYjeGE7PGNpcmNsZSBpZD0iZWxsaXBzZTE5MDgzIiBzdHlsZT0iZmlsbDojQjlCN0IwOyIgY3g9IjYyLjg0IiBjeT0iMTkuMyIgcj0iMC4yNCIvPiYjeGE7PHBhdGggaWQ9InBhdGgxOTA4OCIgaW5rc2NhcGU6Y29ubmVjdG9yLWN1cnZhdHVyZT0iMCIgc3R5bGU9ImZpbGw6IzcyNkY2NzsiIGQ9Ik02OS41NCwxOC45OEM2OS40MSwxOS4wNiw2OS4yOSwxOSw2OS4yOSwxOSAgbC0yLjEyLTMuODVsMC4zOS0wLjIxbDIuMTEsMy44M0M2OS42NiwxOC43Nyw2OS42OCwxOC45LDY5LjU0LDE4Ljk4eiIvPiYjeGE7PHJlY3QgaWQ9InJlY3QxOTA5MyIgeD0iNjcuNTYiIHk9IjE0LjY0IiB0cmFuc2Zvcm09Im1hdHJpeCgwLjg3NjQgLTAuNDgxNiAwLjQ4MTYgMC44NzY0IDAuNzU4NyAzNC42MDE2KSIgc3R5bGU9ImZpbGw6I0I5QjdCMDsiIHdpZHRoPSIwLjQ0IiBoZWlnaHQ9IjIuMzYiLz4mI3hhOzxwYXRoIGlkPSJwYXRoMTkwOTgiIGlua3NjYXBlOmNvbm5lY3Rvci1jdXJ2YXR1cmU9IjAiIHN0eWxlPSJmaWxsOiNDQkNCQ0I7IiBkPSJNNjkuNTQsMTguOThDNjkuNDEsMTkuMDYsNjkuMjgsMTksNjkuMjgsMTkgIGwtMi4yMS00LjAybDAuMTktMC4xMUM2Ny4yNywxNC44Nyw2OS4zMiwxOC42Miw2OS41NCwxOC45OHoiLz4mI3hhOzxyZWN0IGlkPSJyZWN0MTkxMDMiIHg9IjY3LjU4IiB5PSIxNC43IiB0cmFuc2Zvcm09Im1hdHJpeCgwLjg3NjggLTAuNDgwOCAwLjQ4MDggMC44NzY4IDAuNzA0MSAzNC41MDA0KSIgc3R5bGU9ImZpbGw6I0NCQ0JDQjsiIHdpZHRoPSIwLjIyIiBoZWlnaHQ9IjIuMzYiLz4mI3hhOzxwYXRoIGlkPSJwYXRoMTkxMTAiIGlua3NjYXBlOmNvbm5lY3Rvci1jdXJ2YXR1cmU9IjAiIHN0eWxlPSJmaWxsOiNCOUI3QjA7IiBkPSJNNjguNzcsMTcuMDJsLTAuNDgsMC4yN2wtMC4yMy0wLjQybDAuNDgtMC4yNiAgTDY4Ljc3LDE3LjAyeiIvPiYjeGE7PHBhdGggaWQ9InBhdGgxOTExNSIgaW5rc2NhcGU6Y29ubmVjdG9yLWN1cnZhdHVyZT0iMCIgc3R5bGU9ImZpbGw6I0I5QjdCMDsiIGQ9Ik02OC4yOCwxNy4zNGMtMC4wMSwwLTAuMDMtMC4wMS0wLjAzLTAuMDMgIGwtMC4yMy0wLjQxYy0wLjAxLTAuMDEtMC4wMS0wLjAzLTAuMDEtMC4wNGMwLjAxLTAuMDEsMC4wMi0wLjAyLDAuMDMtMC4wMmwwLjQ5LTAuMjdjMC4wMi0wLjAyLDAuMDUtMC4wMSwwLjA2LDAuMDFMNjguODEsMTcgIGMwLjAxLDAuMDEsMC4wMSwwLjAyLDAuMDEsMC4wM2MtMC4wMSwwLjAyLTAuMDIsMC4wMy0wLjAyLDAuMDNsLTAuNDksMC4yN0M2OC4zLDE3LjMzLDY4LjI5LDE3LjM0LDY4LjI4LDE3LjM0eiBNNjguMTIsMTYuODkgIGwwLjE4LDAuMzRMNjguNzEsMTdsLTAuMTgtMC4zM0w2OC4xMiwxNi44OXoiLz4mI3hhOzxyZWN0IGlkPSJyZWN0MTkxMjEiIHg9IjY4LjE0IiB5PSIxNi45MiIgdHJhbnNmb3JtPSJtYXRyaXgoMC44NzYzIC0wLjQ4MTcgMC40ODE3IDAuODc2MyAwLjI5MzcgMzUuMDUwNykiIHN0eWxlPSJmaWxsOiM3MjZGNjc7IiB3aWR0aD0iMC41NSIgaGVpZ2h0PSIwLjA3Ii8+JiN4YTs8cGF0aCBpZD0icGF0aDE5MTI4IiBpbmtzY2FwZTpjb25uZWN0b3ItY3VydmF0dXJlPSIwIiBzdHlsZT0iZmlsbDojQjlCN0IwOyIgZD0iTTY5LjUyLDE4Ljg0YzAsMC4wNS0wLjA0LDAuMDktMC4wOCwwLjA5ICBjLTAuMDUsMC0wLjA5LTAuMDQtMC4wOS0wLjA5YzAtMC4wNCwwLjA0LTAuMDgsMC4wOS0wLjA4QzY5LjQ4LDE4Ljc2LDY5LjUyLDE4LjgsNjkuNTIsMTguODR6Ii8+JiN4YTs8cGF0aCBpZD0icGF0aDE5MTMzIiBpbmtzY2FwZTpjb25uZWN0b3ItY3VydmF0dXJlPSIwIiBzdHlsZT0iZmlsbDojNzI2RjY3OyIgZD0iTTY5LjQ0LDE4Ljk2Yy0wLjA3LDAtMC4xMi0wLjA1LTAuMTItMC4xMiAgYzAtMC4wNiwwLjA1LTAuMTEsMC4xMi0wLjExYzAuMDYsMCwwLjExLDAuMDUsMC4xMSwwLjExQzY5LjU1LDE4LjkxLDY5LjUsMTguOTYsNjkuNDQsMTguOTZ6IE02OS40NCwxOC43OSAgYy0wLjAzLDAtMC4wNiwwLjAyLTAuMDYsMC4wNWMwLDAuMDMsMC4wMywwLjA2LDAuMDYsMC4wNnMwLjA1LTAuMDMsMC4wNS0wLjA2QzY5LjQ5LDE4LjgxLDY5LjQ3LDE4Ljc5LDY5LjQ0LDE4Ljc5eiIvPiYjeGE7PHJlY3QgaWQ9InJlY3QxOTEzOSIgeD0iNjguMTQiIHk9IjE2Ljc2IiB0cmFuc2Zvcm09Im1hdHJpeCgwLjg3NjQgLTAuNDgxNiAwLjQ4MTYgMC44NzY0IDAuMjU3OCAzNS4wMDUzKSIgc3R5bGU9ImZpbGw6I0NCQ0JDQjsiIHdpZHRoPSIwLjM2IiBoZWlnaHQ9IjAuNDgiLz4mI3hhOzxwYXRoIGlkPSJwYXRoMTkxNDQiIGlua3NjYXBlOmNvbm5lY3Rvci1jdXJ2YXR1cmU9IjAiIHN0eWxlPSJmaWxsOiNCOUI3QjA7IiBkPSJNNjguNTIsMTYuMjdjLTAuNTcsMC0wLjM1LTAuMzEtMC4zNS0wLjcgIGMwLTAuMzgtMC4yMi0wLjY5LDAuMzUtMC42OUM2OS4wOSwxNC44Nyw2OS4wOSwxNi4yNyw2OC41MiwxNi4yN3oiLz4mI3hhOzxwYXRoIGlkPSJwYXRoMTkxNDkiIGlua3NjYXBlOmNvbm5lY3Rvci1jdXJ2YXR1cmU9IjAiIHN0eWxlPSJmaWxsOiM0NjcyQzQ7ZmlsbC1vcGFjaXR5OjAuMjsiIGQ9Ik02OC40NSwxNS45MyAgYy0wLjE0LDAtMC4yNC0wLjAxLTAuMzEtMC4wM2MtMC4wMywwLjIyLTAuMDEsMC4zNywwLjM4LDAuMzdjMC4zLDAsMC40NC0wLjM4LDAuNDMtMC43NEM2OC44NywxNS43NSw2OC43MSwxNS45Myw2OC40NSwxNS45M3oiLz4mI3hhOzxwYXRoIGlkPSJwYXRoMTkxNTQiIGlua3NjYXBlOmNvbm5lY3Rvci1jdXJ2YXR1cmU9IjAiIHN0eWxlPSJmaWxsOiMwMTVCN0Q7IiBkPSJNNjguNDQsMTYuMzFjLTAuNDEsMC0wLjc0LTAuMzMtMC43NC0wLjc0ICBzMC4zMy0wLjc0LDAuNzQtMC43NGMwLjE5LDAsMC4xNCwwLjM0LDAuMTYsMC42OEM2OC42MSwxNS45LDY4LjY1LDE2LjMxLDY4LjQ0LDE2LjMxeiIvPiYjeGE7PHBhdGggaWQ9InBhdGgxOTE1OSIgaW5rc2NhcGU6Y29ubmVjdG9yLWN1cnZhdHVyZT0iMCIgc3R5bGU9ImZpbGw6IzQ2NzJDNDtmaWxsLW9wYWNpdHk6MC4yOyIgZD0iTTY3LjcsMTUuNTYgIGMwLDAuNDEsMC4zMywwLjc0LDAuNzQsMC43NGMwLjIsMCwwLjE3LTAuMzcsMC4xNi0wLjc0SDY3Ljd6Ii8+JiN4YTs8cGF0aCBpZD0icGF0aDE5MTY0IiBpbmtzY2FwZTpjb25uZWN0b3ItY3VydmF0dXJlPSIwIiBzdHlsZT0iZmlsbDojMzQyRTIwOyIgZD0iTTY4LjA1LDE1LjM1YzAuMDIsMCwwLjAzLTAuMDEsMC4wNS0wLjAxICBjMC4wNywwLDAuMTMsMC4wNSwwLjE0LDAuMTNjMC4wMSwwLjA2LTAuMDMsMC4xMS0wLjA4LDAuMTNsLTAuOTMsMC42MWwtMC4wNi0wLjU1TDY4LjA1LDE1LjM1eiIvPiYjeGE7PHBhdGggaWQ9InBhdGgxOTE2OSIgaW5rc2NhcGU6Y29ubmVjdG9yLWN1cnZhdHVyZT0iMCIgc3R5bGU9ImZpbGw6IzcyNkY2NzsiIGQ9Ik02OC4xOCwxNS40OGMwLDAuMDQtMC4wMywwLjA3LTAuMDcsMC4wNyAgcy0wLjA3LTAuMDMtMC4wNy0wLjA3czAuMDMtMC4wNywwLjA3LTAuMDdTNjguMTgsMTUuNDUsNjguMTgsMTUuNDh6Ii8+JiN4YTs8Y2lyY2xlIGlkPSJlbGxpcHNlMTkxNzQiIHN0eWxlPSJmaWxsOiMzNDJFMjA7IiBjeD0iNjcuMDQiIGN5PSIxNC45IiByPSIwLjI3Ii8+JiN4YTs8cGF0aCBpZD0icGF0aDE5MTc5IiBpbmtzY2FwZTpjb25uZWN0b3ItY3VydmF0dXJlPSIwIiBzdHlsZT0iZmlsbDojMzQyRTIwOyIgZD0iTTY3LjA5LDE0LjY5YzAsMCwwLjE2LTAuMDYsMC4yNS0wLjA5ICBjMC4xLTAuMDMsMC4xOCwwLjA0LDAuMjQsMC4wOWMwLjA2LDAuMDQsMC4xOCwwLjE1LDAuMjEsMC4xOGMwLjAzLDAuMDMsMC4wNiwwLjExLTAuMDMsMC4xN2MtMC4xLDAuMDctMC4zMiwwLjItMC4yNSwwLjMxICBjMC4wOCwwLjAxLDAuMTIsMC4xMiwwLjA0LDAuMTZzLTAuMTYtMC4wNC0wLjEzLTAuMTJjLTAuMDMtMC4xMSwwLTAuMjYsMC4wNy0wLjM0YzAuMDgtMC4wNy0wLjA0LTAuMTQtMC4wNC0wLjE0bC0wLjIzLDAuMDIgIEw2Ny4wOSwxNC42OXoiLz4mI3hhOzxwYXRoIGlkPSJwYXRoMTkxODQiIGlua3NjYXBlOmNvbm5lY3Rvci1jdXJ2YXR1cmU9IjAiIHN0eWxlPSJmaWxsOiM3MjZGNjc7IiBkPSJNNjguMzUsMTYuMzFjMCwwLjAyLDAuMDIsMC4wNCwwLjA0LDAuMDRoMC4yNiAgYzAuMDMsMCwwLjA1LTAuMDIsMC4wNS0wLjA0di0xLjQ5YzAtMC4wMi0wLjAyLTAuMDQtMC4wNS0wLjA0aC0wLjI2Yy0wLjAyLDAtMC4wNCwwLjAxLTAuMDQsMC4wNFYxNi4zMXoiLz4mI3hhOzxwYXRoIGlkPSJwYXRoMTkxODkiIGlua3NjYXBlOmNvbm5lY3Rvci1jdXJ2YXR1cmU9IjAiIHN0eWxlPSJmaWxsOiMzNDJFMjA7IiBkPSJNNjguMzUsMTYuMzFjMCwwLjAyLDAuMDIsMC4wNCwwLjA0LDAuMDRoMC4wNCAgdi0xLjU2aC0wLjA0Yy0wLjAyLDAtMC4wNCwwLjAxLTAuMDQsMC4wNFYxNi4zMXoiLz4mI3hhOzxwYXRoIGlkPSJwYXRoMTkxOTciIGlua3NjYXBlOmNvbm5lY3Rvci1jdXJ2YXR1cmU9IjAiIHN0eWxlPSJmaWxsOiM3MjZGNjc7IiBkPSJNNjcuNDcsMTQuNzRjMC4wMSwwLjEyLTAuMDgsMC4yMy0wLjIxLDAuMjQgIGMtMC4xMiwwLjAxLTAuMjItMC4wOC0wLjIzLTAuMjFjLTAuMDEtMC4xMiwwLjA4LTAuMjIsMC4yLTAuMjNDNjcuMzUsMTQuNTMsNjcuNDYsMTQuNjIsNjcuNDcsMTQuNzR6Ii8+JiN4YTs8cGF0aCBpZD0icGF0aDE5MjAyIiBpbmtzY2FwZTpjb25uZWN0b3ItY3VydmF0dXJlPSIwIiBzdHlsZT0iZmlsbDojMzQyRTIwOyIgZD0iTTY3LjQsMTQuNzVjMC4wMSwwLjA4LTAuMDUsMC4xNi0wLjE0LDAuMTYgIGMtMC4wOCwwLjAxLTAuMTYtMC4wNS0wLjE3LTAuMTRjMC0wLjA4LDAuMDYtMC4xNiwwLjE1LTAuMTZDNjcuMzIsMTQuNiw2Ny40LDE0LjY2LDY3LjQsMTQuNzV6Ii8+JiN4YTs8L3N2Zz4=;" vertex="1" parent="1">
          <mxGeometry x="590" y="-1020" width="87" height="72" as="geometry" />
        </mxCell>
        <mxCell id="0ri98CfVSG6h3WFVPkks-33" value="" style="shape=image;verticalLabelPosition=bottom;labelBackgroundColor=#ffffff;verticalAlign=top;aspect=fixed;imageAspect=0;image=data:image/svg+xml,PHN2ZyB4bWxuczpjYz0iaHR0cDovL2NyZWF0aXZlY29tbW9ucy5vcmcvbnMjIiB4bWxuczpkYz0iaHR0cDovL3B1cmwub3JnL2RjL2VsZW1lbnRzLzEuMS8iIHhtbG5zOmlua3NjYXBlPSJodHRwOi8vd3d3Lmlua3NjYXBlLm9yZy9uYW1lc3BhY2VzL2lua3NjYXBlIiB4bWxuczpyZGY9Imh0dHA6Ly93d3cudzMub3JnLzE5OTkvMDIvMjItcmRmLXN5bnRheC1ucyMiIHhtbG5zOnNvZGlwb2RpPSJodHRwOi8vc29kaXBvZGkuc291cmNlZm9yZ2UubmV0L0RURC9zb2RpcG9kaS0wLmR0ZCIgeG1sbnM6c3ZnPSJodHRwOi8vd3d3LnczLm9yZy8yMDAwL3N2ZyIgeG1sbnM9Imh0dHA6Ly93d3cudzMub3JnLzIwMDAvc3ZnIiB4bWxuczp4bGluaz0iaHR0cDovL3d3dy53My5vcmcvMTk5OS94bGluayIgdmVyc2lvbj0iMS4xIiBpZD0ic3ZnMTEyODkxIiBpbmtzY2FwZTp2ZXJzaW9uPSIwLjkyLjMgKDI0MDU1NDYsIDIwMTgtMDMtMTEpIiBzb2RpcG9kaTpkb2NuYW1lPSJsb2dpY19hcHBzXzIuc3ZnIiB4PSIwcHgiIHk9IjBweCIgdmlld0JveD0iMCAwIDk3LjcyIDcxLjU1IiBzdHlsZT0iZW5hYmxlLWJhY2tncm91bmQ6bmV3IDAgMCA5Ny43MiA3MS41NTsiIHhtbDpzcGFjZT0icHJlc2VydmUiPiYjeGE7PHNvZGlwb2RpOm5hbWVkdmlldyBib3JkZXJjb2xvcj0iIzY2NjY2NiIgYm9yZGVyb3BhY2l0eT0iMSIgZml0LW1hcmdpbi1ib3R0b209IjAiIGZpdC1tYXJnaW4tbGVmdD0iMCIgZml0LW1hcmdpbi1yaWdodD0iMCIgZml0LW1hcmdpbi10b3A9IjAiIGdyaWR0b2xlcmFuY2U9IjEwIiBndWlkZXRvbGVyYW5jZT0iMTAiIGlkPSJuYW1lZHZpZXcxMTI4OTMiIGlua3NjYXBlOmN1cnJlbnQtbGF5ZXI9InN2ZzExMjg5MSIgaW5rc2NhcGU6Y3g9IjY1LjE0MzE5OCIgaW5rc2NhcGU6Y3k9IjQ3LjY5OTcxNyIgaW5rc2NhcGU6cGFnZW9wYWNpdHk9IjAiIGlua3NjYXBlOnBhZ2VzaGFkb3c9IjIiIGlua3NjYXBlOndpbmRvdy1oZWlnaHQ9IjEwMTciIGlua3NjYXBlOndpbmRvdy1tYXhpbWl6ZWQ9IjEiIGlua3NjYXBlOndpbmRvdy13aWR0aD0iMTkyMCIgaW5rc2NhcGU6d2luZG93LXg9Ii04IiBpbmtzY2FwZTp3aW5kb3cteT0iLTgiIGlua3NjYXBlOnpvb209IjkuMDg4MDMyIiBvYmplY3R0b2xlcmFuY2U9IjEwIiBwYWdlY29sb3I9IiNmZmZmZmYiIHNob3dncmlkPSJmYWxzZSI+JiN4YTsJPC9zb2RpcG9kaTpuYW1lZHZpZXc+JiN4YTs8ZyBpZD0iZzExMjg4OSIgdHJhbnNmb3JtPSJ0cmFuc2xhdGUoMCwtOC40MDcxNDY5ZS01KSI+JiN4YTsJPHRpdGxlIGlkPSJ0aXRsZTExMjc4OSI+UGFnZS0xPC90aXRsZT4mI3hhOwk8ZyBpZD0iZ3JvdXAxMTUtMSI+JiN4YTsJCTx0aXRsZSBpZD0idGl0bGUxMTI3OTEiPkxvZ2ljIEFwcHMgIzI8L3RpdGxlPiYjeGE7CQk8ZyBpZD0ic2hhcGUxMTYtMiI+JiN4YTsJCQk8dGl0bGUgaWQ9InRpdGxlMTEyNzkzIj5TaGVldC4xMTY8L3RpdGxlPiYjeGE7CQkJPHBhdGggaWQ9InBhdGgxMTI3OTUiIGlua3NjYXBlOmNvbm5lY3Rvci1jdXJ2YXR1cmU9IjAiIHN0eWxlPSJmaWxsOiMzRjU3NjU7IiBkPSJNOTMuOTksMEMzLjYxLDAsMy42MSwwLDMuNjEsMCAgICAgQzAuNiwwLDAsMC43MiwwLDMuNzJjMCw2NC4yMywwLDY0LjIzLDAsNjQuMjNjMCwzLDAuNiwzLjYsMy42MSwzLjZjOTAuMzgsMCw5MC4zOCwwLDkwLjM4LDBjMy4xMiwwLDMuNzMtMC42LDMuNzMtMy42ICAgICBjMC02NC4yMywwLTY0LjIzLDAtNjQuMjNDOTcuNzIsMC43Miw5Ny4xMSwwLDkzLjk5LDB6Ii8+JiN4YTsJCTwvZz4mI3hhOwkJPGcgaWQ9InNoYXBlMTE3LTQiIHRyYW5zZm9ybT0idHJhbnNsYXRlKDIuNTI0MDEsLTYwLjAyNTMpIj4mI3hhOwkJCTx0aXRsZSBpZD0idGl0bGUxMTI3OTgiPlNoZWV0LjExNzwvdGl0bGU+JiN4YTsJCQk8cGF0aCBpZD0icGF0aDExMjgwMCIgaW5rc2NhcGU6Y29ubmVjdG9yLWN1cnZhdHVyZT0iMCIgc3R5bGU9ImZpbGw6IzI2QTlFMDsiIGQ9Ik05Ljc0LDY2Ljc1YzAsMi43Ni0yLjE3LDQuOC00LjgxLDQuOCAgICAgYy0yLjY1LDAtNC45My0yLjA0LTQuOTMtNC44YzAtMi42NCwyLjI4LTQuOCw0LjkzLTQuOEM3LjU3LDYxLjk1LDkuNzQsNjQuMTEsOS43NCw2Ni43NXoiLz4mI3hhOwkJPC9nPiYjeGE7CQk8ZyBpZD0ic2hhcGUxMTgtNiIgdHJhbnNmb3JtPSJ0cmFuc2xhdGUoNC41NjcyNSwtNjIuNjY2NCkiPiYjeGE7CQkJPHRpdGxlIGlkPSJ0aXRsZTExMjgwMyI+U2hlZXQuMTE4PC90aXRsZT4mI3hhOwkJCTxwYXRoIGlkPSJwYXRoMTEyODA1IiBpbmtzY2FwZTpjb25uZWN0b3ItY3VydmF0dXJlPSIwIiBzdHlsZT0iZmlsbDojRkZGRkZGOyIgZD0iTTEuOTIsNjguOTFsMS42OS0xLjU2SDIuMjhMMCw2OS4zOWwyLjI4LDIuMTYgICAgIGgxLjMzbC0xLjY5LTEuNjhoMy44NXYtMC45NkgxLjkyeiIvPiYjeGE7CQk8L2c+JiN4YTsJCTxnIGlkPSJzaGFwZTExOS04IiB0cmFuc2Zvcm09InRyYW5zbGF0ZSgxNC4wNjIzLC02Mi42NjY0KSI+JiN4YTsJCQk8dGl0bGUgaWQ9InRpdGxlMTEyODA4Ij5TaGVldC4xMTk8L3RpdGxlPiYjeGE7CQkJPHBhdGggaWQ9InBhdGgxMTI4MTAiIGlua3NjYXBlOmNvbm5lY3Rvci1jdXJ2YXR1cmU9IjAiIHN0eWxlPSJmaWxsOiNGRkZGRkY7IiBkPSJNMCw2Ni45OXY0LjU2aDgxLjM3di00LjU2SDB6Ii8+JiN4YTsJCTwvZz4mI3hhOwkJPGcgaWQ9InNoYXBlMTIwLTEwIiB0cmFuc2Zvcm09InRyYW5zbGF0ZSgyNS4xMTk5LC0yMC43MDEzKSI+JiN4YTsJCQk8dGl0bGUgaWQ9InRpdGxlMTEyODEzIj5TaGVldC4xMjA8L3RpdGxlPiYjeGE7CQkJPHBhdGggaWQ9InBhdGgxMTI4MTUiIGlua3NjYXBlOmNvbm5lY3Rvci1jdXJ2YXR1cmU9IjAiIHN0eWxlPSJmaWxsOiNGRkZGRkY7IiBkPSJNNDUuNzksNjEuMTFjMC0yLjQxLTEuOTItNC40NS00LjQ0LTQuNDUgICAgIGMtNi43NCwwLTYuNzQsMC02Ljc0LDBjLTUuODgtNS43Ni01Ljg4LTUuNzYtNS44OC01Ljc2Yy0xNC40MywwLTE0LjQzLDAtMTQuNDMsMGMtNi4xMyw1Ljg4LTYuMTMsNS44OC02LjEzLDUuODggICAgIGMtMy43MiwwLjM2LTYuNzMsMy40OS02LjczLDcuMzNjMCwxLjQ0LDAsMS40NCwwLDEuNDRjLTEuNDQsMC0xLjQ0LDAtMS40NCwwYzAsMi44OCwwLDIuODgsMCwyLjg4YzYuMjUsMCw2LjI1LDAsNi4yNSwwICAgICBjMC42LDEuOCwyLjI4LDMuMTIsNC4yMSwzLjEyYzEuOTIsMCwzLjQ4LTEuMzIsNC4wOC0zLjEyYzE4LjI3LDAsMTguMjcsMCwxOC4yNywwYzAuNzIsMS44LDIuMjksMy4xMiw0LjIxLDMuMTIgICAgIHMzLjQ4LTEuMzIsNC4yMS0zLjEyYzYsMCw2LDAsNiwwYzAtMi44OCwwLTIuODgsMC0yLjg4Yy0xLjQ0LDAtMS40NCwwLTEuNDQsMEw0NS43OSw2MS4xMXogTTQyLjkxLDYxLjExYzAsNC40NCwwLDQuNDQsMCw0LjQ0ICAgICBjLTEuNjgsMC0xLjY4LDAtMS42OCwwYy0wLjczLTEuNjgtMi4yOS0zLTQuMjEtM3MtMy40OSwxLjMyLTQuMjEsM2MtMTIuMTQsMC0xMi4xNCwwLTEyLjE0LDBjMC01Ljg4LDAtNS44OCwwLTUuODggICAgIGMyMC42OCwwLDIwLjY4LDAsMjAuNjgsMEM0Mi4zMSw1OS42Nyw0Mi45MSw2MC4yNyw0Mi45MSw2MS4xMXogTTMwLjQxLDU2LjY2Yy05Ljc0LDAtOS43NCwwLTkuNzQsMGMwLTIuODgsMC0yLjg4LDAtMi44OCAgICAgYzYuODUsMCw2Ljg1LDAsNi44NSwwTDMwLjQxLDU2LjY2eiBNMTUuMzgsNTMuNzhjMi40MSwwLDIuNDEsMCwyLjQxLDBjMCwyLjg4LDAsMi44OCwwLDIuODhjLTUuMjksMC01LjI5LDAtNS4yOSwwTDE1LjM4LDUzLjc4eiAgICAgIE00LjQ1LDY0LjExYzAtMi41MiwxLjkyLTQuNDQsNC41Ni00LjQ0YzguNzgsMCw4Ljc4LDAsOC43OCwwYzAsNS44OCwwLDUuODgsMCw1Ljg4Yy0zLjI1LDAtMy4yNSwwLTMuMjUsMCAgICAgYy0wLjYtMS42OC0yLjE2LTMtNC4wOC0zYy0xLjkzLDAtMy42MSwxLjMyLTQuMjEsM2MtMS44LDAtMS44LDAtMS44LDBMNC40NSw2NC4xMXogTTEwLjQ2LDY4LjQzYy0wLjg0LDAtMS40NS0wLjYtMS40NS0xLjQ0ICAgICBjMC0wLjcyLDAuNjEtMS40NCwxLjQ1LTEuNDRjMC43MiwwLDEuNDQsMC43MiwxLjQ0LDEuNDRDMTEuOSw2Ny44MywxMS4xOCw2OC40MywxMC40Niw2OC40M3ogTTM3LjAyLDY4LjQzICAgICBjLTAuODQsMC0xLjQ0LTAuNi0xLjQ0LTEuNDRjMC0wLjcyLDAuNi0xLjQ0LDEuNDQtMS40NHMxLjQ0LDAuNzIsMS40NCwxLjQ0QzM4LjQ2LDY3LjgzLDM3Ljg2LDY4LjQzLDM3LjAyLDY4LjQzeiIvPiYjeGE7CQk8L2c+JiN4YTsJCTxnIGlkPSJzaGFwZTEyMS0xMiIgdHJhbnNmb3JtPSJ0cmFuc2xhdGUoMi4zMzYwMiwtNC4wNTAxNSkiPiYjeGE7CQkJPHRpdGxlIGlkPSJ0aXRsZTExMjgxOCI+U2hlZXQuMTIxPC90aXRsZT4mI3hhOwkJCTxwYXRoIGlkPSJwYXRoMTEyODIwIiBpbmtzY2FwZTpjb25uZWN0b3ItY3VydmF0dXJlPSIwIiBzdHlsZT0iZmlsbDojMDBCMEYwOyIgZD0iTTAsMTYuNzl2NTQuNzZoOTMuMDRWMTYuNzlIMHoiLz4mI3hhOwkJPC9nPiYjeGE7CQk8ZyBpZD0ic2hhcGUxMjItMTQiIHRyYW5zZm9ybT0idHJhbnNsYXRlKDM4LjY1MjYsLTQ3LjM2MjcpIj4mI3hhOwkJCTx0aXRsZSBpZD0idGl0bGUxMTI4MjMiPlNoZWV0LjEyMjwvdGl0bGU+JiN4YTsJCQk8cGF0aCBpZD0icGF0aDExMjgyNSIgaW5rc2NhcGU6Y29ubmVjdG9yLWN1cnZhdHVyZT0iMCIgc3R5bGU9ImZpbGw6I0ZGRkZGRjsiIGQ9Ik0wLDYxLjk1djkuNmgxOC42MXYtOS42TDAsNjEuOTV6Ii8+JiN4YTsJCTwvZz4mI3hhOwkJPGcgaWQ9InNoYXBlMTIzLTE2IiB0cmFuc2Zvcm09InRyYW5zbGF0ZSgzOC42NTI2LC01My40OTE3KSI+JiN4YTsJCQk8dGl0bGUgaWQ9InRpdGxlMTEyODI4Ij5TaGVldC4xMjM8L3RpdGxlPiYjeGE7CQkJPHBhdGggaWQ9InBhdGgxMTI4MzAiIGlua3NjYXBlOmNvbm5lY3Rvci1jdXJ2YXR1cmU9IjAiIHN0eWxlPSJmaWxsOiNGRjAwMDA7IiBkPSJNMCw2Ny45NnYzLjU5aDE4LjYxdi0zLjU5SDB6Ii8+JiN4YTsJCTwvZz4mI3hhOwkJPGcgaWQ9InNoYXBlMTI0LTE4IiB0cmFuc2Zvcm09InRyYW5zbGF0ZSgzOC45MDg4LC05LjMxMzIxKSI+JiN4YTsJCQk8dGl0bGUgaWQ9InRpdGxlMTEyODMzIj5TaGVldC4xMjQ8L3RpdGxlPiYjeGE7CQkJPHBhdGggaWQ9InBhdGgxMTI4MzUiIGlua3NjYXBlOmNvbm5lY3Rvci1jdXJ2YXR1cmU9IjAiIHN0eWxlPSJmaWxsOiNGRkZGRkY7IiBkPSJNMCw2MS45NXY5LjZoMTguNjF2LTkuNkwwLDYxLjk1eiIvPiYjeGE7CQk8L2c+JiN4YTsJCTxnIGlkPSJzaGFwZTEyNS0yMCIgdHJhbnNmb3JtPSJ0cmFuc2xhdGUoMzguOTA4OCwtMTUuNDQyMikiPiYjeGE7CQkJPHRpdGxlIGlkPSJ0aXRsZTExMjgzOCI+U2hlZXQuMTI1PC90aXRsZT4mI3hhOwkJCTxwYXRoIGlkPSJwYXRoMTEyODQwIiBpbmtzY2FwZTpjb25uZWN0b3ItY3VydmF0dXJlPSIwIiBzdHlsZT0iZmlsbDojQzAwMDAwOyIgZD0iTTAsNjcuOTZ2My41OWgxOC42MXYtMy41OUgweiIvPiYjeGE7CQk8L2c+JiN4YTsJCTxnIGlkPSJzaGFwZTEyNi0yMiIgdHJhbnNmb3JtPSJyb3RhdGUoOTAsNDYuMjA2OTUsNzEuMjI2MDUpIj4mI3hhOwkJCTx0aXRsZSBpZD0idGl0bGUxMTI4NDMiPlNoZWV0LjEyNjwvdGl0bGU+JiN4YTsJCQk8cGF0aCBpZD0icGF0aDExMjg0NSIgaW5rc2NhcGU6Y29ubmVjdG9yLWN1cnZhdHVyZT0iMCIgc3R5bGU9ImZpbGw6I0ZGRkZGRjsiIGQ9Ik0wLDY3LjQ4aDEuOThsMS45OCwyLjAzbC0xLjk4LDIuMDRIMCAgICAgbDEuOTgtMi4wNEwwLDY3LjQ4eiIvPiYjeGE7CQk8L2c+JiN4YTsJCTxnIGlkPSJzaGFwZTEyNy0yNCIgdHJhbnNmb3JtPSJ0cmFuc2xhdGUoMzguNDI2MywtMzguMTQyOCkiPiYjeGE7CQkJPHRpdGxlIGlkPSJ0aXRsZTExMjg0OCI+U2hlZXQuMTI3PC90aXRsZT4mI3hhOwkJCTxwYXRoIGlkPSJwYXRoMTEyODUwIiBpbmtzY2FwZTpjb25uZWN0b3ItY3VydmF0dXJlPSIwIiBzdHlsZT0iZmlsbDojM0Y1NzY1OyIgZD0iTTAsNjcuOTZ2My41OWgxOC42MXYtMy41OUgweiIvPiYjeGE7CQk8L2c+JiN4YTsJCTxnIGlkPSJzaGFwZTEyOC0yNiIgdHJhbnNmb3JtPSJ0cmFuc2xhdGUoMTkuNTc4OCwtMjQuNDg3NykiPiYjeGE7CQkJPHRpdGxlIGlkPSJ0aXRsZTExMjg1MyI+U2hlZXQuMTI4PC90aXRsZT4mI3hhOwkJCTxwYXRoIGlkPSJwYXRoMTEyODU1IiBpbmtzY2FwZTpjb25uZWN0b3ItY3VydmF0dXJlPSIwIiBzdHlsZT0iZmlsbDojRDhEOEQ4OyIgZD0iTTAsNTguMzh2MTMuMTdoMjguMDFWNTguMzhIMHoiLz4mI3hhOwkJPC9nPiYjeGE7CQk8ZyBpZD0ic2hhcGUxMjktMjgiIHRyYW5zZm9ybT0idHJhbnNsYXRlKDQ4LjMyNzUsLTI0LjQ4NzcpIj4mI3hhOwkJCTx0aXRsZSBpZD0idGl0bGUxMTI4NTgiPlNoZWV0LjEyOTwvdGl0bGU+JiN4YTsJCQk8cGF0aCBpZD0icGF0aDExMjg2MCIgaW5rc2NhcGU6Y29ubmVjdG9yLWN1cnZhdHVyZT0iMCIgc3R5bGU9ImZpbGw6I0Q4RDhEODsiIGQ9Ik0wLDU4LjM4djEzLjE3aDI4LjAxVjU4LjM4SDB6Ii8+JiN4YTsJCTwvZz4mI3hhOwkJPGcgaWQ9InNoYXBlMTMwLTMwIiB0cmFuc2Zvcm09InRyYW5zbGF0ZSgyNC43Nzc2LC0yNS42MTI3KSI+JiN4YTsJCQk8dGl0bGUgaWQ9InRpdGxlMTEyODYzIj5TaGVldC4xMzA8L3RpdGxlPiYjeGE7CQkJPHBhdGggaWQ9InBhdGgxMTI4NjUiIGlua3NjYXBlOmNvbm5lY3Rvci1jdXJ2YXR1cmU9IjAiIHN0eWxlPSJmaWxsOiNGRkZGRkY7IiBkPSJNMCw2MS45NXY5LjZoMTguNjF2LTkuNkwwLDYxLjk1eiIvPiYjeGE7CQk8L2c+JiN4YTsJCTxnIGlkPSJzaGFwZTEzMS0zMiIgdHJhbnNmb3JtPSJ0cmFuc2xhdGUoMjQuNzc3NiwtMzEuNzQxNykiPiYjeGE7CQkJPHRpdGxlIGlkPSJ0aXRsZTExMjg2OCI+U2hlZXQuMTMxPC90aXRsZT4mI3hhOwkJCTxwYXRoIGlkPSJwYXRoMTEyODcwIiBpbmtzY2FwZTpjb25uZWN0b3ItY3VydmF0dXJlPSIwIiBzdHlsZT0iZmlsbDojMDAyMDYwOyIgZD0iTTAsNjcuOTZ2My41OWgxOC42MXYtMy41OUgweiIvPiYjeGE7CQk8L2c+JiN4YTsJCTxnIGlkPSJzaGFwZTEzMi0zNCIgdHJhbnNmb3JtPSJ0cmFuc2xhdGUoNTIuNzE1MSwtMjUuNjEyNykiPiYjeGE7CQkJPHRpdGxlIGlkPSJ0aXRsZTExMjg3MyI+U2hlZXQuMTMyPC90aXRsZT4mI3hhOwkJCTxwYXRoIGlkPSJwYXRoMTEyODc1IiBpbmtzY2FwZTpjb25uZWN0b3ItY3VydmF0dXJlPSIwIiBzdHlsZT0iZmlsbDojRkZGRkZGOyIgZD0iTTAsNjEuOTV2OS42aDE4LjYxdi05LjZMMCw2MS45NXoiLz4mI3hhOwkJPC9nPiYjeGE7CQk8ZyBpZD0ic2hhcGUxMzMtMzYiIHRyYW5zZm9ybT0idHJhbnNsYXRlKDUyLjcxNTEsLTMxLjc0MTcpIj4mI3hhOwkJCTx0aXRsZSBpZD0idGl0bGUxMTI4NzgiPlNoZWV0LjEzMzwvdGl0bGU+JiN4YTsJCQk8cGF0aCBpZD0icGF0aDExMjg4MCIgaW5rc2NhcGU6Y29ubmVjdG9yLWN1cnZhdHVyZT0iMCIgc3R5bGU9ImZpbGw6IzkyRDA1MDsiIGQ9Ik0wLDY3Ljk2djMuNTloMTguNjF2LTMuNTlIMHoiLz4mI3hhOwkJPC9nPiYjeGE7CQk8ZyBpZD0ic2hhcGUxMzQtMzgiIHRyYW5zZm9ybT0icm90YXRlKDkwLDM0LjkxOCw4Mi41NTUpIj4mI3hhOwkJCTx0aXRsZSBpZD0idGl0bGUxMTI4ODMiPlNoZWV0LjEzNDwvdGl0bGU+JiN4YTsJCQk8cGF0aCBpZD0icGF0aDExMjg4NSIgaW5rc2NhcGU6Y29ubmVjdG9yLWN1cnZhdHVyZT0iMCIgc3R5bGU9ImZpbGw6I0ZGRkZGRjsiIGQ9Ik0wLDY3LjQ4aDEuOThsMS45OCwyLjAzbC0xLjk4LDIuMDRIMCAgICAgbDEuOTgtMi4wNEwwLDY3LjQ4eiIvPiYjeGE7CQk8L2c+JiN4YTsJPC9nPiYjeGE7PC9nPiYjeGE7PC9zdmc+;" vertex="1" parent="1">
          <mxGeometry x="272.5" y="-1037.5" width="77.5" height="56.93" as="geometry" />
        </mxCell>
        <mxCell id="0ri98CfVSG6h3WFVPkks-34" value="" style="shape=image;verticalLabelPosition=bottom;labelBackgroundColor=#ffffff;verticalAlign=top;aspect=fixed;imageAspect=0;image=data:image/svg+xml,PHN2ZyB4bWxuczpjYz0iaHR0cDovL2NyZWF0aXZlY29tbW9ucy5vcmcvbnMjIiB4bWxuczpkYz0iaHR0cDovL3B1cmwub3JnL2RjL2VsZW1lbnRzLzEuMS8iIHhtbG5zOmlua3NjYXBlPSJodHRwOi8vd3d3Lmlua3NjYXBlLm9yZy9uYW1lc3BhY2VzL2lua3NjYXBlIiB4bWxuczpyZGY9Imh0dHA6Ly93d3cudzMub3JnLzE5OTkvMDIvMjItcmRmLXN5bnRheC1ucyMiIHhtbG5zOnNvZGlwb2RpPSJodHRwOi8vc29kaXBvZGkuc291cmNlZm9yZ2UubmV0L0RURC9zb2RpcG9kaS0wLmR0ZCIgeG1sbnM6c3ZnPSJodHRwOi8vd3d3LnczLm9yZy8yMDAwL3N2ZyIgeG1sbnM9Imh0dHA6Ly93d3cudzMub3JnLzIwMDAvc3ZnIiB4bWxuczp4bGluaz0iaHR0cDovL3d3dy53My5vcmcvMTk5OS94bGluayIgdmVyc2lvbj0iMS4xIiBpZD0ic3ZnMTEyODkxIiBpbmtzY2FwZTp2ZXJzaW9uPSIwLjkyLjMgKDI0MDU1NDYsIDIwMTgtMDMtMTEpIiBzb2RpcG9kaTpkb2NuYW1lPSJsb2dpY19hcHBzXzIuc3ZnIiB4PSIwcHgiIHk9IjBweCIgdmlld0JveD0iMCAwIDk3LjcyIDcxLjU1IiBzdHlsZT0iZW5hYmxlLWJhY2tncm91bmQ6bmV3IDAgMCA5Ny43MiA3MS41NTsiIHhtbDpzcGFjZT0icHJlc2VydmUiPiYjeGE7PHNvZGlwb2RpOm5hbWVkdmlldyBib3JkZXJjb2xvcj0iIzY2NjY2NiIgYm9yZGVyb3BhY2l0eT0iMSIgZml0LW1hcmdpbi1ib3R0b209IjAiIGZpdC1tYXJnaW4tbGVmdD0iMCIgZml0LW1hcmdpbi1yaWdodD0iMCIgZml0LW1hcmdpbi10b3A9IjAiIGdyaWR0b2xlcmFuY2U9IjEwIiBndWlkZXRvbGVyYW5jZT0iMTAiIGlkPSJuYW1lZHZpZXcxMTI4OTMiIGlua3NjYXBlOmN1cnJlbnQtbGF5ZXI9InN2ZzExMjg5MSIgaW5rc2NhcGU6Y3g9IjY1LjE0MzE5OCIgaW5rc2NhcGU6Y3k9IjQ3LjY5OTcxNyIgaW5rc2NhcGU6cGFnZW9wYWNpdHk9IjAiIGlua3NjYXBlOnBhZ2VzaGFkb3c9IjIiIGlua3NjYXBlOndpbmRvdy1oZWlnaHQ9IjEwMTciIGlua3NjYXBlOndpbmRvdy1tYXhpbWl6ZWQ9IjEiIGlua3NjYXBlOndpbmRvdy13aWR0aD0iMTkyMCIgaW5rc2NhcGU6d2luZG93LXg9Ii04IiBpbmtzY2FwZTp3aW5kb3cteT0iLTgiIGlua3NjYXBlOnpvb209IjkuMDg4MDMyIiBvYmplY3R0b2xlcmFuY2U9IjEwIiBwYWdlY29sb3I9IiNmZmZmZmYiIHNob3dncmlkPSJmYWxzZSI+JiN4YTsJPC9zb2RpcG9kaTpuYW1lZHZpZXc+JiN4YTs8ZyBpZD0iZzExMjg4OSIgdHJhbnNmb3JtPSJ0cmFuc2xhdGUoMCwtOC40MDcxNDY5ZS01KSI+JiN4YTsJPHRpdGxlIGlkPSJ0aXRsZTExMjc4OSI+UGFnZS0xPC90aXRsZT4mI3hhOwk8ZyBpZD0iZ3JvdXAxMTUtMSI+JiN4YTsJCTx0aXRsZSBpZD0idGl0bGUxMTI3OTEiPkxvZ2ljIEFwcHMgIzI8L3RpdGxlPiYjeGE7CQk8ZyBpZD0ic2hhcGUxMTYtMiI+JiN4YTsJCQk8dGl0bGUgaWQ9InRpdGxlMTEyNzkzIj5TaGVldC4xMTY8L3RpdGxlPiYjeGE7CQkJPHBhdGggaWQ9InBhdGgxMTI3OTUiIGlua3NjYXBlOmNvbm5lY3Rvci1jdXJ2YXR1cmU9IjAiIHN0eWxlPSJmaWxsOiMzRjU3NjU7IiBkPSJNOTMuOTksMEMzLjYxLDAsMy42MSwwLDMuNjEsMCAgICAgQzAuNiwwLDAsMC43MiwwLDMuNzJjMCw2NC4yMywwLDY0LjIzLDAsNjQuMjNjMCwzLDAuNiwzLjYsMy42MSwzLjZjOTAuMzgsMCw5MC4zOCwwLDkwLjM4LDBjMy4xMiwwLDMuNzMtMC42LDMuNzMtMy42ICAgICBjMC02NC4yMywwLTY0LjIzLDAtNjQuMjNDOTcuNzIsMC43Miw5Ny4xMSwwLDkzLjk5LDB6Ii8+JiN4YTsJCTwvZz4mI3hhOwkJPGcgaWQ9InNoYXBlMTE3LTQiIHRyYW5zZm9ybT0idHJhbnNsYXRlKDIuNTI0MDEsLTYwLjAyNTMpIj4mI3hhOwkJCTx0aXRsZSBpZD0idGl0bGUxMTI3OTgiPlNoZWV0LjExNzwvdGl0bGU+JiN4YTsJCQk8cGF0aCBpZD0icGF0aDExMjgwMCIgaW5rc2NhcGU6Y29ubmVjdG9yLWN1cnZhdHVyZT0iMCIgc3R5bGU9ImZpbGw6IzI2QTlFMDsiIGQ9Ik05Ljc0LDY2Ljc1YzAsMi43Ni0yLjE3LDQuOC00LjgxLDQuOCAgICAgYy0yLjY1LDAtNC45My0yLjA0LTQuOTMtNC44YzAtMi42NCwyLjI4LTQuOCw0LjkzLTQuOEM3LjU3LDYxLjk1LDkuNzQsNjQuMTEsOS43NCw2Ni43NXoiLz4mI3hhOwkJPC9nPiYjeGE7CQk8ZyBpZD0ic2hhcGUxMTgtNiIgdHJhbnNmb3JtPSJ0cmFuc2xhdGUoNC41NjcyNSwtNjIuNjY2NCkiPiYjeGE7CQkJPHRpdGxlIGlkPSJ0aXRsZTExMjgwMyI+U2hlZXQuMTE4PC90aXRsZT4mI3hhOwkJCTxwYXRoIGlkPSJwYXRoMTEyODA1IiBpbmtzY2FwZTpjb25uZWN0b3ItY3VydmF0dXJlPSIwIiBzdHlsZT0iZmlsbDojRkZGRkZGOyIgZD0iTTEuOTIsNjguOTFsMS42OS0xLjU2SDIuMjhMMCw2OS4zOWwyLjI4LDIuMTYgICAgIGgxLjMzbC0xLjY5LTEuNjhoMy44NXYtMC45NkgxLjkyeiIvPiYjeGE7CQk8L2c+JiN4YTsJCTxnIGlkPSJzaGFwZTExOS04IiB0cmFuc2Zvcm09InRyYW5zbGF0ZSgxNC4wNjIzLC02Mi42NjY0KSI+JiN4YTsJCQk8dGl0bGUgaWQ9InRpdGxlMTEyODA4Ij5TaGVldC4xMTk8L3RpdGxlPiYjeGE7CQkJPHBhdGggaWQ9InBhdGgxMTI4MTAiIGlua3NjYXBlOmNvbm5lY3Rvci1jdXJ2YXR1cmU9IjAiIHN0eWxlPSJmaWxsOiNGRkZGRkY7IiBkPSJNMCw2Ni45OXY0LjU2aDgxLjM3di00LjU2SDB6Ii8+JiN4YTsJCTwvZz4mI3hhOwkJPGcgaWQ9InNoYXBlMTIwLTEwIiB0cmFuc2Zvcm09InRyYW5zbGF0ZSgyNS4xMTk5LC0yMC43MDEzKSI+JiN4YTsJCQk8dGl0bGUgaWQ9InRpdGxlMTEyODEzIj5TaGVldC4xMjA8L3RpdGxlPiYjeGE7CQkJPHBhdGggaWQ9InBhdGgxMTI4MTUiIGlua3NjYXBlOmNvbm5lY3Rvci1jdXJ2YXR1cmU9IjAiIHN0eWxlPSJmaWxsOiNGRkZGRkY7IiBkPSJNNDUuNzksNjEuMTFjMC0yLjQxLTEuOTItNC40NS00LjQ0LTQuNDUgICAgIGMtNi43NCwwLTYuNzQsMC02Ljc0LDBjLTUuODgtNS43Ni01Ljg4LTUuNzYtNS44OC01Ljc2Yy0xNC40MywwLTE0LjQzLDAtMTQuNDMsMGMtNi4xMyw1Ljg4LTYuMTMsNS44OC02LjEzLDUuODggICAgIGMtMy43MiwwLjM2LTYuNzMsMy40OS02LjczLDcuMzNjMCwxLjQ0LDAsMS40NCwwLDEuNDRjLTEuNDQsMC0xLjQ0LDAtMS40NCwwYzAsMi44OCwwLDIuODgsMCwyLjg4YzYuMjUsMCw2LjI1LDAsNi4yNSwwICAgICBjMC42LDEuOCwyLjI4LDMuMTIsNC4yMSwzLjEyYzEuOTIsMCwzLjQ4LTEuMzIsNC4wOC0zLjEyYzE4LjI3LDAsMTguMjcsMCwxOC4yNywwYzAuNzIsMS44LDIuMjksMy4xMiw0LjIxLDMuMTIgICAgIHMzLjQ4LTEuMzIsNC4yMS0zLjEyYzYsMCw2LDAsNiwwYzAtMi44OCwwLTIuODgsMC0yLjg4Yy0xLjQ0LDAtMS40NCwwLTEuNDQsMEw0NS43OSw2MS4xMXogTTQyLjkxLDYxLjExYzAsNC40NCwwLDQuNDQsMCw0LjQ0ICAgICBjLTEuNjgsMC0xLjY4LDAtMS42OCwwYy0wLjczLTEuNjgtMi4yOS0zLTQuMjEtM3MtMy40OSwxLjMyLTQuMjEsM2MtMTIuMTQsMC0xMi4xNCwwLTEyLjE0LDBjMC01Ljg4LDAtNS44OCwwLTUuODggICAgIGMyMC42OCwwLDIwLjY4LDAsMjAuNjgsMEM0Mi4zMSw1OS42Nyw0Mi45MSw2MC4yNyw0Mi45MSw2MS4xMXogTTMwLjQxLDU2LjY2Yy05Ljc0LDAtOS43NCwwLTkuNzQsMGMwLTIuODgsMC0yLjg4LDAtMi44OCAgICAgYzYuODUsMCw2Ljg1LDAsNi44NSwwTDMwLjQxLDU2LjY2eiBNMTUuMzgsNTMuNzhjMi40MSwwLDIuNDEsMCwyLjQxLDBjMCwyLjg4LDAsMi44OCwwLDIuODhjLTUuMjksMC01LjI5LDAtNS4yOSwwTDE1LjM4LDUzLjc4eiAgICAgIE00LjQ1LDY0LjExYzAtMi41MiwxLjkyLTQuNDQsNC41Ni00LjQ0YzguNzgsMCw4Ljc4LDAsOC43OCwwYzAsNS44OCwwLDUuODgsMCw1Ljg4Yy0zLjI1LDAtMy4yNSwwLTMuMjUsMCAgICAgYy0wLjYtMS42OC0yLjE2LTMtNC4wOC0zYy0xLjkzLDAtMy42MSwxLjMyLTQuMjEsM2MtMS44LDAtMS44LDAtMS44LDBMNC40NSw2NC4xMXogTTEwLjQ2LDY4LjQzYy0wLjg0LDAtMS40NS0wLjYtMS40NS0xLjQ0ICAgICBjMC0wLjcyLDAuNjEtMS40NCwxLjQ1LTEuNDRjMC43MiwwLDEuNDQsMC43MiwxLjQ0LDEuNDRDMTEuOSw2Ny44MywxMS4xOCw2OC40MywxMC40Niw2OC40M3ogTTM3LjAyLDY4LjQzICAgICBjLTAuODQsMC0xLjQ0LTAuNi0xLjQ0LTEuNDRjMC0wLjcyLDAuNi0xLjQ0LDEuNDQtMS40NHMxLjQ0LDAuNzIsMS40NCwxLjQ0QzM4LjQ2LDY3LjgzLDM3Ljg2LDY4LjQzLDM3LjAyLDY4LjQzeiIvPiYjeGE7CQk8L2c+JiN4YTsJCTxnIGlkPSJzaGFwZTEyMS0xMiIgdHJhbnNmb3JtPSJ0cmFuc2xhdGUoMi4zMzYwMiwtNC4wNTAxNSkiPiYjeGE7CQkJPHRpdGxlIGlkPSJ0aXRsZTExMjgxOCI+U2hlZXQuMTIxPC90aXRsZT4mI3hhOwkJCTxwYXRoIGlkPSJwYXRoMTEyODIwIiBpbmtzY2FwZTpjb25uZWN0b3ItY3VydmF0dXJlPSIwIiBzdHlsZT0iZmlsbDojMDBCMEYwOyIgZD0iTTAsMTYuNzl2NTQuNzZoOTMuMDRWMTYuNzlIMHoiLz4mI3hhOwkJPC9nPiYjeGE7CQk8ZyBpZD0ic2hhcGUxMjItMTQiIHRyYW5zZm9ybT0idHJhbnNsYXRlKDM4LjY1MjYsLTQ3LjM2MjcpIj4mI3hhOwkJCTx0aXRsZSBpZD0idGl0bGUxMTI4MjMiPlNoZWV0LjEyMjwvdGl0bGU+JiN4YTsJCQk8cGF0aCBpZD0icGF0aDExMjgyNSIgaW5rc2NhcGU6Y29ubmVjdG9yLWN1cnZhdHVyZT0iMCIgc3R5bGU9ImZpbGw6I0ZGRkZGRjsiIGQ9Ik0wLDYxLjk1djkuNmgxOC42MXYtOS42TDAsNjEuOTV6Ii8+JiN4YTsJCTwvZz4mI3hhOwkJPGcgaWQ9InNoYXBlMTIzLTE2IiB0cmFuc2Zvcm09InRyYW5zbGF0ZSgzOC42NTI2LC01My40OTE3KSI+JiN4YTsJCQk8dGl0bGUgaWQ9InRpdGxlMTEyODI4Ij5TaGVldC4xMjM8L3RpdGxlPiYjeGE7CQkJPHBhdGggaWQ9InBhdGgxMTI4MzAiIGlua3NjYXBlOmNvbm5lY3Rvci1jdXJ2YXR1cmU9IjAiIHN0eWxlPSJmaWxsOiNGRjAwMDA7IiBkPSJNMCw2Ny45NnYzLjU5aDE4LjYxdi0zLjU5SDB6Ii8+JiN4YTsJCTwvZz4mI3hhOwkJPGcgaWQ9InNoYXBlMTI0LTE4IiB0cmFuc2Zvcm09InRyYW5zbGF0ZSgzOC45MDg4LC05LjMxMzIxKSI+JiN4YTsJCQk8dGl0bGUgaWQ9InRpdGxlMTEyODMzIj5TaGVldC4xMjQ8L3RpdGxlPiYjeGE7CQkJPHBhdGggaWQ9InBhdGgxMTI4MzUiIGlua3NjYXBlOmNvbm5lY3Rvci1jdXJ2YXR1cmU9IjAiIHN0eWxlPSJmaWxsOiNGRkZGRkY7IiBkPSJNMCw2MS45NXY5LjZoMTguNjF2LTkuNkwwLDYxLjk1eiIvPiYjeGE7CQk8L2c+JiN4YTsJCTxnIGlkPSJzaGFwZTEyNS0yMCIgdHJhbnNmb3JtPSJ0cmFuc2xhdGUoMzguOTA4OCwtMTUuNDQyMikiPiYjeGE7CQkJPHRpdGxlIGlkPSJ0aXRsZTExMjgzOCI+U2hlZXQuMTI1PC90aXRsZT4mI3hhOwkJCTxwYXRoIGlkPSJwYXRoMTEyODQwIiBpbmtzY2FwZTpjb25uZWN0b3ItY3VydmF0dXJlPSIwIiBzdHlsZT0iZmlsbDojQzAwMDAwOyIgZD0iTTAsNjcuOTZ2My41OWgxOC42MXYtMy41OUgweiIvPiYjeGE7CQk8L2c+JiN4YTsJCTxnIGlkPSJzaGFwZTEyNi0yMiIgdHJhbnNmb3JtPSJyb3RhdGUoOTAsNDYuMjA2OTUsNzEuMjI2MDUpIj4mI3hhOwkJCTx0aXRsZSBpZD0idGl0bGUxMTI4NDMiPlNoZWV0LjEyNjwvdGl0bGU+JiN4YTsJCQk8cGF0aCBpZD0icGF0aDExMjg0NSIgaW5rc2NhcGU6Y29ubmVjdG9yLWN1cnZhdHVyZT0iMCIgc3R5bGU9ImZpbGw6I0ZGRkZGRjsiIGQ9Ik0wLDY3LjQ4aDEuOThsMS45OCwyLjAzbC0xLjk4LDIuMDRIMCAgICAgbDEuOTgtMi4wNEwwLDY3LjQ4eiIvPiYjeGE7CQk8L2c+JiN4YTsJCTxnIGlkPSJzaGFwZTEyNy0yNCIgdHJhbnNmb3JtPSJ0cmFuc2xhdGUoMzguNDI2MywtMzguMTQyOCkiPiYjeGE7CQkJPHRpdGxlIGlkPSJ0aXRsZTExMjg0OCI+U2hlZXQuMTI3PC90aXRsZT4mI3hhOwkJCTxwYXRoIGlkPSJwYXRoMTEyODUwIiBpbmtzY2FwZTpjb25uZWN0b3ItY3VydmF0dXJlPSIwIiBzdHlsZT0iZmlsbDojM0Y1NzY1OyIgZD0iTTAsNjcuOTZ2My41OWgxOC42MXYtMy41OUgweiIvPiYjeGE7CQk8L2c+JiN4YTsJCTxnIGlkPSJzaGFwZTEyOC0yNiIgdHJhbnNmb3JtPSJ0cmFuc2xhdGUoMTkuNTc4OCwtMjQuNDg3NykiPiYjeGE7CQkJPHRpdGxlIGlkPSJ0aXRsZTExMjg1MyI+U2hlZXQuMTI4PC90aXRsZT4mI3hhOwkJCTxwYXRoIGlkPSJwYXRoMTEyODU1IiBpbmtzY2FwZTpjb25uZWN0b3ItY3VydmF0dXJlPSIwIiBzdHlsZT0iZmlsbDojRDhEOEQ4OyIgZD0iTTAsNTguMzh2MTMuMTdoMjguMDFWNTguMzhIMHoiLz4mI3hhOwkJPC9nPiYjeGE7CQk8ZyBpZD0ic2hhcGUxMjktMjgiIHRyYW5zZm9ybT0idHJhbnNsYXRlKDQ4LjMyNzUsLTI0LjQ4NzcpIj4mI3hhOwkJCTx0aXRsZSBpZD0idGl0bGUxMTI4NTgiPlNoZWV0LjEyOTwvdGl0bGU+JiN4YTsJCQk8cGF0aCBpZD0icGF0aDExMjg2MCIgaW5rc2NhcGU6Y29ubmVjdG9yLWN1cnZhdHVyZT0iMCIgc3R5bGU9ImZpbGw6I0Q4RDhEODsiIGQ9Ik0wLDU4LjM4djEzLjE3aDI4LjAxVjU4LjM4SDB6Ii8+JiN4YTsJCTwvZz4mI3hhOwkJPGcgaWQ9InNoYXBlMTMwLTMwIiB0cmFuc2Zvcm09InRyYW5zbGF0ZSgyNC43Nzc2LC0yNS42MTI3KSI+JiN4YTsJCQk8dGl0bGUgaWQ9InRpdGxlMTEyODYzIj5TaGVldC4xMzA8L3RpdGxlPiYjeGE7CQkJPHBhdGggaWQ9InBhdGgxMTI4NjUiIGlua3NjYXBlOmNvbm5lY3Rvci1jdXJ2YXR1cmU9IjAiIHN0eWxlPSJmaWxsOiNGRkZGRkY7IiBkPSJNMCw2MS45NXY5LjZoMTguNjF2LTkuNkwwLDYxLjk1eiIvPiYjeGE7CQk8L2c+JiN4YTsJCTxnIGlkPSJzaGFwZTEzMS0zMiIgdHJhbnNmb3JtPSJ0cmFuc2xhdGUoMjQuNzc3NiwtMzEuNzQxNykiPiYjeGE7CQkJPHRpdGxlIGlkPSJ0aXRsZTExMjg2OCI+U2hlZXQuMTMxPC90aXRsZT4mI3hhOwkJCTxwYXRoIGlkPSJwYXRoMTEyODcwIiBpbmtzY2FwZTpjb25uZWN0b3ItY3VydmF0dXJlPSIwIiBzdHlsZT0iZmlsbDojMDAyMDYwOyIgZD0iTTAsNjcuOTZ2My41OWgxOC42MXYtMy41OUgweiIvPiYjeGE7CQk8L2c+JiN4YTsJCTxnIGlkPSJzaGFwZTEzMi0zNCIgdHJhbnNmb3JtPSJ0cmFuc2xhdGUoNTIuNzE1MSwtMjUuNjEyNykiPiYjeGE7CQkJPHRpdGxlIGlkPSJ0aXRsZTExMjg3MyI+U2hlZXQuMTMyPC90aXRsZT4mI3hhOwkJCTxwYXRoIGlkPSJwYXRoMTEyODc1IiBpbmtzY2FwZTpjb25uZWN0b3ItY3VydmF0dXJlPSIwIiBzdHlsZT0iZmlsbDojRkZGRkZGOyIgZD0iTTAsNjEuOTV2OS42aDE4LjYxdi05LjZMMCw2MS45NXoiLz4mI3hhOwkJPC9nPiYjeGE7CQk8ZyBpZD0ic2hhcGUxMzMtMzYiIHRyYW5zZm9ybT0idHJhbnNsYXRlKDUyLjcxNTEsLTMxLjc0MTcpIj4mI3hhOwkJCTx0aXRsZSBpZD0idGl0bGUxMTI4NzgiPlNoZWV0LjEzMzwvdGl0bGU+JiN4YTsJCQk8cGF0aCBpZD0icGF0aDExMjg4MCIgaW5rc2NhcGU6Y29ubmVjdG9yLWN1cnZhdHVyZT0iMCIgc3R5bGU9ImZpbGw6IzkyRDA1MDsiIGQ9Ik0wLDY3Ljk2djMuNTloMTguNjF2LTMuNTlIMHoiLz4mI3hhOwkJPC9nPiYjeGE7CQk8ZyBpZD0ic2hhcGUxMzQtMzgiIHRyYW5zZm9ybT0icm90YXRlKDkwLDM0LjkxOCw4Mi41NTUpIj4mI3hhOwkJCTx0aXRsZSBpZD0idGl0bGUxMTI4ODMiPlNoZWV0LjEzNDwvdGl0bGU+JiN4YTsJCQk8cGF0aCBpZD0icGF0aDExMjg4NSIgaW5rc2NhcGU6Y29ubmVjdG9yLWN1cnZhdHVyZT0iMCIgc3R5bGU9ImZpbGw6I0ZGRkZGRjsiIGQ9Ik0wLDY3LjQ4aDEuOThsMS45OCwyLjAzbC0xLjk4LDIuMDRIMCAgICAgbDEuOTgtMi4wNEwwLDY3LjQ4eiIvPiYjeGE7CQk8L2c+JiN4YTsJPC9nPiYjeGE7PC9nPiYjeGE7PC9zdmc+;" vertex="1" parent="1">
          <mxGeometry x="195.86" y="-1021.25" width="51.05" height="37.5" as="geometry" />
        </mxCell>
        <mxCell id="0ri98CfVSG6h3WFVPkks-35" value="" style="shape=image;verticalLabelPosition=bottom;labelBackgroundColor=#ffffff;verticalAlign=top;aspect=fixed;imageAspect=0;image=data:image/svg+xml,PHN2ZyB4bWxuczpjYz0iaHR0cDovL2NyZWF0aXZlY29tbW9ucy5vcmcvbnMjIiB4bWxuczpkYz0iaHR0cDovL3B1cmwub3JnL2RjL2VsZW1lbnRzLzEuMS8iIHhtbG5zOmlua3NjYXBlPSJodHRwOi8vd3d3Lmlua3NjYXBlLm9yZy9uYW1lc3BhY2VzL2lua3NjYXBlIiB4bWxuczpyZGY9Imh0dHA6Ly93d3cudzMub3JnLzE5OTkvMDIvMjItcmRmLXN5bnRheC1ucyMiIHhtbG5zOnNvZGlwb2RpPSJodHRwOi8vc29kaXBvZGkuc291cmNlZm9yZ2UubmV0L0RURC9zb2RpcG9kaS0wLmR0ZCIgeG1sbnM6c3ZnPSJodHRwOi8vd3d3LnczLm9yZy8yMDAwL3N2ZyIgeG1sbnM9Imh0dHA6Ly93d3cudzMub3JnLzIwMDAvc3ZnIiB4bWxuczp4bGluaz0iaHR0cDovL3d3dy53My5vcmcvMTk5OS94bGluayIgdmVyc2lvbj0iMS4xIiBpZD0ic3ZnMTEyODkxIiBpbmtzY2FwZTp2ZXJzaW9uPSIwLjkyLjMgKDI0MDU1NDYsIDIwMTgtMDMtMTEpIiBzb2RpcG9kaTpkb2NuYW1lPSJsb2dpY19hcHBzXzIuc3ZnIiB4PSIwcHgiIHk9IjBweCIgdmlld0JveD0iMCAwIDk3LjcyIDcxLjU1IiBzdHlsZT0iZW5hYmxlLWJhY2tncm91bmQ6bmV3IDAgMCA5Ny43MiA3MS41NTsiIHhtbDpzcGFjZT0icHJlc2VydmUiPiYjeGE7PHNvZGlwb2RpOm5hbWVkdmlldyBib3JkZXJjb2xvcj0iIzY2NjY2NiIgYm9yZGVyb3BhY2l0eT0iMSIgZml0LW1hcmdpbi1ib3R0b209IjAiIGZpdC1tYXJnaW4tbGVmdD0iMCIgZml0LW1hcmdpbi1yaWdodD0iMCIgZml0LW1hcmdpbi10b3A9IjAiIGdyaWR0b2xlcmFuY2U9IjEwIiBndWlkZXRvbGVyYW5jZT0iMTAiIGlkPSJuYW1lZHZpZXcxMTI4OTMiIGlua3NjYXBlOmN1cnJlbnQtbGF5ZXI9InN2ZzExMjg5MSIgaW5rc2NhcGU6Y3g9IjY1LjE0MzE5OCIgaW5rc2NhcGU6Y3k9IjQ3LjY5OTcxNyIgaW5rc2NhcGU6cGFnZW9wYWNpdHk9IjAiIGlua3NjYXBlOnBhZ2VzaGFkb3c9IjIiIGlua3NjYXBlOndpbmRvdy1oZWlnaHQ9IjEwMTciIGlua3NjYXBlOndpbmRvdy1tYXhpbWl6ZWQ9IjEiIGlua3NjYXBlOndpbmRvdy13aWR0aD0iMTkyMCIgaW5rc2NhcGU6d2luZG93LXg9Ii04IiBpbmtzY2FwZTp3aW5kb3cteT0iLTgiIGlua3NjYXBlOnpvb209IjkuMDg4MDMyIiBvYmplY3R0b2xlcmFuY2U9IjEwIiBwYWdlY29sb3I9IiNmZmZmZmYiIHNob3dncmlkPSJmYWxzZSI+JiN4YTsJPC9zb2RpcG9kaTpuYW1lZHZpZXc+JiN4YTs8ZyBpZD0iZzExMjg4OSIgdHJhbnNmb3JtPSJ0cmFuc2xhdGUoMCwtOC40MDcxNDY5ZS01KSI+JiN4YTsJPHRpdGxlIGlkPSJ0aXRsZTExMjc4OSI+UGFnZS0xPC90aXRsZT4mI3hhOwk8ZyBpZD0iZ3JvdXAxMTUtMSI+JiN4YTsJCTx0aXRsZSBpZD0idGl0bGUxMTI3OTEiPkxvZ2ljIEFwcHMgIzI8L3RpdGxlPiYjeGE7CQk8ZyBpZD0ic2hhcGUxMTYtMiI+JiN4YTsJCQk8dGl0bGUgaWQ9InRpdGxlMTEyNzkzIj5TaGVldC4xMTY8L3RpdGxlPiYjeGE7CQkJPHBhdGggaWQ9InBhdGgxMTI3OTUiIGlua3NjYXBlOmNvbm5lY3Rvci1jdXJ2YXR1cmU9IjAiIHN0eWxlPSJmaWxsOiMzRjU3NjU7IiBkPSJNOTMuOTksMEMzLjYxLDAsMy42MSwwLDMuNjEsMCAgICAgQzAuNiwwLDAsMC43MiwwLDMuNzJjMCw2NC4yMywwLDY0LjIzLDAsNjQuMjNjMCwzLDAuNiwzLjYsMy42MSwzLjZjOTAuMzgsMCw5MC4zOCwwLDkwLjM4LDBjMy4xMiwwLDMuNzMtMC42LDMuNzMtMy42ICAgICBjMC02NC4yMywwLTY0LjIzLDAtNjQuMjNDOTcuNzIsMC43Miw5Ny4xMSwwLDkzLjk5LDB6Ii8+JiN4YTsJCTwvZz4mI3hhOwkJPGcgaWQ9InNoYXBlMTE3LTQiIHRyYW5zZm9ybT0idHJhbnNsYXRlKDIuNTI0MDEsLTYwLjAyNTMpIj4mI3hhOwkJCTx0aXRsZSBpZD0idGl0bGUxMTI3OTgiPlNoZWV0LjExNzwvdGl0bGU+JiN4YTsJCQk8cGF0aCBpZD0icGF0aDExMjgwMCIgaW5rc2NhcGU6Y29ubmVjdG9yLWN1cnZhdHVyZT0iMCIgc3R5bGU9ImZpbGw6IzI2QTlFMDsiIGQ9Ik05Ljc0LDY2Ljc1YzAsMi43Ni0yLjE3LDQuOC00LjgxLDQuOCAgICAgYy0yLjY1LDAtNC45My0yLjA0LTQuOTMtNC44YzAtMi42NCwyLjI4LTQuOCw0LjkzLTQuOEM3LjU3LDYxLjk1LDkuNzQsNjQuMTEsOS43NCw2Ni43NXoiLz4mI3hhOwkJPC9nPiYjeGE7CQk8ZyBpZD0ic2hhcGUxMTgtNiIgdHJhbnNmb3JtPSJ0cmFuc2xhdGUoNC41NjcyNSwtNjIuNjY2NCkiPiYjeGE7CQkJPHRpdGxlIGlkPSJ0aXRsZTExMjgwMyI+U2hlZXQuMTE4PC90aXRsZT4mI3hhOwkJCTxwYXRoIGlkPSJwYXRoMTEyODA1IiBpbmtzY2FwZTpjb25uZWN0b3ItY3VydmF0dXJlPSIwIiBzdHlsZT0iZmlsbDojRkZGRkZGOyIgZD0iTTEuOTIsNjguOTFsMS42OS0xLjU2SDIuMjhMMCw2OS4zOWwyLjI4LDIuMTYgICAgIGgxLjMzbC0xLjY5LTEuNjhoMy44NXYtMC45NkgxLjkyeiIvPiYjeGE7CQk8L2c+JiN4YTsJCTxnIGlkPSJzaGFwZTExOS04IiB0cmFuc2Zvcm09InRyYW5zbGF0ZSgxNC4wNjIzLC02Mi42NjY0KSI+JiN4YTsJCQk8dGl0bGUgaWQ9InRpdGxlMTEyODA4Ij5TaGVldC4xMTk8L3RpdGxlPiYjeGE7CQkJPHBhdGggaWQ9InBhdGgxMTI4MTAiIGlua3NjYXBlOmNvbm5lY3Rvci1jdXJ2YXR1cmU9IjAiIHN0eWxlPSJmaWxsOiNGRkZGRkY7IiBkPSJNMCw2Ni45OXY0LjU2aDgxLjM3di00LjU2SDB6Ii8+JiN4YTsJCTwvZz4mI3hhOwkJPGcgaWQ9InNoYXBlMTIwLTEwIiB0cmFuc2Zvcm09InRyYW5zbGF0ZSgyNS4xMTk5LC0yMC43MDEzKSI+JiN4YTsJCQk8dGl0bGUgaWQ9InRpdGxlMTEyODEzIj5TaGVldC4xMjA8L3RpdGxlPiYjeGE7CQkJPHBhdGggaWQ9InBhdGgxMTI4MTUiIGlua3NjYXBlOmNvbm5lY3Rvci1jdXJ2YXR1cmU9IjAiIHN0eWxlPSJmaWxsOiNGRkZGRkY7IiBkPSJNNDUuNzksNjEuMTFjMC0yLjQxLTEuOTItNC40NS00LjQ0LTQuNDUgICAgIGMtNi43NCwwLTYuNzQsMC02Ljc0LDBjLTUuODgtNS43Ni01Ljg4LTUuNzYtNS44OC01Ljc2Yy0xNC40MywwLTE0LjQzLDAtMTQuNDMsMGMtNi4xMyw1Ljg4LTYuMTMsNS44OC02LjEzLDUuODggICAgIGMtMy43MiwwLjM2LTYuNzMsMy40OS02LjczLDcuMzNjMCwxLjQ0LDAsMS40NCwwLDEuNDRjLTEuNDQsMC0xLjQ0LDAtMS40NCwwYzAsMi44OCwwLDIuODgsMCwyLjg4YzYuMjUsMCw2LjI1LDAsNi4yNSwwICAgICBjMC42LDEuOCwyLjI4LDMuMTIsNC4yMSwzLjEyYzEuOTIsMCwzLjQ4LTEuMzIsNC4wOC0zLjEyYzE4LjI3LDAsMTguMjcsMCwxOC4yNywwYzAuNzIsMS44LDIuMjksMy4xMiw0LjIxLDMuMTIgICAgIHMzLjQ4LTEuMzIsNC4yMS0zLjEyYzYsMCw2LDAsNiwwYzAtMi44OCwwLTIuODgsMC0yLjg4Yy0xLjQ0LDAtMS40NCwwLTEuNDQsMEw0NS43OSw2MS4xMXogTTQyLjkxLDYxLjExYzAsNC40NCwwLDQuNDQsMCw0LjQ0ICAgICBjLTEuNjgsMC0xLjY4LDAtMS42OCwwYy0wLjczLTEuNjgtMi4yOS0zLTQuMjEtM3MtMy40OSwxLjMyLTQuMjEsM2MtMTIuMTQsMC0xMi4xNCwwLTEyLjE0LDBjMC01Ljg4LDAtNS44OCwwLTUuODggICAgIGMyMC42OCwwLDIwLjY4LDAsMjAuNjgsMEM0Mi4zMSw1OS42Nyw0Mi45MSw2MC4yNyw0Mi45MSw2MS4xMXogTTMwLjQxLDU2LjY2Yy05Ljc0LDAtOS43NCwwLTkuNzQsMGMwLTIuODgsMC0yLjg4LDAtMi44OCAgICAgYzYuODUsMCw2Ljg1LDAsNi44NSwwTDMwLjQxLDU2LjY2eiBNMTUuMzgsNTMuNzhjMi40MSwwLDIuNDEsMCwyLjQxLDBjMCwyLjg4LDAsMi44OCwwLDIuODhjLTUuMjksMC01LjI5LDAtNS4yOSwwTDE1LjM4LDUzLjc4eiAgICAgIE00LjQ1LDY0LjExYzAtMi41MiwxLjkyLTQuNDQsNC41Ni00LjQ0YzguNzgsMCw4Ljc4LDAsOC43OCwwYzAsNS44OCwwLDUuODgsMCw1Ljg4Yy0zLjI1LDAtMy4yNSwwLTMuMjUsMCAgICAgYy0wLjYtMS42OC0yLjE2LTMtNC4wOC0zYy0xLjkzLDAtMy42MSwxLjMyLTQuMjEsM2MtMS44LDAtMS44LDAtMS44LDBMNC40NSw2NC4xMXogTTEwLjQ2LDY4LjQzYy0wLjg0LDAtMS40NS0wLjYtMS40NS0xLjQ0ICAgICBjMC0wLjcyLDAuNjEtMS40NCwxLjQ1LTEuNDRjMC43MiwwLDEuNDQsMC43MiwxLjQ0LDEuNDRDMTEuOSw2Ny44MywxMS4xOCw2OC40MywxMC40Niw2OC40M3ogTTM3LjAyLDY4LjQzICAgICBjLTAuODQsMC0xLjQ0LTAuNi0xLjQ0LTEuNDRjMC0wLjcyLDAuNi0xLjQ0LDEuNDQtMS40NHMxLjQ0LDAuNzIsMS40NCwxLjQ0QzM4LjQ2LDY3LjgzLDM3Ljg2LDY4LjQzLDM3LjAyLDY4LjQzeiIvPiYjeGE7CQk8L2c+JiN4YTsJCTxnIGlkPSJzaGFwZTEyMS0xMiIgdHJhbnNmb3JtPSJ0cmFuc2xhdGUoMi4zMzYwMiwtNC4wNTAxNSkiPiYjeGE7CQkJPHRpdGxlIGlkPSJ0aXRsZTExMjgxOCI+U2hlZXQuMTIxPC90aXRsZT4mI3hhOwkJCTxwYXRoIGlkPSJwYXRoMTEyODIwIiBpbmtzY2FwZTpjb25uZWN0b3ItY3VydmF0dXJlPSIwIiBzdHlsZT0iZmlsbDojMDBCMEYwOyIgZD0iTTAsMTYuNzl2NTQuNzZoOTMuMDRWMTYuNzlIMHoiLz4mI3hhOwkJPC9nPiYjeGE7CQk8ZyBpZD0ic2hhcGUxMjItMTQiIHRyYW5zZm9ybT0idHJhbnNsYXRlKDM4LjY1MjYsLTQ3LjM2MjcpIj4mI3hhOwkJCTx0aXRsZSBpZD0idGl0bGUxMTI4MjMiPlNoZWV0LjEyMjwvdGl0bGU+JiN4YTsJCQk8cGF0aCBpZD0icGF0aDExMjgyNSIgaW5rc2NhcGU6Y29ubmVjdG9yLWN1cnZhdHVyZT0iMCIgc3R5bGU9ImZpbGw6I0ZGRkZGRjsiIGQ9Ik0wLDYxLjk1djkuNmgxOC42MXYtOS42TDAsNjEuOTV6Ii8+JiN4YTsJCTwvZz4mI3hhOwkJPGcgaWQ9InNoYXBlMTIzLTE2IiB0cmFuc2Zvcm09InRyYW5zbGF0ZSgzOC42NTI2LC01My40OTE3KSI+JiN4YTsJCQk8dGl0bGUgaWQ9InRpdGxlMTEyODI4Ij5TaGVldC4xMjM8L3RpdGxlPiYjeGE7CQkJPHBhdGggaWQ9InBhdGgxMTI4MzAiIGlua3NjYXBlOmNvbm5lY3Rvci1jdXJ2YXR1cmU9IjAiIHN0eWxlPSJmaWxsOiNGRjAwMDA7IiBkPSJNMCw2Ny45NnYzLjU5aDE4LjYxdi0zLjU5SDB6Ii8+JiN4YTsJCTwvZz4mI3hhOwkJPGcgaWQ9InNoYXBlMTI0LTE4IiB0cmFuc2Zvcm09InRyYW5zbGF0ZSgzOC45MDg4LC05LjMxMzIxKSI+JiN4YTsJCQk8dGl0bGUgaWQ9InRpdGxlMTEyODMzIj5TaGVldC4xMjQ8L3RpdGxlPiYjeGE7CQkJPHBhdGggaWQ9InBhdGgxMTI4MzUiIGlua3NjYXBlOmNvbm5lY3Rvci1jdXJ2YXR1cmU9IjAiIHN0eWxlPSJmaWxsOiNGRkZGRkY7IiBkPSJNMCw2MS45NXY5LjZoMTguNjF2LTkuNkwwLDYxLjk1eiIvPiYjeGE7CQk8L2c+JiN4YTsJCTxnIGlkPSJzaGFwZTEyNS0yMCIgdHJhbnNmb3JtPSJ0cmFuc2xhdGUoMzguOTA4OCwtMTUuNDQyMikiPiYjeGE7CQkJPHRpdGxlIGlkPSJ0aXRsZTExMjgzOCI+U2hlZXQuMTI1PC90aXRsZT4mI3hhOwkJCTxwYXRoIGlkPSJwYXRoMTEyODQwIiBpbmtzY2FwZTpjb25uZWN0b3ItY3VydmF0dXJlPSIwIiBzdHlsZT0iZmlsbDojQzAwMDAwOyIgZD0iTTAsNjcuOTZ2My41OWgxOC42MXYtMy41OUgweiIvPiYjeGE7CQk8L2c+JiN4YTsJCTxnIGlkPSJzaGFwZTEyNi0yMiIgdHJhbnNmb3JtPSJyb3RhdGUoOTAsNDYuMjA2OTUsNzEuMjI2MDUpIj4mI3hhOwkJCTx0aXRsZSBpZD0idGl0bGUxMTI4NDMiPlNoZWV0LjEyNjwvdGl0bGU+JiN4YTsJCQk8cGF0aCBpZD0icGF0aDExMjg0NSIgaW5rc2NhcGU6Y29ubmVjdG9yLWN1cnZhdHVyZT0iMCIgc3R5bGU9ImZpbGw6I0ZGRkZGRjsiIGQ9Ik0wLDY3LjQ4aDEuOThsMS45OCwyLjAzbC0xLjk4LDIuMDRIMCAgICAgbDEuOTgtMi4wNEwwLDY3LjQ4eiIvPiYjeGE7CQk8L2c+JiN4YTsJCTxnIGlkPSJzaGFwZTEyNy0yNCIgdHJhbnNmb3JtPSJ0cmFuc2xhdGUoMzguNDI2MywtMzguMTQyOCkiPiYjeGE7CQkJPHRpdGxlIGlkPSJ0aXRsZTExMjg0OCI+U2hlZXQuMTI3PC90aXRsZT4mI3hhOwkJCTxwYXRoIGlkPSJwYXRoMTEyODUwIiBpbmtzY2FwZTpjb25uZWN0b3ItY3VydmF0dXJlPSIwIiBzdHlsZT0iZmlsbDojM0Y1NzY1OyIgZD0iTTAsNjcuOTZ2My41OWgxOC42MXYtMy41OUgweiIvPiYjeGE7CQk8L2c+JiN4YTsJCTxnIGlkPSJzaGFwZTEyOC0yNiIgdHJhbnNmb3JtPSJ0cmFuc2xhdGUoMTkuNTc4OCwtMjQuNDg3NykiPiYjeGE7CQkJPHRpdGxlIGlkPSJ0aXRsZTExMjg1MyI+U2hlZXQuMTI4PC90aXRsZT4mI3hhOwkJCTxwYXRoIGlkPSJwYXRoMTEyODU1IiBpbmtzY2FwZTpjb25uZWN0b3ItY3VydmF0dXJlPSIwIiBzdHlsZT0iZmlsbDojRDhEOEQ4OyIgZD0iTTAsNTguMzh2MTMuMTdoMjguMDFWNTguMzhIMHoiLz4mI3hhOwkJPC9nPiYjeGE7CQk8ZyBpZD0ic2hhcGUxMjktMjgiIHRyYW5zZm9ybT0idHJhbnNsYXRlKDQ4LjMyNzUsLTI0LjQ4NzcpIj4mI3hhOwkJCTx0aXRsZSBpZD0idGl0bGUxMTI4NTgiPlNoZWV0LjEyOTwvdGl0bGU+JiN4YTsJCQk8cGF0aCBpZD0icGF0aDExMjg2MCIgaW5rc2NhcGU6Y29ubmVjdG9yLWN1cnZhdHVyZT0iMCIgc3R5bGU9ImZpbGw6I0Q4RDhEODsiIGQ9Ik0wLDU4LjM4djEzLjE3aDI4LjAxVjU4LjM4SDB6Ii8+JiN4YTsJCTwvZz4mI3hhOwkJPGcgaWQ9InNoYXBlMTMwLTMwIiB0cmFuc2Zvcm09InRyYW5zbGF0ZSgyNC43Nzc2LC0yNS42MTI3KSI+JiN4YTsJCQk8dGl0bGUgaWQ9InRpdGxlMTEyODYzIj5TaGVldC4xMzA8L3RpdGxlPiYjeGE7CQkJPHBhdGggaWQ9InBhdGgxMTI4NjUiIGlua3NjYXBlOmNvbm5lY3Rvci1jdXJ2YXR1cmU9IjAiIHN0eWxlPSJmaWxsOiNGRkZGRkY7IiBkPSJNMCw2MS45NXY5LjZoMTguNjF2LTkuNkwwLDYxLjk1eiIvPiYjeGE7CQk8L2c+JiN4YTsJCTxnIGlkPSJzaGFwZTEzMS0zMiIgdHJhbnNmb3JtPSJ0cmFuc2xhdGUoMjQuNzc3NiwtMzEuNzQxNykiPiYjeGE7CQkJPHRpdGxlIGlkPSJ0aXRsZTExMjg2OCI+U2hlZXQuMTMxPC90aXRsZT4mI3hhOwkJCTxwYXRoIGlkPSJwYXRoMTEyODcwIiBpbmtzY2FwZTpjb25uZWN0b3ItY3VydmF0dXJlPSIwIiBzdHlsZT0iZmlsbDojMDAyMDYwOyIgZD0iTTAsNjcuOTZ2My41OWgxOC42MXYtMy41OUgweiIvPiYjeGE7CQk8L2c+JiN4YTsJCTxnIGlkPSJzaGFwZTEzMi0zNCIgdHJhbnNmb3JtPSJ0cmFuc2xhdGUoNTIuNzE1MSwtMjUuNjEyNykiPiYjeGE7CQkJPHRpdGxlIGlkPSJ0aXRsZTExMjg3MyI+U2hlZXQuMTMyPC90aXRsZT4mI3hhOwkJCTxwYXRoIGlkPSJwYXRoMTEyODc1IiBpbmtzY2FwZTpjb25uZWN0b3ItY3VydmF0dXJlPSIwIiBzdHlsZT0iZmlsbDojRkZGRkZGOyIgZD0iTTAsNjEuOTV2OS42aDE4LjYxdi05LjZMMCw2MS45NXoiLz4mI3hhOwkJPC9nPiYjeGE7CQk8ZyBpZD0ic2hhcGUxMzMtMzYiIHRyYW5zZm9ybT0idHJhbnNsYXRlKDUyLjcxNTEsLTMxLjc0MTcpIj4mI3hhOwkJCTx0aXRsZSBpZD0idGl0bGUxMTI4NzgiPlNoZWV0LjEzMzwvdGl0bGU+JiN4YTsJCQk8cGF0aCBpZD0icGF0aDExMjg4MCIgaW5rc2NhcGU6Y29ubmVjdG9yLWN1cnZhdHVyZT0iMCIgc3R5bGU9ImZpbGw6IzkyRDA1MDsiIGQ9Ik0wLDY3Ljk2djMuNTloMTguNjF2LTMuNTlIMHoiLz4mI3hhOwkJPC9nPiYjeGE7CQk8ZyBpZD0ic2hhcGUxMzQtMzgiIHRyYW5zZm9ybT0icm90YXRlKDkwLDM0LjkxOCw4Mi41NTUpIj4mI3hhOwkJCTx0aXRsZSBpZD0idGl0bGUxMTI4ODMiPlNoZWV0LjEzNDwvdGl0bGU+JiN4YTsJCQk8cGF0aCBpZD0icGF0aDExMjg4NSIgaW5rc2NhcGU6Y29ubmVjdG9yLWN1cnZhdHVyZT0iMCIgc3R5bGU9ImZpbGw6I0ZGRkZGRjsiIGQ9Ik0wLDY3LjQ4aDEuOThsMS45OCwyLjAzbC0xLjk4LDIuMDRIMCAgICAgbDEuOTgtMi4wNEwwLDY3LjQ4eiIvPiYjeGE7CQk8L2c+JiN4YTsJPC9nPiYjeGE7PC9nPiYjeGE7PC9zdmc+;rotation=90;" vertex="1" parent="1">
          <mxGeometry x="360" y="-1013.52" width="30" height="22.04" as="geometry" />
        </mxCell>
        <mxCell id="0ri98CfVSG6h3WFVPkks-36" style="edgeStyle=orthogonalEdgeStyle;rounded=0;orthogonalLoop=1;jettySize=auto;html=1;exitX=0.5;exitY=1;exitDx=0;exitDy=0;entryX=0.75;entryY=1;entryDx=0;entryDy=0;" edge="1" parent="1" source="0ri98CfVSG6h3WFVPkks-35" target="0ri98CfVSG6h3WFVPkks-35">
          <mxGeometry relative="1" as="geometry" />
        </mxCell>
        <mxCell id="0ri98CfVSG6h3WFVPkks-37" value="" style="shape=image;verticalLabelPosition=bottom;labelBackgroundColor=#ffffff;verticalAlign=top;aspect=fixed;imageAspect=0;image=data:image/svg+xml,PHN2ZyB4bWxuczpjYz0iaHR0cDovL2NyZWF0aXZlY29tbW9ucy5vcmcvbnMjIiB4bWxuczpkYz0iaHR0cDovL3B1cmwub3JnL2RjL2VsZW1lbnRzLzEuMS8iIHhtbG5zOmlua3NjYXBlPSJodHRwOi8vd3d3Lmlua3NjYXBlLm9yZy9uYW1lc3BhY2VzL2lua3NjYXBlIiB4bWxuczpyZGY9Imh0dHA6Ly93d3cudzMub3JnLzE5OTkvMDIvMjItcmRmLXN5bnRheC1ucyMiIHhtbG5zOnNvZGlwb2RpPSJodHRwOi8vc29kaXBvZGkuc291cmNlZm9yZ2UubmV0L0RURC9zb2RpcG9kaS0wLmR0ZCIgeG1sbnM6c3ZnPSJodHRwOi8vd3d3LnczLm9yZy8yMDAwL3N2ZyIgeG1sbnM9Imh0dHA6Ly93d3cudzMub3JnLzIwMDAvc3ZnIiB4bWxuczp4bGluaz0iaHR0cDovL3d3dy53My5vcmcvMTk5OS94bGluayIgdmVyc2lvbj0iMS4xIiBpZD0ic3ZnMzU5NDQiIGlua3NjYXBlOnZlcnNpb249IjAuOTIuMyAoMjQwNTU0NiwgMjAxOC0wMy0xMSkiIHNvZGlwb2RpOmRvY25hbWU9ImJpenRhbGtfYWRtaW5pc3RyYXRvcl9jb25zb2xlLnN2ZyIgeD0iMHB4IiB5PSIwcHgiIHZpZXdCb3g9IjAgMCA1Ni4yNSA0OS41IiBzdHlsZT0iZW5hYmxlLWJhY2tncm91bmQ6bmV3IDAgMCA1Ni4yNSA0OS41OyIgeG1sOnNwYWNlPSJwcmVzZXJ2ZSI+JiN4YTs8c29kaXBvZGk6bmFtZWR2aWV3IGJvcmRlcmNvbG9yPSIjNjY2NjY2IiBib3JkZXJvcGFjaXR5PSIxIiBmaXQtbWFyZ2luLWJvdHRvbT0iMCIgZml0LW1hcmdpbi1sZWZ0PSIwIiBmaXQtbWFyZ2luLXJpZ2h0PSIwIiBmaXQtbWFyZ2luLXRvcD0iMCIgZ3JpZHRvbGVyYW5jZT0iMTAiIGd1aWRldG9sZXJhbmNlPSIxMCIgaWQ9Im5hbWVkdmlldzM1OTQ2IiBpbmtzY2FwZTpjdXJyZW50LWxheWVyPSJzdmczNTk0NCIgaW5rc2NhcGU6Y3g9IjMzLjQ3MzE4NyIgaW5rc2NhcGU6Y3k9IjEzLjMyMDk0NyIgaW5rc2NhcGU6cGFnZW9wYWNpdHk9IjAiIGlua3NjYXBlOnBhZ2VzaGFkb3c9IjIiIGlua3NjYXBlOndpbmRvdy1oZWlnaHQ9IjEwMTciIGlua3NjYXBlOndpbmRvdy1tYXhpbWl6ZWQ9IjEiIGlua3NjYXBlOndpbmRvdy13aWR0aD0iMTkyMCIgaW5rc2NhcGU6d2luZG93LXg9Ii04IiBpbmtzY2FwZTp3aW5kb3cteT0iLTgiIGlua3NjYXBlOnpvb209IjQuMzc5MDA5NCIgb2JqZWN0dG9sZXJhbmNlPSIxMCIgcGFnZWNvbG9yPSIjZmZmZmZmIiBzaG93Z3JpZD0iZmFsc2UiPiYjeGE7CTwvc29kaXBvZGk6bmFtZWR2aWV3PiYjeGE7PGcgaWQ9ImczNTk0MiIgdHJhbnNmb3JtPSJ0cmFuc2xhdGUoLTEuNSwtMS41KSI+JiN4YTsJPHRpdGxlIGlkPSJ0aXRsZTM1ODg5Ij5QYWdlLTE8L3RpdGxlPiYjeGE7CTxnIGlkPSJncm91cDI2ODgtMSI+JiN4YTsJCTx0aXRsZSBpZD0idGl0bGUzNTg5MSI+Qml6VGFsayBBZG1pbmlzdHJhdG9yIENvbnNvbGU8L3RpdGxlPiYjeGE7CQk8ZyBpZD0ic2hhcGUyNjg5LTIiIHRyYW5zZm9ybT0idHJhbnNsYXRlKDEzLjUsLTEuNSkiPiYjeGE7CQkJPHRpdGxlIGlkPSJ0aXRsZTM1ODkzIj5TaGVldC4yNjg5PC90aXRsZT4mI3hhOwkJCTxwYXRoIGlkPSJwYXRoMzU4OTUiIGlua3NjYXBlOmNvbm5lY3Rvci1jdXJ2YXR1cmU9IjAiIHN0eWxlPSJmaWxsOiMzRjU3NjU7IiBkPSJNMjguMjIsNDguNzVoLTcuOTdWNDAuNUgxMnY4LjI1SDQuMDMgICAgIEMyLjAyLDQ4Ljc1LDAsNTAuNjMsMCw1Mi41aDMyLjI1QzMyLjI1LDUwLjYzLDMwLjIzLDQ4Ljc1LDI4LjIyLDQ4Ljc1eiIvPiYjeGE7CQk8L2c+JiN4YTsJCTxnIGlkPSJzaGFwZTI2OTAtNCIgdHJhbnNmb3JtPSJ0cmFuc2xhdGUoMS41LC0xNSkiPiYjeGE7CQkJPHRpdGxlIGlkPSJ0aXRsZTM1ODk4Ij5TaGVldC4yNjkwPC90aXRsZT4mI3hhOwkJCTxwYXRoIGlkPSJwYXRoMzU5MDAiIGlua3NjYXBlOmNvbm5lY3Rvci1jdXJ2YXR1cmU9IjAiIHN0eWxlPSJmaWxsOiMzRjU3NjU7IiBkPSJNNTQuMjQsMTYuNUgyLjAxQzAuOSwxNi41LDAsMTcuNCwwLDE4LjV2MzIgICAgIGMwLDEuMSwwLjksMiwyLjAxLDJoNTIuMjNjMS4xMSwwLDIuMDEtMC45LDIuMDEtMnYtMzJDNTYuMjUsMTcuNCw1NS4zNSwxNi41LDU0LjI0LDE2LjV6Ii8+JiN4YTsJCTwvZz4mI3hhOwkJPGcgaWQ9InNoYXBlMjY5MS02IiB0cmFuc2Zvcm09InRyYW5zbGF0ZSg1LjI1LC0xOC43NSkiPiYjeGE7CQkJPHRpdGxlIGlkPSJ0aXRsZTM1OTAzIj5TaGVldC4yNjkxPC90aXRsZT4mI3hhOwkJCTxyZWN0IGlkPSJyZWN0MzU5MDUiIHk9IjI0IiBzdHlsZT0iZmlsbDojRkZGRkZGOyIgd2lkdGg9IjQ4Ljc1IiBoZWlnaHQ9IjI4LjUiLz4mI3hhOwkJPC9nPiYjeGE7CQk8ZyBpZD0iZ3JvdXAyNjkyLTgiIHRyYW5zZm9ybT0idHJhbnNsYXRlKDExLjI1LC0yMi41KSI+JiN4YTsJCQk8dGl0bGUgaWQ9InRpdGxlMzU5MDgiPlNoZWV0LjI2OTI8L3RpdGxlPiYjeGE7CQkJPGcgaWQ9InNoYXBlMjY5My05IiB0cmFuc2Zvcm09InRyYW5zbGF0ZSgwLC0xMi43NSkiPiYjeGE7CQkJCTx0aXRsZSBpZD0idGl0bGUzNTkxMCI+U2hlZXQuMjY5MzwvdGl0bGU+JiN4YTsJCQkJPHJlY3QgaWQ9InJlY3QzNTkxMiIgeT0iNDQuMjUiIHN0eWxlPSJmaWxsOiNEQzNDMDA7IiB3aWR0aD0iOSIgaGVpZ2h0PSI4LjI1Ii8+JiN4YTsJCQk8L2c+JiN4YTsJCQk8ZyBpZD0ic2hhcGUyNjk0LTExIiB0cmFuc2Zvcm09InRyYW5zbGF0ZSgxMy41LC0xMi43NSkiPiYjeGE7CQkJCTx0aXRsZSBpZD0idGl0bGUzNTkxNSI+U2hlZXQuMjY5NDwvdGl0bGU+JiN4YTsJCQkJPHJlY3QgaWQ9InJlY3QzNTkxNyIgeT0iNDQuMjUiIHN0eWxlPSJmaWxsOiNFREM4N0U7IiB3aWR0aD0iOS43NSIgaGVpZ2h0PSI4LjI1Ii8+JiN4YTsJCQk8L2c+JiN4YTsJCQk8ZyBpZD0ic2hhcGUyNjk1LTEzIiB0cmFuc2Zvcm09InRyYW5zbGF0ZSgyNy43NSwtMTIuNzUpIj4mI3hhOwkJCQk8dGl0bGUgaWQ9InRpdGxlMzU5MjAiPlNoZWV0LjI2OTU8L3RpdGxlPiYjeGE7CQkJCTxyZWN0IGlkPSJyZWN0MzU5MjIiIHk9IjQ0LjI1IiBzdHlsZT0iZmlsbDojMDBBNEVGOyIgd2lkdGg9IjkiIGhlaWdodD0iOC4yNSIvPiYjeGE7CQkJPC9nPiYjeGE7CQkJPGcgaWQ9InNoYXBlMjY5Ni0xNSI+JiN4YTsJCQkJPHRpdGxlIGlkPSJ0aXRsZTM1OTI1Ij5TaGVldC4yNjk2PC90aXRsZT4mI3hhOwkJCQk8cmVjdCBpZD0icmVjdDM1OTI3IiB5PSI0NC4yNSIgc3R5bGU9ImZpbGw6I0ZGQjkwMDsiIHdpZHRoPSI5IiBoZWlnaHQ9IjguMjUiLz4mI3hhOwkJCTwvZz4mI3hhOwkJCTxnIGlkPSJzaGFwZTI2OTctMTciIHRyYW5zZm9ybT0idHJhbnNsYXRlKDEzLjUpIj4mI3hhOwkJCQk8dGl0bGUgaWQ9InRpdGxlMzU5MzAiPlNoZWV0LjI2OTc8L3RpdGxlPiYjeGE7CQkJCTxyZWN0IGlkPSJyZWN0MzU5MzIiIHk9IjQ0LjI1IiBzdHlsZT0iZmlsbDojNUI5QkQ1OyIgd2lkdGg9IjkuNzUiIGhlaWdodD0iOC4yNSIvPiYjeGE7CQkJPC9nPiYjeGE7CQkJPGcgaWQ9InNoYXBlMjY5OC0xOSIgdHJhbnNmb3JtPSJ0cmFuc2xhdGUoMjcuNzUpIj4mI3hhOwkJCQk8dGl0bGUgaWQ9InRpdGxlMzU5MzUiPlNoZWV0LjI2OTg8L3RpdGxlPiYjeGE7CQkJCTxyZWN0IGlkPSJyZWN0MzU5MzciIHk9IjQ0LjI1IiBzdHlsZT0iZmlsbDojN0ZCQTAwOyIgd2lkdGg9IjkiIGhlaWdodD0iOC4yNSIvPiYjeGE7CQkJPC9nPiYjeGE7CQk8L2c+JiN4YTsJPC9nPiYjeGE7PC9nPiYjeGE7PC9zdmc+;" vertex="1" parent="1">
          <mxGeometry x="690" y="-960" width="66" height="58.93" as="geometry" />
        </mxCell>
        <mxCell id="0ri98CfVSG6h3WFVPkks-39" value="" style="aspect=fixed;html=1;points=[];align=center;image;fontSize=12;image=img/lib/azure2/iot/Stream_Analytics_Jobs.svg;" vertex="1" parent="1">
          <mxGeometry x="681" y="-560" width="68" height="57.99999999999999" as="geometry" />
        </mxCell>
        <mxCell id="0ri98CfVSG6h3WFVPkks-40" value="v" style="rounded=1;whiteSpace=wrap;html=1;dashed=1;strokeColor=none;strokeWidth=2;fillColor=#E6E6E6;fontFamily=Verdana;fontSize=12;fontColor=#00BEF2" vertex="1" parent="1">
          <mxGeometry x="186.77" y="-490" width="210" height="174" as="geometry" />
        </mxCell>
        <mxCell id="0ri98CfVSG6h3WFVPkks-41" value="Database" style="whiteSpace=wrap;html=1;dashed=1;strokeColor=none;strokeWidth=2;fillColor=#3399FF;fontFamily=Helvetica;fontSize=18;fontColor=#FFFFFF;fontStyle=1" vertex="1" parent="1">
          <mxGeometry x="186.77" y="-510" width="210" height="60" as="geometry" />
        </mxCell>
        <mxCell id="0ri98CfVSG6h3WFVPkks-42" value="" style="aspect=fixed;html=1;points=[];align=center;image;fontSize=12;image=img/lib/azure2/databases/SQL_Database.svg;" vertex="1" parent="1">
          <mxGeometry x="212.77" y="-420" width="48" height="64" as="geometry" />
        </mxCell>
        <mxCell id="0ri98CfVSG6h3WFVPkks-43" value="" style="aspect=fixed;html=1;points=[];align=center;image;fontSize=12;image=img/lib/azure2/databases/Azure_Database_MySQL_Server.svg;" vertex="1" parent="1">
          <mxGeometry x="322.77" y="-420" width="48" height="64" as="geometry" />
        </mxCell>
        <mxCell id="0ri98CfVSG6h3WFVPkks-46" value="" style="outlineConnect=0;dashed=0;verticalLabelPosition=bottom;verticalAlign=top;align=center;html=1;shape=mxgraph.aws3.android;fillColor=#8CC64F;gradientColor=none;" vertex="1" parent="1">
          <mxGeometry x="516.5" y="-770" width="53.5" height="60" as="geometry" />
        </mxCell>
      </root>
    </mxGraphModel>
  </diagram>
</mxfile>
